#VRML V2.0 utf8
# 3D model generated by easyeda2kicad.py (https://github.com/uPesy/easyeda2kicad.py)

Shape{
    appearance Appearance {
        material  Material 	{
            diffuseColor 0.20784313725490197 0.20784313725490197 0.20784313725490197
            specularColor 0.01568627450980392 0.01568627450980392 0.01568627450980392
            ambientIntensity 0.2
            transparency 0
            shininess 0.5
        }
    }
    geometry IndexedFaceSet {
        ccw TRUE
        solid FALSE
        coord DEF co Coordinate {
            point [
                0.8188 0.4372 0.2657, 0.6574 0.4372 0.2657, 0.6574 0.2705 0.2657, -0.2546 0.7643 0.2657, -0.2631 0.8042 0.2657, -0.528 0.4918 0.2657, -0.9223 0.8042 0.2657, 0.5845 0.2705 0.2657, 0.5845 0.4372 0.2657, -0.9223 -0.8042 0.2657, 0.423 0.4372 0.2657, 0.5845 0.6663 0.2657, 0.6574 0.6663 0.2657, 0.9223 0.8042 0.2657, 0.9223 -0.8042 0.2657, 0.8188 0.4997 0.2657, 0.6574 0.4997 0.2657, 0.2631 0.8042 0.2657, 0.2546 0.7643 0.2657, 0.5845 0.4997 0.2657, 0.2381 0.722 0.2657, 0.423 0.4997 0.2657, 0.2147 0.6831 0.2657, 0.1849 0.6488 0.2657, 0.1498 0.62 0.2657, 0.1102 0.5977 0.2657, 0.0675 0.5824 0.2657, 0.0227 0.5747 0.2657, -0.0227 0.5747 0.2657, -0.528 0.4451 0.2657, -0.8388 0.4451 0.2657, -0.8388 0.4918 0.2657, -0.0675 0.5824 0.2657, -0.1102 0.5977 0.2657, -0.1498 0.62 0.2657, -0.1849 0.6488 0.2657, -0.2147 0.6831 0.2657, -0.2381 0.722 0.2657, -0.9223 0.8042 -0.2657, 0.1032 0.8042 -0.2657, 0.1032 0.1034 -0.2657, 0.1685 0.083 -0.2657, 0.1879 0.0809 -0.2657, 0.126 -0.0648 -0.2657, 0.1224 0.0968 -0.2657, 0.1224 0.0704 -0.2657, 0.9223 0.1034 -0.2657, 0.9223 -0.8042 -0.2657, 0.3865 -0.0946 -0.2657, 0.1446 0.0799 -0.2657, 0.1224 -0.0628 -0.2657, 0.2026 0.0755 -0.2657, 0.2163 0.0664 -0.2657, 0.2282 0.0533 -0.2657, 0.2425 0.0017 -0.2657, 0.2405 -0.0196 -0.2657, 0.2351 -0.0365 -0.2657, 0.1913 -0.0733 -0.2657, 0.173 -0.0754 -0.2657, 0.2057 -0.0681 -0.2657, 0.2177 -0.0599 -0.2657, 0.227 -0.0502 -0.2657, 0.1468 -0.0725 -0.2657, 0.2857 -0.0946 -0.2657, 0.1032 -0.8042 -0.2657, 0.2199 -0.0879 -0.2657, 0.2585 0.0504 -0.2657, 0.2469 0.0688 -0.2657, 0.3601 0.1022 -0.2657, 0.2292 0.0859 -0.2657, 0.2105 0.0967 -0.2657, 0.2363 0.0381 -0.2657, 0.2415 0.017 -0.2657, 0.1224 -0.0844 -0.2657, 0.1434 -0.093 -0.2657, 0.1712 -0.0969 -0.2657, 0.2358 -0.0778 -0.2657, 0.2506 -0.0622 -0.2657, 0.2857 -0.073 -0.2657, 0.261 -0.0435 -0.2657, 0.3601 -0.073 -0.2657, 0.1885 0.103 -0.2657, 0.1835 0.1034 -0.2657, 0.3865 0.1022 -0.2657, 0.1766 -0.097 -0.2657, 0.2009 -0.0945 -0.2657, 0.267 -0.0227 -0.2657, 0.2689 0.0001 -0.2657, 0.266 0.0281 -0.2657, 0.9223 0.8042 -0.2657, 0.1688 0.1046 -0.2657, 0.1514 0.1034 -0.2657, 0.1452 0.103 -0.2657, -0.2617 -0.0946 -0.2657, -0.2329 -0.0946 -0.2657, -0.3618 -0.0394 -0.2657, -0.2805 -0.0394 -0.2657, -0.3817 -0.0946 -0.2657, -0.9223 -0.8042 -0.2657, -0.2086 -0.0407 -0.2657, -0.1973 -0.0583 -0.2657, -0.1811 -0.0738 -0.2657, -0.1606 -0.0857 -0.2657, -0.3073 0.1022 -0.2657, -0.3337 0.1022 -0.2657, -0.1379 -0.0925 -0.2657, -0.1135 -0.0946 -0.2657, -0.06 -0.0946 -0.2657, 0.0576 0.0806 -0.2657, 0.0576 0.0158 -0.2657, -0.0168 0.0806 -0.2657, -0.012 0.0158 -0.2657, -0.012 -0.0058 -0.2657, -0.06 0.1022 -0.2657, -0.9223 0.1034 -0.2657, -0.4105 -0.0946 -0.2657, 0.0576 -0.0058 -0.2657, 0.0576 -0.073 -0.2657, -0.0216 -0.073 -0.2657, -0.0216 -0.0946 -0.2657, 0.084 -0.0946 -0.2657, 0.084 0.1022 -0.2657, -0.0168 0.1022 -0.2657, -0.144 0.0992 -0.2657, -0.167 0.0911 -0.2657, -0.1885 0.0768 -0.2657, -0.1887 0.0766 -0.2657, -0.2026 0.0611 -0.2657, -0.2117 0.0442 -0.2657, -0.217 0.0248 -0.2657, -0.2185 0.0063 -0.2657, -0.2157 -0.0201 -0.2657, -0.1156 0.1022 -0.2657, -0.9449 -0.8661 -0.0453, -0.9252 -0.8661 -0.0453, -0.9449 -0.8661 0.0453, -0.9252 -0.8661 0.0453, 0.9449 -0.8661 0.0453, 0.9252 -0.8661 0.0453, 0.9449 -0.8661 -0.0453, 0.9252 -0.8661 -0.0453, -0.9449 0.8661 0.0453, -0.9252 0.8661 0.0453, -0.9449 0.8661 -0.0453, -0.9252 0.8661 -0.0453, -0.6496 0.8661 0.0453, 0.6496 0.8661 0.0453, -0.6496 0.8661 -0.0453, 0.6496 0.8661 -0.0453, 0.9449 0.8661 -0.0453, 0.9252 0.8661 -0.0453, 0.9449 0.8661 0.0453, 0.9252 0.8661 0.0453, -0.9843 -0.8268 0.0453, -0.9843 0.8268 0.0453, -0.9843 -0.8268 -0.0453, -0.9843 0.8268 -0.0453, -0.6496 -0.8661 -0.0453, 0.6496 -0.8661 -0.0453, -0.6496 -0.8661 0.0453, 0.6496 -0.8661 0.0453, 0.9843 -0.8268 -0.0453, 0.9843 0.8268 -0.0453, 0.9843 -0.8268 0.0453, 0.9843 0.8268 0.0453, 0.9452 -0.8661 0.0453, 0.9223 -0.8433 0.2312, -0.9223 -0.8433 0.2312, -0.9452 -0.8661 0.0453, 0.9843 0.8271 0.0453, 0.9614 0.8042 0.2312, 0.9614 -0.8042 0.2312, 0.9843 -0.8271 0.0453, 0.2634 0.8457 0.2114, 0.2631 0.8433 0.2312, 0.9223 0.8433 0.2312, -0.9452 0.8661 0.0453, -0.9223 0.8433 0.2312, -0.2631 0.8433 0.2312, -0.2634 0.8457 0.2114, -0.2637 0.8481 0.1918, 0.2637 0.8481 0.1918, 0.9452 0.8661 0.0453, -0.9843 -0.8271 0.0453, -0.9614 -0.8042 0.2312, -0.9614 0.8042 0.2312, -0.9843 0.8271 0.0453, -0.9452 -0.8661 -0.0453, -0.9223 -0.8433 -0.2312, 0.9223 -0.8433 -0.2312, 0.9452 -0.8661 -0.0453, 0.9843 -0.8271 -0.0453, 0.9614 -0.8042 -0.2312, 0.9614 0.8042 -0.2312, 0.9843 0.8271 -0.0453, 0.9452 0.8661 -0.0453, 0.9223 0.8433 -0.2312, -0.9223 0.8433 -0.2312, -0.9452 0.8661 -0.0453, -0.9843 0.8271 -0.0453, -0.9614 0.8042 -0.2312, -0.9614 -0.8042 -0.2312, -0.9843 -0.8271 -0.0453, -0.9843 -0.8271 -0.0453
            ]
        }
        coordIndex [
            0,1,2,-1,3,4,5,-1,5,4,6,-1,7,8,9,-1,9,8,10,-1,11,12,13,-1,7,9,2,-1,2,9,14,-1,2,14,0,-1,0,14,13,-1,0,13,15,-1,15,13,12,-1,15,12,16,-1,13,17,11,-1,11,17,18,-1,11,18,19,-1,19,18,20,-1,19,20,21,-1,21,20,22,-1,21,22,10,-1,10,22,23,-1,10,23,24,-1,24,25,10,-1,10,25,26,-1,10,26,27,-1,27,28,10,-1,10,28,29,-1,10,29,9,-1,9,29,30,-1,9,30,6,-1,6,30,31,-1,6,31,5,-1,28,32,29,-1,29,32,33,-1,29,33,34,-1,34,35,29,-1,29,35,36,-1,29,36,5,-1,5,36,37,-1,5,37,3,-1,38,39,40,-1,41,42,43,-1,40,44,45,-1,46,47,48,-1,41,43,49,-1,49,43,50,-1,49,50,45,-1,42,51,43,-1,43,51,52,-1,43,52,53,-1,54,55,43,-1,43,55,56,-1,57,58,59,-1,59,58,60,-1,56,61,43,-1,43,61,60,-1,43,60,62,-1,62,60,58,-1,48,47,63,-1,63,47,64,-1,63,64,65,-1,66,67,68,-1,68,67,69,-1,68,69,70,-1,53,71,43,-1,43,71,72,-1,43,72,54,-1,45,50,40,-1,40,50,73,-1,40,73,64,-1,64,73,74,-1,64,74,75,-1,65,76,63,-1,63,76,77,-1,63,77,78,-1,78,77,79,-1,78,79,80,-1,70,81,68,-1,68,81,82,-1,68,82,83,-1,75,84,64,-1,64,84,85,-1,64,85,65,-1,79,86,80,-1,80,86,87,-1,80,87,68,-1,68,87,88,-1,68,88,66,-1,48,83,46,-1,46,83,82,-1,46,82,89,-1,89,82,39,-1,82,90,39,-1,39,90,91,-1,39,91,40,-1,40,91,92,-1,40,92,44,-1,93,94,64,-1,95,96,97,-1,97,96,93,-1,97,93,98,-1,98,93,64,-1,99,100,94,-1,94,100,101,-1,94,101,64,-1,64,101,102,-1,103,104,40,-1,102,105,64,-1,64,105,106,-1,64,106,107,-1,108,109,110,-1,110,109,111,-1,112,107,111,-1,111,107,113,-1,111,113,110,-1,38,40,114,-1,114,40,104,-1,114,104,98,-1,98,104,115,-1,98,115,97,-1,116,117,112,-1,112,117,118,-1,112,118,107,-1,107,118,119,-1,107,119,64,-1,64,119,120,-1,64,120,40,-1,40,120,121,-1,40,121,122,-1,123,124,103,-1,103,124,125,-1,125,126,103,-1,103,126,127,-1,103,127,128,-1,128,129,103,-1,103,129,130,-1,103,130,94,-1,94,130,131,-1,94,131,99,-1,123,103,132,-1,132,103,40,-1,132,40,113,-1,113,40,122,-1,113,122,110,-1,133,134,135,-1,135,134,136,-1,137,138,139,-1,139,138,140,-1,141,142,143,-1,143,142,144,-1,145,146,147,-1,147,146,148,-1,149,150,151,-1,151,150,152,-1,153,154,155,-1,155,154,156,-1,157,158,159,-1,159,158,160,-1,161,162,163,-1,163,162,164,-1,165,166,137,-1,137,166,138,-1,167,168,135,-1,135,136,167,-1,167,136,159,-1,167,159,166,-1,166,159,160,-1,166,160,138,-1,169,170,164,-1,164,170,171,-1,164,171,163,-1,163,171,172,-1,173,174,175,-1,141,176,177,-1,178,179,177,-1,177,179,180,-1,181,146,180,-1,180,146,145,-1,180,145,177,-1,177,145,142,-1,177,142,141,-1,175,182,151,-1,181,173,146,-1,146,173,175,-1,146,175,152,-1,152,175,151,-1,183,184,153,-1,153,184,185,-1,153,185,154,-1,154,185,186,-1,187,188,133,-1,133,188,134,-1,189,190,139,-1,139,140,189,-1,189,140,158,-1,189,158,188,-1,188,158,157,-1,188,157,134,-1,161,191,192,-1,161,192,162,-1,162,192,193,-1,162,193,194,-1,195,196,149,-1,149,196,150,-1,197,198,143,-1,143,144,197,-1,197,144,147,-1,197,147,196,-1,196,147,148,-1,196,148,150,-1,199,200,156,-1,156,200,201,-1,156,201,155,-1,155,201,202,-1,
        ]
    }
}
Shape{
    appearance Appearance {
        material  Material 	{
            diffuseColor 0.6666666666666666 0.6666666666666666 0.6666666666666666
            specularColor 0.4666666666666667 0.4666666666666667 0.4666666666666667
            ambientIntensity 0.2
            transparency 0
            shininess 0.5
        }
    }
    geometry IndexedFaceSet {
        ccw TRUE
        solid FALSE
        coord DEF co Coordinate {
            point [
                0.9252 1.378 -0.3445, 0.9252 1.1621 -0.3445, 0.6496 1.378 -0.3445, 0.6496 1.1621 -0.3445, 0.9252 1.378 -0.2539, 0.6496 1.378 -0.2539, 0.9252 1.1621 -0.2539, 0.6496 1.1621 -0.2539, 0.9252 1.1557 -0.2532, 0.6496 1.1557 -0.2532, 0.9252 1.1497 -0.251, 0.6496 1.1497 -0.251, 0.9252 1.1444 -0.2475, 0.6496 1.1444 -0.2475, 0.9252 1.14 -0.2428, 0.6496 1.14 -0.2428, 0.9252 1.1368 -0.2373, 0.6496 1.1368 -0.2373, 0.9252 1.135 -0.2312, 0.6496 1.135 -0.2312, 0.9252 1.1051 -0.0621, 0.6496 1.1051 -0.0621, 0.6496 1.0965 -0.0332, 0.9252 1.0965 -0.0332, 0.6496 1.0814 -0.0071, 0.9252 1.0814 -0.0071, 0.6496 1.0607 0.0149, 0.9252 1.0607 0.0149, 0.6496 1.0355 0.0315, 0.9252 1.0355 0.0315, 0.6496 1.0072 0.0418, 0.9252 1.0072 0.0418, 0.6496 0.9772 0.0453, 0.9252 0.9772 0.0453, 0.9252 0.8661 0.0453, 0.6496 0.8661 0.0453, 0.9252 0.9772 -0.0453, 0.9252 0.8661 -0.0453, 0.6496 0.9772 -0.0453, 0.6496 0.8661 -0.0453, 0.9252 0.9863 -0.0463, 0.6496 0.9863 -0.0463, 0.9252 0.9949 -0.0495, 0.6496 0.9949 -0.0495, 0.9252 1.0025 -0.0545, 0.6496 1.0025 -0.0545, 0.9252 1.0088 -0.0611, 0.6496 1.0088 -0.0611, 0.9252 1.0133 -0.0691, 0.6496 1.0133 -0.0691, 0.9252 1.016 -0.0778, 0.6496 1.016 -0.0778, 0.9252 1.0458 -0.2469, 0.6496 1.0458 -0.2469, 0.6496 1.0536 -0.2732, 0.9252 1.0536 -0.2732, 0.6496 1.0674 -0.2969, 0.9252 1.0674 -0.2969, 0.6496 1.0862 -0.3169, 0.9252 1.0862 -0.3169, 0.6496 1.1091 -0.3319, 0.9252 1.1091 -0.3319, 0.6496 1.1349 -0.3413, 0.9252 1.1349 -0.3413, -0.6496 1.378 -0.3445, -0.6496 1.1621 -0.3445, -0.9252 1.378 -0.3445, -0.9252 1.1621 -0.3445, -0.6496 1.378 -0.2539, -0.9252 1.378 -0.2539, -0.6496 1.1621 -0.2539, -0.9252 1.1621 -0.2539, -0.6496 1.1557 -0.2532, -0.9252 1.1557 -0.2532, -0.6496 1.1497 -0.251, -0.9252 1.1497 -0.251, -0.6496 1.1444 -0.2475, -0.9252 1.1444 -0.2475, -0.6496 1.14 -0.2428, -0.9252 1.14 -0.2428, -0.6496 1.1368 -0.2373, -0.9252 1.1368 -0.2373, -0.6496 1.135 -0.2312, -0.9252 1.135 -0.2312, -0.6496 1.1051 -0.0621, -0.9252 1.1051 -0.0621, -0.9252 1.0965 -0.0332, -0.6496 1.0965 -0.0332, -0.9252 1.0814 -0.0071, -0.6496 1.0814 -0.0071, -0.9252 1.0607 0.0149, -0.6496 1.0607 0.0149, -0.9252 1.0355 0.0315, -0.6496 1.0355 0.0315, -0.9252 1.0072 0.0418, -0.6496 1.0072 0.0418, -0.9252 0.9772 0.0453, -0.6496 0.9772 0.0453, -0.6496 0.8661 0.0453, -0.9252 0.8661 0.0453, -0.6496 0.9772 -0.0453, -0.6496 0.8661 -0.0453, -0.9252 0.9772 -0.0453, -0.9252 0.8661 -0.0453, -0.6496 0.9863 -0.0463, -0.9252 0.9863 -0.0463, -0.6496 0.9949 -0.0495, -0.9252 0.9949 -0.0495, -0.6496 1.0025 -0.0545, -0.9252 1.0025 -0.0545, -0.6496 1.0088 -0.0611, -0.9252 1.0088 -0.0611, -0.6496 1.0133 -0.0691, -0.9252 1.0133 -0.0691, -0.6496 1.016 -0.0778, -0.9252 1.016 -0.0778, -0.6496 1.0458 -0.2469, -0.9252 1.0458 -0.2469, -0.9252 1.0536 -0.2732, -0.6496 1.0536 -0.2732, -0.9252 1.0674 -0.2969, -0.6496 1.0674 -0.2969, -0.9252 1.0862 -0.3169, -0.6496 1.0862 -0.3169, -0.9252 1.1091 -0.3319, -0.6496 1.1091 -0.3319, -0.9252 1.1349 -0.3413, -0.6496 1.1349 -0.3413, 0.9252 -1.1621 -0.3445, 0.9252 -1.378 -0.3445, 0.6496 -1.1621 -0.3445, 0.6496 -1.378 -0.3445, 0.6496 -1.1349 -0.3413, 0.9252 -1.1349 -0.3413, 0.6496 -1.1091 -0.3319, 0.9252 -1.1091 -0.3319, 0.6496 -1.0862 -0.3169, 0.9252 -1.0862 -0.3169, 0.6496 -1.0674 -0.2969, 0.9252 -1.0674 -0.2969, 0.6496 -1.0536 -0.2732, 0.9252 -1.0536 -0.2732, 0.6496 -1.0458 -0.2469, 0.9252 -1.0458 -0.2469, 0.9252 -1.016 -0.0778, 0.6496 -1.016 -0.0778, 0.9252 -1.0133 -0.0691, 0.6496 -1.0133 -0.0691, 0.9252 -1.0088 -0.0611, 0.6496 -1.0088 -0.0611, 0.9252 -1.0025 -0.0545, 0.6496 -1.0025 -0.0545, 0.9252 -0.9949 -0.0495, 0.6496 -0.9949 -0.0495, 0.9252 -0.9863 -0.0463, 0.6496 -0.9863 -0.0463, 0.9252 -0.9772 -0.0453, 0.6496 -0.9772 -0.0453, 0.9252 -0.8661 -0.0453, 0.6496 -0.8661 -0.0453, 0.9252 -0.9772 0.0453, 0.9252 -0.8661 0.0453, 0.6496 -0.9772 0.0453, 0.6496 -0.8661 0.0453, 0.6496 -1.0072 0.0418, 0.9252 -1.0072 0.0418, 0.6496 -1.0355 0.0315, 0.9252 -1.0355 0.0315, 0.6496 -1.0607 0.0149, 0.9252 -1.0607 0.0149, 0.6496 -1.0814 -0.0071, 0.9252 -1.0814 -0.0071, 0.6496 -1.0965 -0.0332, 0.9252 -1.0965 -0.0332, 0.6496 -1.1051 -0.0621, 0.9252 -1.1051 -0.0621, 0.9252 -1.135 -0.2312, 0.6496 -1.135 -0.2312, 0.9252 -1.1368 -0.2373, 0.6496 -1.1368 -0.2373, 0.9252 -1.14 -0.2428, 0.6496 -1.14 -0.2428, 0.9252 -1.1444 -0.2475, 0.6496 -1.1444 -0.2475, 0.9252 -1.1497 -0.251, 0.6496 -1.1497 -0.251, 0.9252 -1.1557 -0.2532, 0.6496 -1.1557 -0.2532, 0.9252 -1.1621 -0.2539, 0.6496 -1.1621 -0.2539, 0.9252 -1.378 -0.2539, 0.6496 -1.378 -0.2539, -0.6496 -1.1621 -0.3445, -0.6496 -1.378 -0.3445, -0.9252 -1.1621 -0.3445, -0.9252 -1.378 -0.3445, -0.9252 -1.1349 -0.3413, -0.6496 -1.1349 -0.3413, -0.9252 -1.1091 -0.3319, -0.6496 -1.1091 -0.3319, -0.9252 -1.0862 -0.3169, -0.6496 -1.0862 -0.3169, -0.9252 -1.0674 -0.2969, -0.6496 -1.0674 -0.2969, -0.9252 -1.0536 -0.2732, -0.6496 -1.0536 -0.2732, -0.9252 -1.0458 -0.2469, -0.6496 -1.0458 -0.2469, -0.6496 -1.016 -0.0778, -0.9252 -1.016 -0.0778, -0.6496 -1.0133 -0.0691, -0.9252 -1.0133 -0.0691, -0.6496 -1.0088 -0.0611, -0.9252 -1.0088 -0.0611, -0.6496 -1.0025 -0.0545, -0.9252 -1.0025 -0.0545, -0.6496 -0.9949 -0.0495, -0.9252 -0.9949 -0.0495, -0.6496 -0.9863 -0.0463, -0.9252 -0.9863 -0.0463, -0.6496 -0.9772 -0.0453, -0.9252 -0.9772 -0.0453, -0.6496 -0.8661 -0.0453, -0.9252 -0.8661 -0.0453, -0.6496 -0.9772 0.0453, -0.6496 -0.8661 0.0453, -0.9252 -0.9772 0.0453, -0.9252 -0.8661 0.0453, -0.9252 -1.0072 0.0418, -0.6496 -1.0072 0.0418, -0.9252 -1.0355 0.0315, -0.6496 -1.0355 0.0315, -0.9252 -1.0607 0.0149, -0.6496 -1.0607 0.0149, -0.9252 -1.0814 -0.0071, -0.6496 -1.0814 -0.0071, -0.9252 -1.0965 -0.0332, -0.6496 -1.0965 -0.0332, -0.9252 -1.1051 -0.0621, -0.6496 -1.1051 -0.0621, -0.6496 -1.135 -0.2312, -0.9252 -1.135 -0.2312, -0.6496 -1.1368 -0.2373, -0.9252 -1.1368 -0.2373, -0.6496 -1.14 -0.2428, -0.9252 -1.14 -0.2428, -0.6496 -1.1444 -0.2475, -0.9252 -1.1444 -0.2475, -0.6496 -1.1497 -0.251, -0.9252 -1.1497 -0.251, -0.6496 -1.1557 -0.2532, -0.9252 -1.1557 -0.2532, -0.6496 -1.1621 -0.2539, -0.9252 -1.1621 -0.2539, -0.6496 -1.378 -0.2539, -0.9252 -1.378 -0.2539, -0.9252 -1.378 -0.2539
            ]
        }
        coordIndex [
            0,1,2,-1,2,1,3,-1,4,0,5,-1,5,0,2,-1,6,4,7,-1,7,4,5,-1,6,7,8,-1,8,7,9,-1,8,9,10,-1,10,9,11,-1,10,11,12,-1,12,11,13,-1,12,13,14,-1,14,13,15,-1,14,15,16,-1,16,15,17,-1,16,17,18,-1,18,17,19,-1,20,18,21,-1,21,18,19,-1,20,21,22,-1,20,22,23,-1,23,22,24,-1,23,24,25,-1,25,24,26,-1,25,26,27,-1,27,26,28,-1,27,28,29,-1,29,28,30,-1,29,30,31,-1,31,30,32,-1,31,32,33,-1,34,33,35,-1,35,33,32,-1,36,37,38,-1,38,37,39,-1,36,38,40,-1,40,38,41,-1,40,41,42,-1,42,41,43,-1,42,43,44,-1,44,43,45,-1,44,45,46,-1,46,45,47,-1,46,47,48,-1,48,47,49,-1,48,49,50,-1,50,49,51,-1,52,50,53,-1,53,50,51,-1,52,53,54,-1,52,54,55,-1,55,54,56,-1,55,56,57,-1,57,56,58,-1,57,58,59,-1,59,58,60,-1,59,60,61,-1,61,60,62,-1,61,62,63,-1,63,62,3,-1,63,3,1,-1,34,37,33,-1,33,37,36,-1,33,36,31,-1,31,36,40,-1,31,40,29,-1,29,40,42,-1,29,42,27,-1,27,42,44,-1,27,44,25,-1,25,44,46,-1,25,46,23,-1,23,46,48,-1,23,48,20,-1,20,48,50,-1,20,50,18,-1,18,50,52,-1,18,52,16,-1,16,52,55,-1,16,55,14,-1,14,55,57,-1,14,57,12,-1,12,57,59,-1,12,59,10,-1,10,59,61,-1,10,61,8,-1,8,61,63,-1,8,63,6,-1,6,63,1,-1,6,1,4,-1,4,1,0,-1,39,35,38,-1,38,35,32,-1,38,32,41,-1,41,32,30,-1,41,30,43,-1,43,30,28,-1,43,28,45,-1,45,28,26,-1,45,26,47,-1,47,26,24,-1,47,24,49,-1,49,24,22,-1,49,22,51,-1,51,22,21,-1,51,21,53,-1,53,21,19,-1,53,19,54,-1,54,19,17,-1,54,17,56,-1,56,17,15,-1,56,15,58,-1,58,15,13,-1,58,13,60,-1,60,13,11,-1,60,11,62,-1,62,11,9,-1,62,9,3,-1,3,9,7,-1,3,7,2,-1,2,7,5,-1,64,65,66,-1,66,65,67,-1,68,64,69,-1,69,64,66,-1,70,68,71,-1,71,68,69,-1,70,71,72,-1,72,71,73,-1,72,73,74,-1,74,73,75,-1,74,75,76,-1,76,75,77,-1,76,77,78,-1,78,77,79,-1,78,79,80,-1,80,79,81,-1,80,81,82,-1,82,81,83,-1,84,82,85,-1,85,82,83,-1,84,85,86,-1,84,86,87,-1,87,86,88,-1,87,88,89,-1,89,88,90,-1,89,90,91,-1,91,90,92,-1,91,92,93,-1,93,92,94,-1,93,94,95,-1,95,94,96,-1,95,96,97,-1,98,97,99,-1,99,97,96,-1,100,101,102,-1,102,101,103,-1,100,102,104,-1,104,102,105,-1,104,105,106,-1,106,105,107,-1,106,107,108,-1,108,107,109,-1,108,109,110,-1,110,109,111,-1,110,111,112,-1,112,111,113,-1,112,113,114,-1,114,113,115,-1,116,114,117,-1,117,114,115,-1,116,117,118,-1,116,118,119,-1,119,118,120,-1,119,120,121,-1,121,120,122,-1,121,122,123,-1,123,122,124,-1,123,124,125,-1,125,124,126,-1,125,126,127,-1,127,126,67,-1,127,67,65,-1,98,101,97,-1,97,101,100,-1,97,100,95,-1,95,100,104,-1,95,104,93,-1,93,104,106,-1,93,106,91,-1,91,106,108,-1,91,108,89,-1,89,108,110,-1,89,110,87,-1,87,110,112,-1,87,112,84,-1,84,112,114,-1,84,114,82,-1,82,114,116,-1,82,116,80,-1,80,116,119,-1,80,119,78,-1,78,119,121,-1,78,121,76,-1,76,121,123,-1,76,123,74,-1,74,123,125,-1,74,125,72,-1,72,125,127,-1,72,127,70,-1,70,127,65,-1,70,65,68,-1,68,65,64,-1,103,99,102,-1,102,99,96,-1,102,96,105,-1,105,96,94,-1,105,94,107,-1,107,94,92,-1,107,92,109,-1,109,92,90,-1,109,90,111,-1,111,90,88,-1,111,88,113,-1,113,88,86,-1,113,86,115,-1,115,86,85,-1,115,85,117,-1,117,85,83,-1,117,83,118,-1,118,83,81,-1,118,81,120,-1,120,81,79,-1,120,79,122,-1,122,79,77,-1,122,77,124,-1,124,77,75,-1,124,75,126,-1,126,75,73,-1,126,73,67,-1,67,73,71,-1,67,71,66,-1,66,71,69,-1,128,129,130,-1,130,129,131,-1,128,130,132,-1,128,132,133,-1,133,132,134,-1,133,134,135,-1,135,134,136,-1,135,136,137,-1,137,136,138,-1,137,138,139,-1,139,138,140,-1,139,140,141,-1,141,140,142,-1,141,142,143,-1,144,143,145,-1,145,143,142,-1,144,145,146,-1,146,145,147,-1,146,147,148,-1,148,147,149,-1,148,149,150,-1,150,149,151,-1,150,151,152,-1,152,151,153,-1,152,153,154,-1,154,153,155,-1,154,155,156,-1,156,155,157,-1,158,156,159,-1,159,156,157,-1,160,161,162,-1,162,161,163,-1,160,162,164,-1,160,164,165,-1,165,164,166,-1,165,166,167,-1,167,166,168,-1,167,168,169,-1,169,168,170,-1,169,170,171,-1,171,170,172,-1,171,172,173,-1,173,172,174,-1,173,174,175,-1,176,175,177,-1,177,175,174,-1,176,177,178,-1,178,177,179,-1,178,179,180,-1,180,179,181,-1,180,181,182,-1,182,181,183,-1,182,183,184,-1,184,183,185,-1,184,185,186,-1,186,185,187,-1,186,187,188,-1,188,187,189,-1,190,188,191,-1,191,188,189,-1,129,190,131,-1,131,190,191,-1,158,161,156,-1,156,161,160,-1,156,160,154,-1,154,160,165,-1,154,165,152,-1,152,165,167,-1,152,167,150,-1,150,167,169,-1,150,169,148,-1,148,169,171,-1,148,171,146,-1,146,171,173,-1,146,173,144,-1,144,173,175,-1,144,175,143,-1,143,175,176,-1,143,176,141,-1,141,176,178,-1,141,178,139,-1,139,178,180,-1,139,180,137,-1,137,180,182,-1,137,182,135,-1,135,182,184,-1,135,184,133,-1,133,184,186,-1,133,186,128,-1,128,186,188,-1,128,188,129,-1,129,188,190,-1,163,159,162,-1,162,159,157,-1,162,157,164,-1,164,157,155,-1,164,155,166,-1,166,155,153,-1,166,153,168,-1,168,153,151,-1,168,151,170,-1,170,151,149,-1,170,149,172,-1,172,149,147,-1,172,147,174,-1,174,147,145,-1,174,145,177,-1,177,145,142,-1,177,142,179,-1,179,142,140,-1,179,140,181,-1,181,140,138,-1,181,138,183,-1,183,138,136,-1,183,136,185,-1,185,136,134,-1,185,134,187,-1,187,134,132,-1,187,132,189,-1,189,132,130,-1,189,130,191,-1,191,130,131,-1,192,193,194,-1,194,193,195,-1,192,194,196,-1,192,196,197,-1,197,196,198,-1,197,198,199,-1,199,198,200,-1,199,200,201,-1,201,200,202,-1,201,202,203,-1,203,202,204,-1,203,204,205,-1,205,204,206,-1,205,206,207,-1,208,207,209,-1,209,207,206,-1,208,209,210,-1,210,209,211,-1,210,211,212,-1,212,211,213,-1,212,213,214,-1,214,213,215,-1,214,215,216,-1,216,215,217,-1,216,217,218,-1,218,217,219,-1,218,219,220,-1,220,219,221,-1,222,220,223,-1,223,220,221,-1,224,225,226,-1,226,225,227,-1,224,226,228,-1,224,228,229,-1,229,228,230,-1,229,230,231,-1,231,230,232,-1,231,232,233,-1,233,232,234,-1,233,234,235,-1,235,234,236,-1,235,236,237,-1,237,236,238,-1,237,238,239,-1,240,239,241,-1,241,239,238,-1,240,241,242,-1,242,241,243,-1,242,243,244,-1,244,243,245,-1,244,245,246,-1,246,245,247,-1,246,247,248,-1,248,247,249,-1,248,249,250,-1,250,249,251,-1,250,251,252,-1,252,251,253,-1,254,252,255,-1,255,252,253,-1,193,254,195,-1,195,254,255,-1,222,225,220,-1,220,225,224,-1,220,224,218,-1,218,224,229,-1,218,229,216,-1,216,229,231,-1,216,231,214,-1,214,231,233,-1,214,233,212,-1,212,233,235,-1,212,235,210,-1,210,235,237,-1,210,237,208,-1,208,237,239,-1,208,239,207,-1,207,239,240,-1,207,240,205,-1,205,240,242,-1,205,242,203,-1,203,242,244,-1,203,244,201,-1,201,244,246,-1,201,246,199,-1,199,246,248,-1,199,248,197,-1,197,248,250,-1,197,250,192,-1,192,250,252,-1,192,252,193,-1,193,252,254,-1,227,223,226,-1,226,223,221,-1,226,221,228,-1,228,221,219,-1,228,219,230,-1,230,219,217,-1,230,217,232,-1,232,217,215,-1,232,215,234,-1,234,215,213,-1,234,213,236,-1,236,213,211,-1,236,211,238,-1,238,211,209,-1,238,209,241,-1,241,209,206,-1,241,206,243,-1,243,206,204,-1,243,204,245,-1,245,204,202,-1,245,202,247,-1,247,202,200,-1,247,200,249,-1,249,200,198,-1,249,198,251,-1,251,198,196,-1,251,196,253,-1,253,196,194,-1,253,194,255,-1,255,194,195,-1,
        ]
    }
}
Shape{
    appearance Appearance {
        material  Material 	{
            diffuseColor 1.0 1.0 1.0
            specularColor 0.8784313725490196 0.8784313725490196 0.8784313725490196
            ambientIntensity 0.2
            transparency 0
            shininess 0.5
        }
    }
    geometry IndexedFaceSet {
        ccw TRUE
        solid FALSE
        coord DEF co Coordinate {
            point [
                -0.3337 0.1022 -0.2579, -0.4105 -0.0946 -0.2579, -0.3337 0.1022 -0.2657, -0.4105 -0.0946 -0.2657, -0.3817 -0.0946 -0.2579, -0.3817 -0.0946 -0.2657, -0.3618 -0.0394 -0.2579, -0.3618 -0.0394 -0.2657, -0.2805 -0.0394 -0.2579, -0.2805 -0.0394 -0.2657, -0.2617 -0.0946 -0.2579, -0.2617 -0.0946 -0.2657, -0.2329 -0.0946 -0.2579, -0.2329 -0.0946 -0.2657, -0.3073 0.1022 -0.2579, -0.3073 0.1022 -0.2657, -0.2871 -0.0178 -0.2579, -0.3529 -0.0178 -0.2579, -0.3165 0.0644 -0.2579, -0.3184 0.0713 -0.2579, -0.3196 0.0782 -0.2579, -0.3203 0.0782 -0.2579, -0.3215 0.0713 -0.2579, -0.3233 0.0644 -0.2579, -0.2871 -0.0178 -0.2657, -0.3529 -0.0178 -0.2657, -0.3165 0.0644 -0.2657, -0.3184 0.0713 -0.2657, -0.3196 0.0782 -0.2657, -0.3203 0.0782 -0.2657, -0.3215 0.0713 -0.2657, -0.3233 0.0644 -0.2657, -0.1135 -0.0946 -0.2579, -0.06 -0.0946 -0.2579, -0.1135 -0.0946 -0.2657, -0.06 -0.0946 -0.2657, -0.06 0.1022 -0.2579, -0.06 0.1022 -0.2657, -0.1156 0.1022 -0.2579, -0.1156 0.1022 -0.2657, -0.2185 0.0063 -0.2579, -0.2185 0.0063 -0.2657, -0.217 0.0248 -0.2657, -0.217 0.0248 -0.2579, -0.2117 0.0442 -0.2657, -0.2117 0.0442 -0.2579, -0.2026 0.0611 -0.2657, -0.2026 0.0611 -0.2579, -0.1887 0.0766 -0.2657, -0.1887 0.0766 -0.2579, -0.1885 0.0768 -0.2657, -0.1885 0.0768 -0.2579, -0.167 0.0911 -0.2657, -0.167 0.0911 -0.2579, -0.144 0.0992 -0.2657, -0.144 0.0992 -0.2579, -0.1379 -0.0925 -0.2657, -0.1379 -0.0925 -0.2579, -0.1606 -0.0857 -0.2657, -0.1606 -0.0857 -0.2579, -0.1811 -0.0738 -0.2657, -0.1811 -0.0738 -0.2579, -0.1973 -0.0583 -0.2657, -0.1973 -0.0583 -0.2579, -0.2086 -0.0407 -0.2657, -0.2086 -0.0407 -0.2579, -0.2157 -0.0201 -0.2657, -0.2157 -0.0201 -0.2579, -0.1789 0.053 -0.2579, -0.1694 0.0632 -0.2579, -0.155 0.0725 -0.2579, -0.1388 0.0782 -0.2579, -0.1155 0.0806 -0.2579, -0.0864 0.0806 -0.2579, -0.0864 -0.073 -0.2579, -0.1144 -0.073 -0.2579, -0.1351 -0.0711 -0.2579, -0.1517 -0.0659 -0.2579, -0.1651 -0.0579 -0.2579, -0.1762 -0.047 -0.2579, -0.1845 -0.0334 -0.2579, -0.1902 -0.0149 -0.2579, -0.192 0.0057 -0.2579, -0.1904 0.0253 -0.2579, -0.1858 0.0409 -0.2579, -0.1155 0.0806 -0.2657, -0.0864 0.0806 -0.2657, -0.1388 0.0782 -0.2657, -0.155 0.0725 -0.2657, -0.1694 0.0632 -0.2657, -0.1789 0.053 -0.2657, -0.1858 0.0409 -0.2657, -0.1904 0.0253 -0.2657, -0.192 0.0057 -0.2657, -0.1902 -0.0149 -0.2657, -0.1845 -0.0334 -0.2657, -0.1762 -0.047 -0.2657, -0.1651 -0.0579 -0.2657, -0.1517 -0.0659 -0.2657, -0.1351 -0.0711 -0.2657, -0.1144 -0.073 -0.2657, -0.0864 -0.073 -0.2657, -0.0216 -0.073 -0.2579, -0.0216 -0.0946 -0.2579, -0.0216 -0.073 -0.2657, -0.0216 -0.0946 -0.2657, 0.084 -0.0946 -0.2579, 0.084 -0.0946 -0.2657, 0.084 0.1022 -0.2579, 0.084 0.1022 -0.2657, -0.0168 0.1022 -0.2579, -0.0168 0.1022 -0.2657, -0.0168 0.0806 -0.2579, -0.0168 0.0806 -0.2657, 0.0576 0.0806 -0.2579, 0.0576 0.0806 -0.2657, 0.0576 0.0158 -0.2579, 0.0576 0.0158 -0.2657, -0.012 0.0158 -0.2579, -0.012 0.0158 -0.2657, -0.012 -0.0058 -0.2579, -0.012 -0.0058 -0.2657, 0.0576 -0.0058 -0.2579, 0.0576 -0.0058 -0.2657, 0.0576 -0.073 -0.2579, 0.0576 -0.073 -0.2657, 0.1224 -0.0628 -0.2579, 0.1224 -0.0844 -0.2579, 0.1224 -0.0628 -0.2657, 0.1224 -0.0844 -0.2657, 0.1766 -0.097 -0.2579, 0.1766 -0.097 -0.2657, 0.1712 -0.0969 -0.2657, 0.1712 -0.0969 -0.2579, 0.1434 -0.093 -0.2657, 0.1434 -0.093 -0.2579, 0.2689 0.0001 -0.2579, 0.2689 0.0001 -0.2657, 0.267 -0.0227 -0.2657, 0.267 -0.0227 -0.2579, 0.261 -0.0435 -0.2657, 0.261 -0.0435 -0.2579, 0.2506 -0.0622 -0.2657, 0.2506 -0.0622 -0.2579, 0.2358 -0.0778 -0.2657, 0.2358 -0.0778 -0.2579, 0.2199 -0.0879 -0.2657, 0.2199 -0.0879 -0.2579, 0.2009 -0.0945 -0.2657, 0.2009 -0.0945 -0.2579, 0.1688 0.1046 -0.2579, 0.1688 0.1046 -0.2657, 0.1885 0.103 -0.2579, 0.1835 0.1034 -0.2657, 0.1885 0.103 -0.2657, 0.2105 0.0967 -0.2657, 0.2105 0.0967 -0.2579, 0.2292 0.0859 -0.2657, 0.2292 0.0859 -0.2579, 0.2469 0.0688 -0.2657, 0.2469 0.0688 -0.2579, 0.2585 0.0504 -0.2657, 0.2585 0.0504 -0.2579, 0.266 0.0281 -0.2657, 0.266 0.0281 -0.2579, 0.1514 0.1034 -0.2657, 0.1452 0.103 -0.2579, 0.1452 0.103 -0.2657, 0.1224 0.0968 -0.2579, 0.1224 0.0968 -0.2657, 0.1224 0.0704 -0.2579, 0.1224 0.0704 -0.2657, 0.1685 0.083 -0.2579, 0.1685 0.083 -0.2657, 0.1446 0.0799 -0.2657, 0.1446 0.0799 -0.2579, 0.2425 0.0017 -0.2579, 0.2425 0.0017 -0.2657, 0.2415 0.017 -0.2657, 0.2415 0.017 -0.2579, 0.2363 0.0381 -0.2657, 0.2363 0.0381 -0.2579, 0.2282 0.0533 -0.2657, 0.2282 0.0533 -0.2579, 0.2163 0.0664 -0.2657, 0.2163 0.0664 -0.2579, 0.2026 0.0755 -0.2657, 0.2026 0.0755 -0.2579, 0.1879 0.0809 -0.2657, 0.1879 0.0809 -0.2579, 0.173 -0.0754 -0.2579, 0.173 -0.0754 -0.2657, 0.1913 -0.0733 -0.2657, 0.1913 -0.0733 -0.2579, 0.2057 -0.0681 -0.2657, 0.2057 -0.0681 -0.2579, 0.2177 -0.0599 -0.2657, 0.2177 -0.0599 -0.2579, 0.227 -0.0502 -0.2657, 0.227 -0.0502 -0.2579, 0.2351 -0.0365 -0.2657, 0.2351 -0.0365 -0.2579, 0.2405 -0.0196 -0.2657, 0.2405 -0.0196 -0.2579, 0.126 -0.0648 -0.2657, 0.126 -0.0648 -0.2579, 0.1468 -0.0725 -0.2657, 0.1468 -0.0725 -0.2579, 0.2857 -0.073 -0.2579, 0.2857 -0.0946 -0.2579, 0.2857 -0.073 -0.2657, 0.2857 -0.0946 -0.2657, 0.3865 -0.0946 -0.2579, 0.3865 -0.0946 -0.2657, 0.3865 0.1022 -0.2579, 0.3865 0.1022 -0.2657, 0.3601 0.1022 -0.2579, 0.3601 0.1022 -0.2657, 0.3601 -0.073 -0.2579, 0.3601 -0.073 -0.2657, 0.3601 -0.073 -0.2657
            ]
        }
        coordIndex [
            0,1,2,-1,2,1,3,-1,1,4,3,-1,3,4,5,-1,4,6,5,-1,5,6,7,-1,6,8,7,-1,7,8,9,-1,8,10,9,-1,9,10,11,-1,10,12,11,-1,11,12,13,-1,12,14,13,-1,13,14,15,-1,14,0,15,-1,15,0,2,-1,16,8,17,-1,17,8,6,-1,18,14,16,-1,16,14,12,-1,16,12,8,-1,8,12,10,-1,18,19,14,-1,14,19,20,-1,14,20,0,-1,0,20,21,-1,0,21,22,-1,22,23,0,-1,0,23,17,-1,0,17,1,-1,1,17,6,-1,1,6,4,-1,16,17,24,-1,24,17,25,-1,18,16,26,-1,26,16,24,-1,18,26,27,-1,18,27,19,-1,19,27,28,-1,19,28,20,-1,21,20,29,-1,29,20,28,-1,21,29,30,-1,21,30,22,-1,22,30,31,-1,22,31,23,-1,17,23,25,-1,25,23,31,-1,32,33,34,-1,34,33,35,-1,33,36,35,-1,35,36,37,-1,36,38,37,-1,37,38,39,-1,40,41,42,-1,40,42,43,-1,43,42,44,-1,43,44,45,-1,45,44,46,-1,45,46,47,-1,47,46,48,-1,47,48,49,-1,49,48,50,-1,49,50,51,-1,51,50,52,-1,51,52,53,-1,53,52,54,-1,53,54,55,-1,55,54,39,-1,55,39,38,-1,32,34,56,-1,32,56,57,-1,57,56,58,-1,57,58,59,-1,59,58,60,-1,59,60,61,-1,61,60,62,-1,61,62,63,-1,63,62,64,-1,63,64,65,-1,65,64,66,-1,65,66,67,-1,67,66,41,-1,67,41,40,-1,45,47,68,-1,68,47,49,-1,68,49,69,-1,69,49,51,-1,69,51,70,-1,70,51,53,-1,70,53,71,-1,71,53,55,-1,71,55,72,-1,72,55,38,-1,72,38,73,-1,73,38,36,-1,73,36,74,-1,74,36,33,-1,74,33,75,-1,75,33,32,-1,75,32,76,-1,76,32,57,-1,76,57,77,-1,77,57,59,-1,77,59,78,-1,78,59,61,-1,78,61,79,-1,79,61,63,-1,79,63,80,-1,80,63,65,-1,80,65,81,-1,81,65,67,-1,81,67,82,-1,82,67,40,-1,82,40,83,-1,83,40,43,-1,83,43,84,-1,84,43,45,-1,84,45,68,-1,72,73,85,-1,85,73,86,-1,72,85,87,-1,72,87,71,-1,71,87,88,-1,71,88,70,-1,70,88,89,-1,70,89,69,-1,69,89,90,-1,69,90,68,-1,68,90,91,-1,68,91,84,-1,84,91,92,-1,84,92,83,-1,83,92,93,-1,83,93,82,-1,82,93,94,-1,82,94,81,-1,81,94,95,-1,81,95,80,-1,80,95,96,-1,80,96,79,-1,79,96,97,-1,79,97,78,-1,78,97,98,-1,78,98,77,-1,77,98,99,-1,77,99,76,-1,76,99,100,-1,76,100,75,-1,74,75,101,-1,101,75,100,-1,73,74,86,-1,86,74,101,-1,102,103,104,-1,104,103,105,-1,103,106,105,-1,105,106,107,-1,106,108,107,-1,107,108,109,-1,108,110,109,-1,109,110,111,-1,110,112,111,-1,111,112,113,-1,112,114,113,-1,113,114,115,-1,114,116,115,-1,115,116,117,-1,116,118,117,-1,117,118,119,-1,118,120,119,-1,119,120,121,-1,120,122,121,-1,121,122,123,-1,122,124,123,-1,123,124,125,-1,124,102,125,-1,125,102,104,-1,106,103,102,-1,102,124,106,-1,106,124,122,-1,106,122,108,-1,112,110,114,-1,114,110,108,-1,114,108,116,-1,116,108,122,-1,116,122,118,-1,118,122,120,-1,126,127,128,-1,128,127,129,-1,130,131,132,-1,130,132,133,-1,133,132,134,-1,133,134,135,-1,135,134,129,-1,135,129,127,-1,136,137,138,-1,136,138,139,-1,139,138,140,-1,139,140,141,-1,141,140,142,-1,141,142,143,-1,143,142,144,-1,143,144,145,-1,145,144,146,-1,145,146,147,-1,147,146,148,-1,147,148,149,-1,149,148,131,-1,149,131,130,-1,150,151,152,-1,152,151,153,-1,153,154,152,-1,152,154,155,-1,152,155,156,-1,156,155,157,-1,156,157,158,-1,158,157,159,-1,158,159,160,-1,160,159,161,-1,160,161,162,-1,162,161,163,-1,162,163,164,-1,164,163,137,-1,164,137,136,-1,151,150,165,-1,165,150,166,-1,165,166,167,-1,167,166,168,-1,167,168,169,-1,168,170,169,-1,169,170,171,-1,172,173,174,-1,172,174,175,-1,175,174,171,-1,175,171,170,-1,176,177,178,-1,176,178,179,-1,179,178,180,-1,179,180,181,-1,181,180,182,-1,181,182,183,-1,183,182,184,-1,183,184,185,-1,185,184,186,-1,185,186,187,-1,187,186,188,-1,187,188,189,-1,189,188,173,-1,189,173,172,-1,190,191,192,-1,190,192,193,-1,193,192,194,-1,193,194,195,-1,195,194,196,-1,195,196,197,-1,197,196,198,-1,197,198,199,-1,199,198,200,-1,199,200,201,-1,201,200,202,-1,201,202,203,-1,203,202,177,-1,203,177,176,-1,126,128,204,-1,126,204,205,-1,205,204,206,-1,205,206,207,-1,207,206,191,-1,207,191,190,-1,193,130,190,-1,190,130,133,-1,190,133,207,-1,207,133,135,-1,207,135,205,-1,205,135,127,-1,205,127,126,-1,170,168,175,-1,175,168,166,-1,175,166,172,-1,172,166,150,-1,172,150,189,-1,189,150,152,-1,189,152,187,-1,187,152,156,-1,187,156,185,-1,185,156,158,-1,185,158,183,-1,183,158,160,-1,183,160,181,-1,181,160,162,-1,181,162,179,-1,179,162,164,-1,179,164,176,-1,176,164,136,-1,176,136,203,-1,203,136,139,-1,203,139,201,-1,201,139,141,-1,201,141,199,-1,199,141,143,-1,199,143,197,-1,197,143,145,-1,197,145,195,-1,195,145,147,-1,195,147,193,-1,193,147,149,-1,193,149,130,-1,208,209,210,-1,210,209,211,-1,209,212,211,-1,211,212,213,-1,212,214,213,-1,213,214,215,-1,214,216,215,-1,215,216,217,-1,216,218,217,-1,217,218,219,-1,218,208,219,-1,219,208,210,-1,216,214,218,-1,218,214,212,-1,218,212,208,-1,208,212,209,-1,
        ]
    }
}
Shape{
    appearance Appearance {
        material  Material 	{
            diffuseColor 0.20784313725490197 0.20784313725490197 0.20784313725490197
            specularColor 0.01568627450980392 0.01568627450980392 0.01568627450980392
            ambientIntensity 0.2
            transparency 0
            shininess 0.5
        }
    }
    geometry IndexedFaceSet {
        ccw TRUE
        solid FALSE
        coord DEF co Coordinate {
            point [
                -0.2871 -0.0178 -0.2657, -0.3529 -0.0178 -0.2657, -0.3165 0.0644 -0.2657, -0.3233 0.0644 -0.2657, -0.3184 0.0713 -0.2657, -0.3215 0.0713 -0.2657, -0.3196 0.0782 -0.2657, -0.3203 0.0782 -0.2657, -0.0864 0.0806 -0.2657, -0.0864 -0.073 -0.2657, -0.1155 0.0806 -0.2657, -0.1144 -0.073 -0.2657, -0.1351 -0.0711 -0.2657, -0.192 0.0057 -0.2657, -0.1904 0.0253 -0.2657, -0.1858 0.0409 -0.2657, -0.1388 0.0782 -0.2657, -0.1517 -0.0659 -0.2657, -0.1651 -0.0579 -0.2657, -0.1762 -0.047 -0.2657, -0.1845 -0.0334 -0.2657, -0.1902 -0.0149 -0.2657, -0.1789 0.053 -0.2657, -0.1694 0.0632 -0.2657, -0.155 0.0725 -0.2657, -0.155 0.0725 -0.2657
            ]
        }
        coordIndex [
            0,1,2,-1,2,1,3,-1,2,3,4,-1,4,3,5,-1,4,5,6,-1,6,5,7,-1,8,9,10,-1,10,9,11,-1,10,11,12,-1,13,14,10,-1,10,14,15,-1,10,15,16,-1,12,17,10,-1,10,17,18,-1,10,18,19,-1,19,20,10,-1,10,20,21,-1,10,21,13,-1,22,23,15,-1,15,23,24,-1,15,24,16,-1,
        ]
    }
}
Shape{
    appearance Appearance {
        material  Material 	{
            diffuseColor 0.596078431372549 0.596078431372549 0.596078431372549
            specularColor 0.043137254901960784 0.043137254901960784 0.043137254901960784
            ambientIntensity 0.2
            transparency 0
            shininess 0.5
        }
    }
    geometry IndexedFaceSet {
        ccw TRUE
        solid FALSE
        coord DEF co Coordinate {
            point [
                0.5845 0.4997 0.2697, 0.5845 0.6663 0.2697, 0.5845 0.4997 0.2657, 0.5845 0.6663 0.2657, 0.423 0.4997 0.2697, 0.423 0.4997 0.2657, 0.423 0.4372 0.2697, 0.423 0.4372 0.2657, 0.5845 0.4372 0.2697, 0.5845 0.4372 0.2657, 0.5845 0.2705 0.2697, 0.5845 0.2705 0.2657, 0.6574 0.2705 0.2697, 0.6574 0.2705 0.2657, 0.6574 0.4372 0.2697, 0.6574 0.4372 0.2657, 0.8188 0.4372 0.2697, 0.8188 0.4372 0.2657, 0.8188 0.4997 0.2697, 0.8188 0.4997 0.2657, 0.6574 0.4997 0.2697, 0.6574 0.4997 0.2657, 0.6574 0.6663 0.2697, 0.6574 0.6663 0.2657, -0.528 0.4451 0.2697, -0.8388 0.4451 0.2697, -0.528 0.4451 0.2657, -0.8388 0.4451 0.2657, -0.528 0.4918 0.2697, -0.528 0.4918 0.2657, -0.8388 0.4918 0.2697, -0.8388 0.4918 0.2657, -0.8388 0.4918 0.2657
            ]
        }
        coordIndex [
            0,1,2,-1,2,1,3,-1,4,0,5,-1,5,0,2,-1,6,4,7,-1,7,4,5,-1,8,6,9,-1,9,6,7,-1,10,8,11,-1,11,8,9,-1,12,10,13,-1,13,10,11,-1,14,12,15,-1,15,12,13,-1,16,14,17,-1,17,14,15,-1,18,16,19,-1,19,16,17,-1,20,18,21,-1,21,18,19,-1,22,20,23,-1,23,20,21,-1,1,22,3,-1,3,22,23,-1,16,18,14,-1,14,18,20,-1,4,6,0,-1,0,6,8,-1,10,12,8,-1,8,12,14,-1,8,14,0,-1,0,14,20,-1,0,20,1,-1,1,20,22,-1,24,25,26,-1,26,25,27,-1,28,24,29,-1,29,24,26,-1,30,28,31,-1,31,28,29,-1,25,30,27,-1,27,30,31,-1,28,30,24,-1,24,30,25,-1,
        ]
    }
}
Shape{
    appearance Appearance {
        material  Material 	{
            diffuseColor 0.20784313725490197 0.20784313725490197 0.20784313725490197
            specularColor 0.01568627450980392 0.01568627450980392 0.01568627450980392
            ambientIntensity 0.2
            transparency 0
            shininess 0.5
        }
    }
    geometry IndexedFaceSet {
        ccw TRUE
        solid FALSE
        coord DEF co Coordinate {
            point [
                0.2168 0.7754 0.2264, 0.224 0.8091 0.2264, -0.2168 0.7754 0.2264, -0.224 0.8091 0.2264, 0.0193 0.6139 0.2264, 0.0574 0.6205 0.2264, 0.0939 0.6335 0.2264, 0.1276 0.6525 0.2264, 0.1575 0.677 0.2264, 0.1828 0.7062 0.2264, 0.2028 0.7393 0.2264, -0.2028 0.7393 0.2264, -0.1828 0.7062 0.2264, -0.1575 0.677 0.2264, -0.1276 0.6525 0.2264, -0.0939 0.6335 0.2264, -0.0193 0.6139 0.2264, -0.0574 0.6205 0.2264, -0.2541 0.8458 0.201, -0.2634 0.8457 0.2114, -0.2541 0.8458 0.201, -0.254 0.8446 0.2111, -0.2536 0.8457 0.2015, -0.2595 0.8474 0.1958, -0.2631 0.8481 0.1924, -0.2637 0.8481 0.1918, -0.2429 0.84 0.2114, -0.2439 0.8405 0.2105, -0.2451 0.8413 0.2106, -0.2452 0.8412 0.2093, -0.2452 0.8412 0.2093, -0.2374 0.835 0.2162, -0.2399 0.8376 0.2142, -0.2449 0.8389 0.2303, -0.2372 0.8337 0.2296, -0.2371 0.8337 0.2296, -0.2374 0.835 0.2163, -0.2323 0.8295 0.2207, -0.2264 0.8187 0.2251, -0.227 0.8203 0.2247, -0.2308 0.8267 0.2286, -0.2309 0.8273 0.2218, -0.2309 0.8275 0.2218, -0.2312 0.828 0.2215, -0.2264 0.8185 0.2275, -0.224 0.8094 0.2264, -0.2256 0.8165 0.2257, -0.2264 0.8185 0.2275, -0.2264 0.8185 0.2252, -0.2537 0.8422 0.2309, -0.2538 0.8422 0.2309, -0.2631 0.8433 0.2312, -0.2631 0.8302 0.2557, -0.2631 0.8289 0.2571, -0.2572 0.8282 0.2571, -0.259 0.8209 0.2618, -0.261 0.8128 0.2647, -0.259 0.8121 0.2647, -0.2631 0.8042 0.2657, -0.2272 0.8182 0.2348, -0.2377 0.8332 0.2348, -0.2539 0.8416 0.2348, -0.2631 0.8225 0.2611, -0.2631 0.8214 0.2618, -0.2631 0.8136 0.2645, -0.2631 0.8131 0.2647, -0.2551 0.8195 0.2618, -0.2573 0.8109 0.2647, -0.2631 0.8352 0.2508, -0.2557 0.8343 0.2508, -0.2631 0.8364 0.2487, -0.2546 0.8388 0.2432, -0.2631 0.8427 0.2348, -0.2631 0.8408 0.2403, -0.2631 0.8398 0.2432, -0.2453 0.8384 0.2348, -0.2466 0.8358 0.2432, -0.2488 0.8317 0.2508, -0.2517 0.8261 0.2571, -0.2396 0.831 0.2432, -0.2427 0.8275 0.2508, -0.2468 0.8228 0.2571, -0.2517 0.8172 0.2618, -0.2316 0.8263 0.2348, -0.2339 0.8247 0.2432, -0.2378 0.822 0.2508, -0.2429 0.8184 0.2571, -0.249 0.8141 0.2618, -0.2559 0.8093 0.2647, -0.2549 0.8074 0.2647, -0.2471 0.8105 0.2618, -0.2401 0.8132 0.2571, -0.2343 0.8155 0.2508, -0.2299 0.8172 0.2432, -0.225 0.8093 0.2348, -0.2278 0.8089 0.2432, -0.2324 0.8083 0.2508, -0.2386 0.8075 0.2571, -0.246 0.8065 0.2618, -0.2543 0.8054 0.2647, -0.224 0.8094 0.2264, 0.2177 0.7751 0.2348, 0.2036 0.7389 0.2348, 0.1836 0.7057 0.2348, 0.1581 0.6763 0.2348, 0.1281 0.6518 0.2348, 0.0943 0.6327 0.2348, 0.0577 0.6196 0.2348, 0.0194 0.613 0.2348, -0.0194 0.613 0.2348, -0.0577 0.6196 0.2348, -0.0943 0.6327 0.2348, -0.1281 0.6518 0.2348, -0.1581 0.6763 0.2348, -0.1836 0.7057 0.2348, -0.2036 0.7389 0.2348, -0.2177 0.7751 0.2348, 0.224 0.8094 0.2264, 0.225 0.8093 0.2348, 0.2278 0.8089 0.2432, 0.2324 0.8083 0.2508, 0.2205 0.7743 0.2432, 0.2386 0.8075 0.2571, 0.2249 0.773 0.2508, 0.246 0.8065 0.2618, 0.2309 0.7712 0.2571, 0.2543 0.8054 0.2647, 0.2381 0.7691 0.2618, 0.2631 0.8042 0.2657, 0.2462 0.7668 0.2647, 0.2546 0.7643 0.2657, 0.2302 0.7259 0.2647, 0.2381 0.722 0.2657, 0.2075 0.6883 0.2647, 0.2147 0.6831 0.2657, 0.1788 0.6551 0.2647, 0.1849 0.6488 0.2657, 0.1448 0.6273 0.2647, 0.1498 0.62 0.2657, 0.1066 0.6057 0.2647, 0.1102 0.5977 0.2657, 0.0652 0.5909 0.2647, 0.0675 0.5824 0.2657, 0.022 0.5835 0.2647, 0.0227 0.5747 0.2657, -0.022 0.5835 0.2647, -0.0227 0.5747 0.2657, -0.0652 0.5909 0.2647, -0.0675 0.5824 0.2657, -0.1066 0.6057 0.2647, -0.1102 0.5977 0.2657, -0.1448 0.6273 0.2647, -0.1498 0.62 0.2657, -0.1788 0.6551 0.2647, -0.1849 0.6488 0.2657, -0.2075 0.6883 0.2647, -0.2147 0.6831 0.2657, -0.2302 0.7259 0.2647, -0.2381 0.722 0.2657, -0.2462 0.7668 0.2647, -0.2546 0.7643 0.2657, 0.2227 0.7295 0.2618, 0.2008 0.6932 0.2618, 0.173 0.6611 0.2618, 0.1401 0.6342 0.2618, 0.1031 0.6133 0.2618, 0.0631 0.599 0.2618, 0.0212 0.5918 0.2618, -0.0212 0.5918 0.2618, -0.0631 0.599 0.2618, -0.1031 0.6133 0.2618, -0.1401 0.6342 0.2618, -0.173 0.6611 0.2618, -0.2008 0.6932 0.2618, -0.2227 0.7295 0.2618, -0.2381 0.7691 0.2618, 0.216 0.7329 0.2571, 0.1947 0.6976 0.2571, 0.1677 0.6665 0.2571, 0.1358 0.6404 0.2571, 0.1 0.6201 0.2571, 0.0612 0.6063 0.2571, 0.0206 0.5993 0.2571, -0.0206 0.5993 0.2571, -0.0612 0.6063 0.2571, -0.1 0.6201 0.2571, -0.1358 0.6404 0.2571, -0.1677 0.6665 0.2571, -0.1947 0.6976 0.2571, -0.216 0.7329 0.2571, -0.2309 0.7712 0.2571, 0.2104 0.7356 0.2508, 0.1897 0.7012 0.2508, 0.1634 0.6709 0.2508, 0.1323 0.6455 0.2508, 0.0974 0.6258 0.2508, 0.0596 0.6123 0.2508, 0.0201 0.6055 0.2508, -0.0201 0.6055 0.2508, -0.0596 0.6123 0.2508, -0.0974 0.6258 0.2508, -0.1323 0.6455 0.2508, -0.1634 0.6709 0.2508, -0.1897 0.7012 0.2508, -0.2104 0.7356 0.2508, -0.2249 0.773 0.2508, 0.2062 0.7377 0.2432, 0.1859 0.704 0.2432, 0.1601 0.6743 0.2432, 0.1297 0.6494 0.2432, 0.0954 0.6301 0.2432, 0.0584 0.6168 0.2432, 0.0197 0.6101 0.2432, -0.0197 0.6101 0.2432, -0.0584 0.6168 0.2432, -0.0954 0.6301 0.2432, -0.1297 0.6494 0.2432, -0.1601 0.6743 0.2432, -0.1859 0.704 0.2432, -0.2062 0.7377 0.2432, -0.2205 0.7743 0.2432, 0.2248 0.8135 0.2261, 0.224 0.8094 0.2264, 0.2264 0.8185 0.2275, 0.2264 0.8185 0.2251, 0.231 0.8274 0.2217, 0.231 0.8273 0.2217, 0.2308 0.8267 0.2286, 0.2278 0.8221 0.2242, 0.2264 0.8185 0.2275, 0.227 0.8203 0.2247, 0.2265 0.8187 0.2251, 0.2323 0.8295 0.2207, 0.2371 0.8337 0.2296, 0.2349 0.8328 0.2185, 0.2439 0.8406 0.2105, 0.2429 0.84 0.2114, 0.2449 0.8389 0.2303, 0.2372 0.8337 0.2296, 0.2374 0.835 0.2163, 0.2374 0.835 0.2163, 0.2452 0.8413 0.2093, 0.2451 0.8413 0.2106, 0.2452 0.8414 0.2093, 0.254 0.8446 0.2111, 0.2486 0.8434 0.2062, 0.2634 0.8457 0.2114, 0.2637 0.8481 0.1918, 0.2631 0.8481 0.1924, 0.2595 0.8474 0.1958, 0.2542 0.8455 0.2009, 0.2542 0.8455 0.2009, 0.2537 0.8422 0.2309, 0.2538 0.8422 0.2309, 0.2631 0.8433 0.2312, -0.9223 0.8433 0.2312, -0.9223 0.8411 0.2401, -0.9223 0.841 0.2404, -0.9223 0.8367 0.2486, -0.9223 0.8366 0.2488, -0.9223 0.8305 0.2558, -0.9223 0.8303 0.2558, -0.9223 0.8226 0.2612, -0.9223 0.8225 0.2612, -0.9223 0.8137 0.2646, -0.9223 0.8137 0.2646, -0.9223 0.8042 0.2657, -0.9614 0.8042 0.2312, -0.9614 -0.8042 0.2312, -0.9592 0.8042 0.2401, -0.9592 -0.8042 0.2401, -0.9591 0.8042 0.2404, -0.9591 -0.8042 0.2404, -0.9549 0.8042 0.2486, -0.9549 -0.8042 0.2486, -0.9547 0.8042 0.2488, -0.9547 -0.8042 0.2488, -0.9486 0.8042 0.2558, -0.9486 -0.8042 0.2558, -0.9484 0.8042 0.2558, -0.9484 -0.8042 0.2558, -0.9407 0.8042 0.2612, -0.9407 -0.8042 0.2612, -0.9406 0.8042 0.2612, -0.9406 -0.8042 0.2612, -0.9318 0.8042 0.2646, -0.9318 -0.8042 0.2646, -0.9318 0.8042 0.2646, -0.9318 -0.8042 0.2646, -0.9223 -0.8042 0.2657, 0.2299 0.8172 0.2432, 0.2343 0.8155 0.2508, 0.2471 0.8105 0.2618, 0.2549 0.8074 0.2647, 0.2559 0.8093 0.2647, 0.224 0.8094 0.2264, 0.2272 0.8182 0.2348, 0.2316 0.8263 0.2348, 0.2377 0.8332 0.2348, 0.2453 0.8384 0.2348, 0.2539 0.8416 0.2348, 0.2631 0.8427 0.2348, 0.2631 0.8131 0.2647, 0.261 0.8128 0.2647, 0.2631 0.8136 0.2645, 0.259 0.8121 0.2647, 0.249 0.8141 0.2618, 0.2573 0.8109 0.2647, 0.2517 0.8172 0.2618, 0.2551 0.8195 0.2618, 0.259 0.8209 0.2618, 0.2401 0.8132 0.2571, 0.2429 0.8184 0.2571, 0.2468 0.8228 0.2571, 0.2517 0.8261 0.2571, 0.2572 0.8282 0.2571, 0.2631 0.8214 0.2618, 0.2631 0.8225 0.2611, 0.2631 0.8289 0.2571, 0.2631 0.8302 0.2557, 0.2378 0.822 0.2508, 0.2427 0.8275 0.2508, 0.2488 0.8317 0.2508, 0.2557 0.8343 0.2508, 0.2339 0.8247 0.2432, 0.2396 0.831 0.2432, 0.2466 0.8358 0.2432, 0.2546 0.8388 0.2432, 0.2631 0.8352 0.2508, 0.2631 0.8364 0.2487, 0.2631 0.8398 0.2432, 0.2631 0.8408 0.2403, -0.954 0.8115 0.2486, -0.9479 0.8101 0.2558, -0.9403 0.8083 0.2612, -0.9316 0.8063 0.2646, -0.9309 0.8083 0.2646, -0.9265 0.8128 0.2646, -0.9283 0.8116 0.2646, -0.9245 0.8135 0.2646, -0.9602 0.8129 0.2321, -0.9583 0.8124 0.2401, -0.96 0.8143 0.2322, -0.9556 0.8202 0.2401, -0.9571 0.821 0.2327, -0.956 0.8236 0.2329, -0.9512 0.8272 0.2401, -0.9524 0.8282 0.233, -0.9498 0.8317 0.2331, -0.9454 0.8331 0.2401, -0.9463 0.8343 0.233, -0.9417 0.8379 0.2329, -0.9384 0.8375 0.2401, -0.9391 0.839 0.2327, -0.9324 0.8419 0.2322, -0.9306 0.8402 0.2401, -0.931 0.8421 0.2321, -0.9367 0.8157 0.2612, -0.9338 0.8186 0.2612, -0.9303 0.8208 0.2612, -0.9264 0.8222 0.2612, -0.9389 0.8122 0.2612, -0.9298 0.8101 0.2646, -0.946 0.8156 0.2558, -0.9428 0.8206 0.2558, -0.9387 0.8247 0.2558, -0.9337 0.8279 0.2558, -0.9282 0.8298 0.2558, -0.9516 0.8183 0.2486, -0.9478 0.8245 0.2486, -0.9426 0.8297 0.2486, -0.9365 0.8335 0.2486, -0.9296 0.8359 0.2486, -0.9223 -0.841 0.2404, -0.9223 -0.8367 0.2486, -0.9296 -0.8359 0.2486, -0.9223 -0.8366 0.2488, -0.9223 -0.8305 0.2558, -0.9282 -0.8298 0.2558, -0.9264 -0.8222 0.2612, -0.9245 -0.8135 0.2646, -0.9265 -0.8128 0.2646, -0.9309 -0.8083 0.2646, -0.9298 -0.8101 0.2646, -0.9316 -0.8063 0.2646, -0.9223 -0.8137 0.2646, -0.931 -0.8421 0.2321, -0.9306 -0.8402 0.2401, -0.9324 -0.8419 0.2322, -0.9384 -0.8375 0.2401, -0.9391 -0.839 0.2327, -0.9417 -0.8379 0.2329, -0.9454 -0.8331 0.2401, -0.9463 -0.8343 0.233, -0.9498 -0.8317 0.2331, -0.9512 -0.8272 0.2401, -0.9524 -0.8282 0.233, -0.956 -0.8236 0.2329, -0.9556 -0.8202 0.2401, -0.9571 -0.821 0.2327, -0.96 -0.8143 0.2322, -0.9583 -0.8124 0.2401, -0.9602 -0.8129 0.2321, -0.9223 -0.8303 0.2558, -0.9223 -0.8226 0.2612, -0.9223 -0.8225 0.2612, -0.9223 -0.8137 0.2646, -0.9338 -0.8186 0.2612, -0.9367 -0.8157 0.2612, -0.9389 -0.8122 0.2612, -0.9403 -0.8083 0.2612, -0.9303 -0.8208 0.2612, -0.9283 -0.8116 0.2646, -0.9337 -0.8279 0.2558, -0.9387 -0.8247 0.2558, -0.9428 -0.8206 0.2558, -0.946 -0.8156 0.2558, -0.9479 -0.8101 0.2558, -0.9365 -0.8335 0.2486, -0.9426 -0.8297 0.2486, -0.9478 -0.8245 0.2486, -0.9516 -0.8183 0.2486, -0.954 -0.8115 0.2486, -0.9223 -0.8433 0.2312, -0.9223 -0.8411 0.2401, 0.9223 0.8433 0.2312, 0.9223 0.8366 0.2488, 0.9223 0.8367 0.2486, 0.9223 0.841 0.2404, 0.9223 0.8411 0.2401, 0.9223 0.8305 0.2558, 0.9223 0.8303 0.2558, 0.9223 0.8226 0.2612, 0.9223 0.8225 0.2612, 0.9223 0.8137 0.2646, 0.9223 0.8137 0.2646, 0.9223 0.8042 0.2657, -0.9843 0.8271 0.0453, -0.9829 0.837 0.0458, -0.9829 0.8371 0.0458, -0.979 0.8465 0.0461, -0.9789 0.8465 0.0461, -0.9727 0.8546 0.0463, -0.9452 0.8661 0.0453, -0.9551 0.8648 0.0458, -0.9553 0.8647 0.0458, -0.9646 0.8609 0.0461, -0.9647 0.8608 0.0461, -0.9452 -0.8661 0.0453, -0.9551 -0.8648 0.0458, -0.9553 -0.8647 0.0458, -0.9646 -0.8609 0.0461, -0.9647 -0.8608 0.0461, -0.9727 -0.8546 0.0463, -0.9843 -0.8271 0.0453, -0.9829 -0.837 0.0458, -0.9829 -0.8371 0.0458, -0.979 -0.8465 0.0461, -0.9789 -0.8465 0.0461, 0.9223 -0.8433 0.2312, 0.9223 -0.8411 0.2401, 0.9223 -0.841 0.2404, 0.9223 -0.8367 0.2486, 0.9223 -0.8366 0.2488, 0.9223 -0.8305 0.2558, 0.9223 -0.8303 0.2558, 0.9223 -0.8226 0.2612, 0.9223 -0.8225 0.2612, 0.9223 -0.8137 0.2646, 0.9223 -0.8137 0.2646, 0.9223 -0.8042 0.2657, 0.9614 -0.8042 0.2312, 0.9614 0.8042 0.2312, 0.9592 -0.8042 0.2401, 0.9592 0.8042 0.2401, 0.9591 -0.8042 0.2404, 0.9591 0.8042 0.2404, 0.9549 -0.8042 0.2486, 0.9549 0.8042 0.2486, 0.9547 -0.8042 0.2488, 0.9547 0.8042 0.2488, 0.9486 -0.8042 0.2558, 0.9486 0.8042 0.2558, 0.9484 -0.8042 0.2558, 0.9484 0.8042 0.2558, 0.9407 -0.8042 0.2612, 0.9407 0.8042 0.2612, 0.9406 -0.8042 0.2612, 0.9406 0.8042 0.2612, 0.9318 -0.8042 0.2646, 0.9318 0.8042 0.2646, 0.9318 -0.8042 0.2646, 0.9318 0.8042 0.2646, 0.9296 0.8359 0.2486, 0.9282 0.8298 0.2558, 0.9264 0.8222 0.2612, 0.9245 0.8135 0.2646, 0.9265 0.8128 0.2646, 0.9309 0.8083 0.2646, 0.9298 0.8101 0.2646, 0.9316 0.8063 0.2646, 0.931 0.8421 0.2321, 0.9306 0.8402 0.2401, 0.9324 0.8419 0.2322, 0.9384 0.8375 0.2401, 0.9391 0.839 0.2327, 0.9417 0.8379 0.2329, 0.9454 0.8331 0.2401, 0.9463 0.8343 0.233, 0.9498 0.8317 0.2331, 0.9512 0.8272 0.2401, 0.9524 0.8282 0.233, 0.956 0.8236 0.2329, 0.9556 0.8202 0.2401, 0.9571 0.821 0.2327, 0.96 0.8143 0.2322, 0.9583 0.8124 0.2401, 0.9602 0.8129 0.2321, 0.9338 0.8186 0.2612, 0.9367 0.8157 0.2612, 0.9389 0.8122 0.2612, 0.9403 0.8083 0.2612, 0.9303 0.8208 0.2612, 0.9283 0.8116 0.2646, 0.9337 0.8279 0.2558, 0.9387 0.8247 0.2558, 0.9428 0.8206 0.2558, 0.946 0.8156 0.2558, 0.9479 0.8101 0.2558, 0.9365 0.8335 0.2486, 0.9426 0.8297 0.2486, 0.9478 0.8245 0.2486, 0.9516 0.8183 0.2486, 0.954 0.8115 0.2486, -0.9449 0.8661 0.0453, -0.9449 0.8661 -0.0453, -0.9452 0.8661 -0.0453, -0.9551 0.8648 -0.0458, -0.9553 0.8647 -0.0458, -0.9646 0.8609 -0.0461, -0.9647 0.8608 -0.0461, -0.9727 0.8546 -0.0463, -0.9789 0.8465 -0.0461, -0.979 0.8465 -0.0461, -0.9829 0.8371 -0.0458, -0.9829 0.837 -0.0458, -0.9843 0.8271 -0.0453, -0.9843 0.8268 0.0453, -0.9843 0.8268 -0.0453, -0.9843 -0.8268 0.0453, -0.9843 -0.8268 -0.0453, -0.9843 -0.8271 -0.0453, -0.9829 -0.837 -0.0458, -0.9829 -0.8371 -0.0458, -0.979 -0.8465 -0.0461, -0.9789 -0.8465 -0.0461, -0.9727 -0.8546 -0.0463, -0.9647 -0.8608 -0.0461, -0.9646 -0.8609 -0.0461, -0.9553 -0.8647 -0.0458, -0.9551 -0.8648 -0.0458, -0.9452 -0.8661 -0.0453, -0.9449 -0.8661 0.0453, -0.9449 -0.8661 -0.0453, 0.954 -0.8115 0.2486, 0.9479 -0.8101 0.2558, 0.9403 -0.8083 0.2612, 0.9316 -0.8063 0.2646, 0.9309 -0.8083 0.2646, 0.9265 -0.8128 0.2646, 0.9283 -0.8116 0.2646, 0.9245 -0.8135 0.2646, 0.9602 -0.8129 0.2321, 0.9583 -0.8124 0.2401, 0.96 -0.8143 0.2322, 0.9556 -0.8202 0.2401, 0.9571 -0.821 0.2327, 0.956 -0.8236 0.2329, 0.9512 -0.8272 0.2401, 0.9524 -0.8282 0.233, 0.9498 -0.8317 0.2331, 0.9454 -0.8331 0.2401, 0.9463 -0.8343 0.233, 0.9417 -0.8379 0.2329, 0.9384 -0.8375 0.2401, 0.9391 -0.839 0.2327, 0.9324 -0.8419 0.2322, 0.9306 -0.8402 0.2401, 0.931 -0.8421 0.2321, 0.9367 -0.8157 0.2612, 0.9338 -0.8186 0.2612, 0.9303 -0.8208 0.2612, 0.9264 -0.8222 0.2612, 0.9389 -0.8122 0.2612, 0.9298 -0.8101 0.2646, 0.946 -0.8156 0.2558, 0.9428 -0.8206 0.2558, 0.9387 -0.8247 0.2558, 0.9337 -0.8279 0.2558, 0.9282 -0.8298 0.2558, 0.9516 -0.8183 0.2486, 0.9478 -0.8245 0.2486, 0.9426 -0.8297 0.2486, 0.9365 -0.8335 0.2486, 0.9296 -0.8359 0.2486, 0.9452 0.8661 0.0453, 0.9536 0.865 0.0457, 0.9553 0.8647 0.0458, 0.9619 0.862 0.046, 0.9843 0.8271 0.0453, 0.9831 0.8355 0.0457, 0.9829 0.8371 0.0458, 0.9801 0.8437 0.046, 0.9789 0.8465 0.0461, 0.9754 0.8511 0.0462, 0.9727 0.8546 0.0463, 0.9692 0.8573 0.0462, 0.9647 0.8608 0.0461, -0.9223 0.8433 -0.2312, -0.931 0.8421 -0.2321, -0.9324 0.8419 -0.2322, -0.9391 0.839 -0.2327, -0.9417 0.8379 -0.2329, -0.9463 0.8343 -0.233, -0.9614 0.8042 -0.2312, -0.9602 0.8129 -0.2321, -0.96 0.8143 -0.2322, -0.9571 0.821 -0.2327, -0.956 0.8236 -0.2329, -0.9524 0.8282 -0.233, -0.9498 0.8317 -0.2331, -0.9223 0.1034 -0.2657, -0.9223 -0.8042 -0.2657, -0.9318 -0.8042 -0.2646, -0.9223 0.8042 -0.2657, -0.9318 0.8042 -0.2646, -0.9318 0.8042 -0.2646, -0.9318 -0.8042 -0.2646, -0.9406 0.8042 -0.2612, -0.9406 -0.8042 -0.2612, -0.9407 0.8042 -0.2612, -0.9407 -0.8042 -0.2612, -0.9484 0.8042 -0.2558, -0.9484 -0.8042 -0.2558, -0.9486 0.8042 -0.2558, -0.9486 -0.8042 -0.2558, -0.9547 0.8042 -0.2488, -0.9547 -0.8042 -0.2488, -0.9549 0.8042 -0.2486, -0.9549 -0.8042 -0.2486, -0.9591 0.8042 -0.2404, -0.9591 -0.8042 -0.2404, -0.9592 0.8042 -0.2401, -0.9592 -0.8042 -0.2401, -0.9614 -0.8042 -0.2312, -0.9602 -0.8129 -0.2321, -0.96 -0.8143 -0.2322, -0.9571 -0.821 -0.2327, -0.956 -0.8236 -0.2329, -0.9524 -0.8282 -0.233, -0.9223 -0.8433 -0.2312, -0.931 -0.8421 -0.2321, -0.9324 -0.8419 -0.2322, -0.9391 -0.839 -0.2327, -0.9417 -0.8379 -0.2329, -0.9463 -0.8343 -0.233, -0.9498 -0.8317 -0.2331, 0.9843 -0.8271 0.0453, 0.9831 -0.8355 0.0457, 0.9829 -0.8371 0.0458, 0.9801 -0.8437 0.046, 0.9452 -0.8661 0.0453, 0.9536 -0.865 0.0457, 0.9553 -0.8647 0.0458, 0.9619 -0.862 0.046, 0.9647 -0.8608 0.0461, 0.9692 -0.8573 0.0462, 0.9727 -0.8546 0.0463, 0.9754 -0.8511 0.0462, 0.9789 -0.8465 0.0461, 0.9843 0.8268 0.0453, 0.9843 0.8268 -0.0453, 0.9843 0.8271 -0.0453, 0.9831 0.8355 -0.0457, 0.9829 0.8371 -0.0458, 0.9801 0.8437 -0.046, 0.9789 0.8465 -0.0461, 0.9754 0.8511 -0.0462, 0.9727 0.8546 -0.0463, 0.9692 0.8573 -0.0462, 0.9647 0.8608 -0.0461, 0.9619 0.862 -0.046, 0.9553 0.8647 -0.0458, 0.9536 0.865 -0.0457, 0.9449 0.8661 -0.0453, 0.9449 0.8661 0.0453, 0.9452 0.8661 -0.0453, -0.9223 0.8137 -0.2646, -0.9245 0.8135 -0.2646, -0.9298 0.8101 -0.2646, -0.9283 0.8116 -0.2646, -0.9403 0.8083 -0.2612, -0.9479 0.8101 -0.2558, -0.954 0.8115 -0.2486, -0.9583 0.8124 -0.2401, -0.9556 0.8202 -0.2401, -0.9384 0.8375 -0.2401, -0.9306 0.8402 -0.2401, -0.9512 0.8272 -0.2401, -0.9223 0.8411 -0.2401, -0.9223 0.841 -0.2404, -0.9296 0.8359 -0.2486, -0.9516 0.8183 -0.2486, -0.9223 0.8367 -0.2486, -0.9223 0.8366 -0.2488, -0.9282 0.8298 -0.2558, -0.946 0.8156 -0.2558, -0.9478 0.8245 -0.2486, -0.9454 0.8331 -0.2401, -0.9223 0.8305 -0.2558, -0.9223 0.8303 -0.2558, -0.9264 0.8222 -0.2612, -0.9426 0.8297 -0.2486, -0.9428 0.8206 -0.2558, -0.9389 0.8122 -0.2612, -0.9316 0.8063 -0.2646, -0.9338 0.8186 -0.2612, -0.9365 0.8335 -0.2486, -0.9337 0.8279 -0.2558, -0.9303 0.8208 -0.2612, -0.9265 0.8128 -0.2646, -0.9387 0.8247 -0.2558, -0.9367 0.8157 -0.2612, -0.9309 0.8083 -0.2646, -0.9223 0.8226 -0.2612, -0.9223 0.8225 -0.2612, -0.9223 0.8137 -0.2646, -0.9316 -0.8063 -0.2646, -0.9283 -0.8116 -0.2646, -0.9298 -0.8101 -0.2646, -0.9223 -0.8225 -0.2612, -0.9223 -0.8226 -0.2612, -0.9264 -0.8222 -0.2612, -0.9223 -0.8303 -0.2558, -0.9223 -0.8305 -0.2558, -0.9282 -0.8298 -0.2558, -0.9296 -0.8359 -0.2486, -0.9306 -0.8402 -0.2401, -0.9384 -0.8375 -0.2401, -0.9556 -0.8202 -0.2401, -0.9583 -0.8124 -0.2401, -0.9454 -0.8331 -0.2401, -0.9223 -0.8411 -0.2401, -0.9223 -0.841 -0.2404, -0.9223 -0.8367 -0.2486, -0.9223 -0.8366 -0.2488, -0.954 -0.8115 -0.2486, -0.9365 -0.8335 -0.2486, -0.9479 -0.8101 -0.2558, -0.9337 -0.8279 -0.2558, -0.9426 -0.8297 -0.2486, -0.9512 -0.8272 -0.2401, -0.9403 -0.8083 -0.2612, -0.9478 -0.8245 -0.2486, -0.9387 -0.8247 -0.2558, -0.9303 -0.8208 -0.2612, -0.9245 -0.8135 -0.2646, -0.9367 -0.8157 -0.2612, -0.9516 -0.8183 -0.2486, -0.946 -0.8156 -0.2558, -0.9389 -0.8122 -0.2612, -0.9309 -0.8083 -0.2646, -0.9223 -0.8137 -0.2646, -0.9223 -0.8137 -0.2646, -0.9428 -0.8206 -0.2558, -0.9338 -0.8186 -0.2612, -0.9265 -0.8128 -0.2646, 0.9449 -0.8661 0.0453, 0.9449 -0.8661 -0.0453, 0.9452 -0.8661 -0.0453, 0.9536 -0.865 -0.0457, 0.9553 -0.8647 -0.0458, 0.9619 -0.862 -0.046, 0.9647 -0.8608 -0.0461, 0.9692 -0.8573 -0.0462, 0.9727 -0.8546 -0.0463, 0.9754 -0.8511 -0.0462, 0.9789 -0.8465 -0.0461, 0.9801 -0.8437 -0.046, 0.9829 -0.8371 -0.0458, 0.9831 -0.8355 -0.0457, 0.9843 -0.8268 -0.0453, 0.9843 -0.8268 0.0453, 0.9843 -0.8271 -0.0453, 0.956 0.8236 -0.2329, 0.9571 0.821 -0.2327, 0.96 0.8143 -0.2322, 0.9602 0.8129 -0.2321, 0.9614 0.8042 -0.2312, 0.9223 0.8433 -0.2312, 0.931 0.8421 -0.2321, 0.9324 0.8419 -0.2322, 0.9391 0.839 -0.2327, 0.9417 0.8379 -0.2329, 0.9463 0.8343 -0.233, 0.9498 0.8317 -0.2331, 0.9524 0.8282 -0.233, 0.1032 0.8042 -0.2657, 0.9223 0.8042 -0.2657, 0.9223 0.8137 -0.2646, 0.9223 0.8137 -0.2646, 0.9223 0.8225 -0.2612, 0.9223 0.8226 -0.2612, 0.9223 0.8303 -0.2558, 0.9223 0.8305 -0.2558, 0.9223 0.8366 -0.2488, 0.9223 0.8367 -0.2486, 0.9223 0.841 -0.2404, 0.9223 0.8411 -0.2401, 0.1032 -0.8042 -0.2657, 0.9223 -0.8042 -0.2657, 0.9223 -0.8137 -0.2646, 0.9223 -0.8137 -0.2646, 0.9223 -0.8225 -0.2612, 0.9223 -0.8226 -0.2612, 0.9223 -0.8303 -0.2558, 0.9223 -0.8305 -0.2558, 0.9223 -0.8366 -0.2488, 0.9223 -0.8367 -0.2486, 0.9223 -0.841 -0.2404, 0.9223 -0.8411 -0.2401, 0.9223 -0.8433 -0.2312, 0.9417 -0.8379 -0.2329, 0.9391 -0.839 -0.2327, 0.9324 -0.8419 -0.2322, 0.931 -0.8421 -0.2321, 0.9614 -0.8042 -0.2312, 0.9602 -0.8129 -0.2321, 0.96 -0.8143 -0.2322, 0.9571 -0.821 -0.2327, 0.956 -0.8236 -0.2329, 0.9524 -0.8282 -0.233, 0.9498 -0.8317 -0.2331, 0.9463 -0.8343 -0.233, 0.9318 0.8042 -0.2646, 0.9316 0.8063 -0.2646, 0.9283 0.8116 -0.2646, 0.9298 0.8101 -0.2646, 0.9264 0.8222 -0.2612, 0.9282 0.8298 -0.2558, 0.9296 0.8359 -0.2486, 0.9306 0.8402 -0.2401, 0.9384 0.8375 -0.2401, 0.9556 0.8202 -0.2401, 0.9583 0.8124 -0.2401, 0.9454 0.8331 -0.2401, 0.9592 0.8042 -0.2401, 0.9591 0.8042 -0.2404, 0.954 0.8115 -0.2486, 0.9365 0.8335 -0.2486, 0.9549 0.8042 -0.2486, 0.9547 0.8042 -0.2488, 0.9479 0.8101 -0.2558, 0.9337 0.8279 -0.2558, 0.9426 0.8297 -0.2486, 0.9512 0.8272 -0.2401, 0.9486 0.8042 -0.2558, 0.9484 0.8042 -0.2558, 0.9403 0.8083 -0.2612, 0.9478 0.8245 -0.2486, 0.9387 0.8247 -0.2558, 0.9303 0.8208 -0.2612, 0.9245 0.8135 -0.2646, 0.9367 0.8157 -0.2612, 0.9516 0.8183 -0.2486, 0.946 0.8156 -0.2558, 0.9389 0.8122 -0.2612, 0.9309 0.8083 -0.2646, 0.9428 0.8206 -0.2558, 0.9338 0.8186 -0.2612, 0.9265 0.8128 -0.2646, 0.9407 0.8042 -0.2612, 0.9406 0.8042 -0.2612, 0.9318 0.8042 -0.2646, 0.9245 -0.8135 -0.2646, 0.9298 -0.8101 -0.2646, 0.9283 -0.8116 -0.2646, 0.9406 -0.8042 -0.2612, 0.9407 -0.8042 -0.2612, 0.9403 -0.8083 -0.2612, 0.9484 -0.8042 -0.2558, 0.9486 -0.8042 -0.2558, 0.9479 -0.8101 -0.2558, 0.954 -0.8115 -0.2486, 0.9583 -0.8124 -0.2401, 0.9556 -0.8202 -0.2401, 0.9384 -0.8375 -0.2401, 0.9306 -0.8402 -0.2401, 0.9512 -0.8272 -0.2401, 0.9592 -0.8042 -0.2401, 0.9591 -0.8042 -0.2404, 0.9549 -0.8042 -0.2486, 0.9547 -0.8042 -0.2488, 0.9296 -0.8359 -0.2486, 0.9516 -0.8183 -0.2486, 0.9282 -0.8298 -0.2558, 0.946 -0.8156 -0.2558, 0.9478 -0.8245 -0.2486, 0.9454 -0.8331 -0.2401, 0.9264 -0.8222 -0.2612, 0.9426 -0.8297 -0.2486, 0.9428 -0.8206 -0.2558, 0.9389 -0.8122 -0.2612, 0.9316 -0.8063 -0.2646, 0.9338 -0.8186 -0.2612, 0.9365 -0.8335 -0.2486, 0.9337 -0.8279 -0.2558, 0.9303 -0.8208 -0.2612, 0.9265 -0.8128 -0.2646, 0.9318 -0.8042 -0.2646, 0.9318 -0.8042 -0.2646, 0.9387 -0.8247 -0.2558, 0.9367 -0.8157 -0.2612, 0.9309 -0.8083 -0.2646, 0.9223 0.1034 -0.2657, 0.9223 0.1034 -0.2657
            ]
        }
        coordIndex [
            0,1,2,-1,2,1,3,-1,2,4,5,-1,5,6,2,-1,2,6,7,-1,2,7,8,-1,8,9,2,-1,2,9,10,-1,2,10,0,-1,2,11,4,-1,4,11,12,-1,4,12,13,-1,13,14,4,-1,4,14,15,-1,4,15,16,-1,16,15,17,-1,18,19,20,-1,20,19,21,-1,20,21,22,-1,18,23,19,-1,19,23,24,-1,19,24,25,-1,26,27,28,-1,28,27,29,-1,28,29,21,-1,21,29,30,-1,21,30,22,-1,31,32,33,-1,33,34,31,-1,31,34,35,-1,31,35,36,-1,36,35,37,-1,38,39,40,-1,39,41,40,-1,40,41,42,-1,40,42,35,-1,35,42,43,-1,35,43,37,-1,44,45,46,-1,40,47,38,-1,38,47,44,-1,38,44,48,-1,48,44,46,-1,32,26,33,-1,33,26,28,-1,33,28,49,-1,49,28,21,-1,49,21,50,-1,50,21,19,-1,50,19,51,-1,52,53,54,-1,55,56,57,-1,57,56,58,-1,44,47,59,-1,35,34,60,-1,49,50,61,-1,61,50,51,-1,62,63,55,-1,55,63,64,-1,55,64,56,-1,56,64,65,-1,56,65,58,-1,53,62,54,-1,54,62,55,-1,54,55,66,-1,66,55,57,-1,66,57,67,-1,67,57,58,-1,68,69,70,-1,70,69,71,-1,51,72,61,-1,61,72,73,-1,61,73,71,-1,71,73,74,-1,71,74,70,-1,33,49,75,-1,75,49,61,-1,75,61,76,-1,76,61,71,-1,76,71,77,-1,77,71,69,-1,77,69,78,-1,34,33,60,-1,60,33,75,-1,60,75,79,-1,79,75,76,-1,79,76,80,-1,80,76,77,-1,80,77,81,-1,81,77,78,-1,81,78,82,-1,40,35,83,-1,83,35,60,-1,83,60,84,-1,84,60,79,-1,84,79,85,-1,85,79,80,-1,85,80,86,-1,86,80,81,-1,86,81,87,-1,87,81,82,-1,87,82,88,-1,88,89,87,-1,87,89,90,-1,87,90,86,-1,86,90,91,-1,86,91,85,-1,85,91,92,-1,85,92,84,-1,84,92,93,-1,84,93,83,-1,83,93,59,-1,83,59,40,-1,40,59,47,-1,45,44,94,-1,94,44,59,-1,94,59,95,-1,95,59,93,-1,95,93,96,-1,96,93,92,-1,96,92,97,-1,97,92,91,-1,97,91,98,-1,98,91,90,-1,98,90,99,-1,99,90,89,-1,99,89,58,-1,88,58,89,-1,68,52,69,-1,69,52,54,-1,69,54,78,-1,78,54,66,-1,78,66,82,-1,82,66,67,-1,82,67,88,-1,88,67,58,-1,3,100,94,-1,3,94,2,-1,1,0,101,-1,101,0,10,-1,101,10,102,-1,102,10,9,-1,102,9,103,-1,103,9,8,-1,103,8,104,-1,104,8,7,-1,104,7,105,-1,105,7,6,-1,105,6,106,-1,106,6,5,-1,106,5,107,-1,107,5,4,-1,107,4,108,-1,108,4,16,-1,108,16,109,-1,109,16,17,-1,109,17,110,-1,110,17,15,-1,110,15,111,-1,111,15,14,-1,111,14,112,-1,112,14,13,-1,112,13,113,-1,113,13,12,-1,113,12,114,-1,114,12,11,-1,114,11,115,-1,115,11,2,-1,115,2,116,-1,116,2,94,-1,117,1,118,-1,118,1,101,-1,118,101,119,-1,120,119,121,-1,122,120,123,-1,124,122,125,-1,126,124,127,-1,128,126,129,-1,128,129,130,-1,130,129,131,-1,130,131,132,-1,132,131,133,-1,132,133,134,-1,134,133,135,-1,134,135,136,-1,136,135,137,-1,136,137,138,-1,138,137,139,-1,138,139,140,-1,140,139,141,-1,140,141,142,-1,142,141,143,-1,142,143,144,-1,144,143,145,-1,144,145,146,-1,146,145,147,-1,146,147,148,-1,148,147,149,-1,148,149,150,-1,150,149,151,-1,150,151,152,-1,152,151,153,-1,152,153,154,-1,154,153,155,-1,154,155,156,-1,156,155,157,-1,156,157,158,-1,158,157,159,-1,158,159,160,-1,160,159,99,-1,160,99,58,-1,126,127,129,-1,129,127,161,-1,129,161,131,-1,131,161,162,-1,131,162,133,-1,133,162,163,-1,133,163,135,-1,135,163,164,-1,135,164,137,-1,137,164,165,-1,137,165,139,-1,139,165,166,-1,139,166,141,-1,141,166,167,-1,141,167,143,-1,143,167,168,-1,143,168,145,-1,145,168,169,-1,145,169,147,-1,147,169,170,-1,147,170,149,-1,149,170,171,-1,149,171,151,-1,151,171,172,-1,151,172,153,-1,153,172,173,-1,153,173,155,-1,155,173,174,-1,155,174,157,-1,157,174,175,-1,157,175,159,-1,159,175,98,-1,159,98,99,-1,124,125,127,-1,127,125,176,-1,127,176,161,-1,161,176,177,-1,161,177,162,-1,162,177,178,-1,162,178,163,-1,163,178,179,-1,163,179,164,-1,164,179,180,-1,164,180,165,-1,165,180,181,-1,165,181,166,-1,166,181,182,-1,166,182,167,-1,167,182,183,-1,167,183,168,-1,168,183,184,-1,168,184,169,-1,169,184,185,-1,169,185,170,-1,170,185,186,-1,170,186,171,-1,171,186,187,-1,171,187,172,-1,172,187,188,-1,172,188,173,-1,173,188,189,-1,173,189,174,-1,174,189,190,-1,174,190,175,-1,175,190,97,-1,175,97,98,-1,122,123,125,-1,125,123,191,-1,125,191,176,-1,176,191,192,-1,176,192,177,-1,177,192,193,-1,177,193,178,-1,178,193,194,-1,178,194,179,-1,179,194,195,-1,179,195,180,-1,180,195,196,-1,180,196,181,-1,181,196,197,-1,181,197,182,-1,182,197,198,-1,182,198,183,-1,183,198,199,-1,183,199,184,-1,184,199,200,-1,184,200,185,-1,185,200,201,-1,185,201,186,-1,186,201,202,-1,186,202,187,-1,187,202,203,-1,187,203,188,-1,188,203,204,-1,188,204,189,-1,189,204,205,-1,189,205,190,-1,190,205,96,-1,190,96,97,-1,120,121,123,-1,123,121,206,-1,123,206,191,-1,191,206,207,-1,191,207,192,-1,192,207,208,-1,192,208,193,-1,193,208,209,-1,193,209,194,-1,194,209,210,-1,194,210,195,-1,195,210,211,-1,195,211,196,-1,196,211,212,-1,196,212,197,-1,197,212,213,-1,197,213,198,-1,198,213,214,-1,198,214,199,-1,199,214,215,-1,199,215,200,-1,200,215,216,-1,200,216,201,-1,201,216,217,-1,201,217,202,-1,202,217,218,-1,202,218,203,-1,203,218,219,-1,203,219,204,-1,204,219,220,-1,204,220,205,-1,205,220,95,-1,205,95,96,-1,119,101,121,-1,121,101,102,-1,121,102,206,-1,206,102,103,-1,206,103,207,-1,207,103,104,-1,207,104,208,-1,208,104,105,-1,208,105,209,-1,209,105,106,-1,209,106,210,-1,210,106,107,-1,210,107,211,-1,211,107,108,-1,211,108,212,-1,212,108,109,-1,212,109,213,-1,213,109,110,-1,213,110,214,-1,214,110,111,-1,214,111,215,-1,215,111,112,-1,215,112,216,-1,216,112,113,-1,216,113,217,-1,217,113,114,-1,217,114,218,-1,218,114,115,-1,218,115,219,-1,219,115,116,-1,219,116,220,-1,220,116,94,-1,220,94,95,-1,221,222,223,-1,221,223,224,-1,225,226,227,-1,227,226,228,-1,227,228,229,-1,229,228,230,-1,229,230,223,-1,223,230,231,-1,223,231,224,-1,225,227,232,-1,232,227,233,-1,232,233,234,-1,235,236,237,-1,237,236,238,-1,238,236,239,-1,238,239,233,-1,233,239,240,-1,233,240,234,-1,241,242,243,-1,243,242,244,-1,243,244,245,-1,246,247,248,-1,248,249,246,-1,246,249,250,-1,246,250,244,-1,244,250,251,-1,244,251,245,-1,241,235,242,-1,242,235,237,-1,242,237,244,-1,244,237,252,-1,244,252,246,-1,246,252,253,-1,246,253,254,-1,51,255,72,-1,72,255,256,-1,72,256,73,-1,73,256,257,-1,73,257,74,-1,74,257,258,-1,74,258,70,-1,70,258,259,-1,70,259,68,-1,68,259,260,-1,68,260,52,-1,52,260,261,-1,52,261,53,-1,53,261,262,-1,53,262,62,-1,62,262,263,-1,62,263,63,-1,63,263,264,-1,63,264,64,-1,64,264,265,-1,64,265,65,-1,65,265,266,-1,65,266,58,-1,267,268,269,-1,269,268,270,-1,269,270,271,-1,271,270,272,-1,271,272,273,-1,273,272,274,-1,273,274,275,-1,275,274,276,-1,275,276,277,-1,277,276,278,-1,277,278,279,-1,279,278,280,-1,279,280,281,-1,281,280,282,-1,281,282,283,-1,283,282,284,-1,283,284,285,-1,285,284,286,-1,285,286,287,-1,286,288,287,-1,287,288,289,-1,287,289,266,-1,118,119,290,-1,119,120,291,-1,292,293,294,-1,294,293,128,-1,126,128,293,-1,295,118,223,-1,223,118,296,-1,223,296,229,-1,229,296,297,-1,229,297,227,-1,227,297,233,-1,233,297,298,-1,233,298,238,-1,238,298,299,-1,238,299,237,-1,237,299,252,-1,252,299,300,-1,252,300,253,-1,253,300,301,-1,253,301,254,-1,126,293,124,-1,124,293,292,-1,124,292,122,-1,128,302,303,-1,303,302,304,-1,305,128,303,-1,306,307,308,-1,308,307,305,-1,308,305,309,-1,309,305,303,-1,309,303,310,-1,310,303,304,-1,311,306,312,-1,312,306,308,-1,312,308,313,-1,313,308,309,-1,313,309,314,-1,314,309,310,-1,314,310,315,-1,304,316,310,-1,310,316,317,-1,310,317,315,-1,315,317,318,-1,315,318,319,-1,120,311,291,-1,291,311,312,-1,291,312,320,-1,320,312,313,-1,320,313,321,-1,321,313,314,-1,321,314,322,-1,322,314,315,-1,322,315,323,-1,323,315,319,-1,119,291,290,-1,290,291,320,-1,290,320,324,-1,324,320,321,-1,324,321,325,-1,325,321,322,-1,325,322,326,-1,326,322,323,-1,326,323,327,-1,307,128,305,-1,120,122,311,-1,311,122,292,-1,311,292,306,-1,306,292,294,-1,306,294,307,-1,307,294,128,-1,319,328,323,-1,323,328,329,-1,323,329,327,-1,327,329,330,-1,327,330,331,-1,118,290,296,-1,296,290,324,-1,296,324,297,-1,297,324,325,-1,297,325,298,-1,298,325,326,-1,298,326,299,-1,299,326,327,-1,299,327,300,-1,300,327,331,-1,300,331,301,-1,271,273,332,-1,275,277,333,-1,334,335,336,-1,266,337,338,-1,339,337,266,-1,336,335,266,-1,287,266,335,-1,340,341,342,-1,342,341,343,-1,342,343,344,-1,344,343,345,-1,345,343,346,-1,345,346,347,-1,347,346,348,-1,348,346,349,-1,348,349,350,-1,350,349,351,-1,351,349,352,-1,351,352,353,-1,353,352,354,-1,354,352,355,-1,354,355,356,-1,356,355,256,-1,356,256,255,-1,265,339,266,-1,279,281,334,-1,334,281,283,-1,334,283,335,-1,335,283,285,-1,335,285,287,-1,357,338,358,-1,358,338,337,-1,358,337,359,-1,359,337,339,-1,359,339,360,-1,277,279,333,-1,333,279,334,-1,333,334,361,-1,361,334,336,-1,361,336,362,-1,362,336,266,-1,265,264,339,-1,339,264,263,-1,339,263,360,-1,360,263,262,-1,360,262,261,-1,363,357,364,-1,364,357,358,-1,364,358,365,-1,365,358,359,-1,365,359,366,-1,366,359,360,-1,366,360,367,-1,367,360,261,-1,332,363,368,-1,368,363,364,-1,368,364,369,-1,369,364,365,-1,369,365,370,-1,370,365,366,-1,370,366,371,-1,371,366,367,-1,371,367,372,-1,273,275,332,-1,332,275,333,-1,332,333,363,-1,363,333,361,-1,363,361,357,-1,357,361,362,-1,357,362,338,-1,338,362,266,-1,340,267,341,-1,341,267,269,-1,341,269,271,-1,261,260,367,-1,367,260,259,-1,367,259,372,-1,372,259,258,-1,372,258,257,-1,271,332,341,-1,341,332,368,-1,341,368,343,-1,343,368,369,-1,343,369,346,-1,346,369,370,-1,346,370,349,-1,349,370,371,-1,349,371,352,-1,352,371,372,-1,352,372,355,-1,355,372,257,-1,355,257,256,-1,373,374,375,-1,376,377,378,-1,379,380,381,-1,289,382,383,-1,384,382,289,-1,381,380,289,-1,385,289,380,-1,386,387,388,-1,388,387,389,-1,388,389,390,-1,390,389,391,-1,391,389,392,-1,391,392,393,-1,393,392,394,-1,394,392,395,-1,394,395,396,-1,396,395,397,-1,397,395,398,-1,397,398,399,-1,399,398,400,-1,400,398,401,-1,400,401,402,-1,402,401,270,-1,402,270,268,-1,288,384,289,-1,403,404,379,-1,379,404,405,-1,379,405,380,-1,380,405,406,-1,380,406,385,-1,407,383,408,-1,408,383,382,-1,408,382,409,-1,409,382,384,-1,409,384,410,-1,377,403,378,-1,378,403,379,-1,378,379,411,-1,411,379,381,-1,411,381,412,-1,412,381,289,-1,288,286,384,-1,384,286,284,-1,384,284,410,-1,410,284,282,-1,410,282,280,-1,413,407,414,-1,414,407,408,-1,414,408,415,-1,415,408,409,-1,415,409,416,-1,416,409,410,-1,416,410,417,-1,417,410,280,-1,375,413,418,-1,418,413,414,-1,418,414,419,-1,419,414,415,-1,419,415,420,-1,420,415,416,-1,420,416,421,-1,421,416,417,-1,421,417,422,-1,374,376,375,-1,375,376,378,-1,375,378,413,-1,413,378,411,-1,413,411,407,-1,407,411,412,-1,407,412,383,-1,383,412,289,-1,386,423,387,-1,387,423,424,-1,387,424,373,-1,280,278,417,-1,417,278,276,-1,417,276,422,-1,422,276,274,-1,422,274,272,-1,373,375,387,-1,387,375,418,-1,387,418,389,-1,389,418,419,-1,389,419,392,-1,392,419,420,-1,392,420,395,-1,395,420,421,-1,395,421,398,-1,398,421,422,-1,398,422,401,-1,401,422,272,-1,401,272,270,-1,425,254,301,-1,426,427,331,-1,331,427,428,-1,331,428,301,-1,301,428,429,-1,301,429,425,-1,331,330,426,-1,426,330,329,-1,426,329,430,-1,430,329,431,-1,329,328,431,-1,431,328,319,-1,431,319,432,-1,432,319,433,-1,319,318,433,-1,433,318,317,-1,433,317,434,-1,434,317,435,-1,317,316,435,-1,435,316,304,-1,435,304,436,-1,436,304,302,-1,436,302,128,-1,437,267,438,-1,438,267,340,-1,438,340,439,-1,439,340,342,-1,439,342,440,-1,440,342,344,-1,440,344,441,-1,344,345,441,-1,441,345,347,-1,441,347,442,-1,255,443,356,-1,356,443,444,-1,356,444,354,-1,354,444,445,-1,354,445,353,-1,353,445,446,-1,353,446,351,-1,351,446,447,-1,351,447,350,-1,350,447,442,-1,350,442,348,-1,348,442,347,-1,448,423,449,-1,449,423,386,-1,449,386,450,-1,450,386,388,-1,450,388,451,-1,451,388,390,-1,451,390,452,-1,390,391,452,-1,452,391,393,-1,452,393,453,-1,268,454,402,-1,402,454,455,-1,402,455,400,-1,400,455,456,-1,400,456,399,-1,399,456,457,-1,399,457,397,-1,397,457,458,-1,397,458,396,-1,396,458,453,-1,396,453,394,-1,394,453,393,-1,423,459,424,-1,424,459,460,-1,424,460,373,-1,373,460,461,-1,373,461,374,-1,374,461,462,-1,374,462,376,-1,376,462,463,-1,376,463,377,-1,377,463,464,-1,377,464,403,-1,403,464,465,-1,403,465,404,-1,404,465,466,-1,404,466,405,-1,405,466,467,-1,405,467,406,-1,406,467,468,-1,406,468,385,-1,468,469,385,-1,385,469,470,-1,385,470,289,-1,471,472,473,-1,473,472,474,-1,473,474,475,-1,475,474,476,-1,475,476,477,-1,477,476,478,-1,477,478,479,-1,479,478,480,-1,479,480,481,-1,481,480,482,-1,481,482,483,-1,483,482,484,-1,483,484,485,-1,485,484,486,-1,485,486,487,-1,487,486,488,-1,487,488,489,-1,489,488,490,-1,489,490,491,-1,490,492,491,-1,491,492,436,-1,491,436,470,-1,428,427,493,-1,426,430,494,-1,495,496,497,-1,436,498,499,-1,500,498,436,-1,497,496,436,-1,435,436,496,-1,501,502,503,-1,503,502,504,-1,503,504,505,-1,505,504,506,-1,506,504,507,-1,506,507,508,-1,508,507,509,-1,509,507,510,-1,509,510,511,-1,511,510,512,-1,512,510,513,-1,512,513,514,-1,514,513,515,-1,515,513,516,-1,515,516,517,-1,517,516,474,-1,517,474,472,-1,492,500,436,-1,431,432,495,-1,495,432,433,-1,495,433,496,-1,496,433,434,-1,496,434,435,-1,518,499,519,-1,519,499,498,-1,519,498,520,-1,520,498,500,-1,520,500,521,-1,430,431,494,-1,494,431,495,-1,494,495,522,-1,522,495,497,-1,522,497,523,-1,523,497,436,-1,492,490,500,-1,500,490,488,-1,500,488,521,-1,521,488,486,-1,521,486,484,-1,524,518,525,-1,525,518,519,-1,525,519,526,-1,526,519,520,-1,526,520,527,-1,527,520,521,-1,527,521,528,-1,528,521,484,-1,493,524,529,-1,529,524,525,-1,529,525,530,-1,530,525,526,-1,530,526,531,-1,531,526,527,-1,531,527,532,-1,532,527,528,-1,532,528,533,-1,427,426,493,-1,493,426,494,-1,493,494,524,-1,524,494,522,-1,524,522,518,-1,518,522,523,-1,518,523,499,-1,499,523,436,-1,501,425,502,-1,502,425,429,-1,502,429,428,-1,484,482,528,-1,528,482,480,-1,528,480,533,-1,533,480,478,-1,533,478,476,-1,428,493,502,-1,502,493,529,-1,502,529,504,-1,504,529,530,-1,504,530,507,-1,507,530,531,-1,507,531,510,-1,510,531,532,-1,510,532,513,-1,513,532,533,-1,513,533,516,-1,516,533,476,-1,516,476,474,-1,534,535,443,-1,443,535,536,-1,443,536,444,-1,444,536,537,-1,444,537,445,-1,445,537,538,-1,445,538,446,-1,446,538,539,-1,446,539,447,-1,447,539,540,-1,447,540,442,-1,442,540,541,-1,442,541,441,-1,441,541,542,-1,441,542,440,-1,440,542,543,-1,440,543,439,-1,439,543,544,-1,439,544,438,-1,438,544,545,-1,438,545,437,-1,437,545,546,-1,437,546,547,-1,547,546,548,-1,549,550,454,-1,454,550,551,-1,454,551,455,-1,455,551,552,-1,455,552,456,-1,456,552,553,-1,456,553,457,-1,457,553,554,-1,457,554,458,-1,458,554,555,-1,458,555,453,-1,453,555,556,-1,453,556,452,-1,452,556,557,-1,452,557,451,-1,451,557,558,-1,451,558,450,-1,450,558,559,-1,450,559,449,-1,449,559,560,-1,449,560,448,-1,448,560,561,-1,448,561,562,-1,562,561,563,-1,475,477,564,-1,479,481,565,-1,566,567,568,-1,470,569,570,-1,571,569,470,-1,568,567,470,-1,491,470,567,-1,572,573,574,-1,574,573,575,-1,574,575,576,-1,576,575,577,-1,577,575,578,-1,577,578,579,-1,579,578,580,-1,580,578,581,-1,580,581,582,-1,582,581,583,-1,583,581,584,-1,583,584,585,-1,585,584,586,-1,586,584,587,-1,586,587,588,-1,588,587,460,-1,588,460,459,-1,469,571,470,-1,483,485,566,-1,566,485,487,-1,566,487,567,-1,567,487,489,-1,567,489,491,-1,589,570,590,-1,590,570,569,-1,590,569,591,-1,591,569,571,-1,591,571,592,-1,481,483,565,-1,565,483,566,-1,565,566,593,-1,593,566,568,-1,593,568,594,-1,594,568,470,-1,469,468,571,-1,571,468,467,-1,571,467,592,-1,592,467,466,-1,592,466,465,-1,595,589,596,-1,596,589,590,-1,596,590,597,-1,597,590,591,-1,597,591,598,-1,598,591,592,-1,598,592,599,-1,599,592,465,-1,564,595,600,-1,600,595,596,-1,600,596,601,-1,601,596,597,-1,601,597,602,-1,602,597,598,-1,602,598,603,-1,603,598,599,-1,603,599,604,-1,477,479,564,-1,564,479,565,-1,564,565,595,-1,595,565,593,-1,595,593,589,-1,589,593,594,-1,589,594,570,-1,570,594,470,-1,572,471,573,-1,573,471,473,-1,573,473,475,-1,465,464,599,-1,599,464,463,-1,599,463,604,-1,604,463,462,-1,604,462,461,-1,475,564,573,-1,573,564,600,-1,573,600,575,-1,575,600,601,-1,575,601,578,-1,578,601,602,-1,578,602,581,-1,581,602,603,-1,581,603,584,-1,584,603,604,-1,584,604,587,-1,587,604,461,-1,587,461,460,-1,605,425,606,-1,606,425,501,-1,606,501,607,-1,506,608,505,-1,505,608,607,-1,505,607,503,-1,503,607,501,-1,472,609,517,-1,517,609,610,-1,517,610,515,-1,515,610,611,-1,515,611,514,-1,514,611,612,-1,514,612,512,-1,512,612,613,-1,512,613,511,-1,511,613,614,-1,511,614,509,-1,509,614,615,-1,509,615,508,-1,508,615,616,-1,508,616,506,-1,506,616,617,-1,506,617,608,-1,536,618,537,-1,537,618,619,-1,537,619,538,-1,538,619,620,-1,538,620,539,-1,539,620,621,-1,539,621,540,-1,621,622,540,-1,540,622,623,-1,540,623,541,-1,624,546,625,-1,625,546,545,-1,625,545,626,-1,626,545,544,-1,626,544,627,-1,627,544,543,-1,627,543,628,-1,628,543,542,-1,628,542,629,-1,629,542,541,-1,629,541,630,-1,630,541,623,-1,631,632,633,-1,634,631,635,-1,635,631,633,-1,635,633,636,-1,636,633,637,-1,636,637,638,-1,638,637,639,-1,638,639,640,-1,640,639,641,-1,640,641,642,-1,642,641,643,-1,642,643,644,-1,644,643,645,-1,644,645,646,-1,646,645,647,-1,646,647,648,-1,648,647,649,-1,648,649,650,-1,650,649,651,-1,650,651,652,-1,652,651,653,-1,652,653,624,-1,624,653,654,-1,551,654,552,-1,552,654,655,-1,552,655,553,-1,553,655,656,-1,553,656,554,-1,554,656,657,-1,554,657,555,-1,657,658,555,-1,555,658,659,-1,555,659,556,-1,660,561,661,-1,661,561,560,-1,661,560,662,-1,662,560,559,-1,662,559,663,-1,663,559,558,-1,663,558,664,-1,664,558,557,-1,664,557,665,-1,665,557,556,-1,665,556,666,-1,666,556,659,-1,667,471,668,-1,668,471,572,-1,668,572,669,-1,577,670,576,-1,576,670,669,-1,576,669,574,-1,574,669,572,-1,459,671,588,-1,588,671,672,-1,588,672,586,-1,586,672,673,-1,586,673,585,-1,585,673,674,-1,585,674,583,-1,583,674,675,-1,583,675,582,-1,582,675,676,-1,582,676,580,-1,580,676,677,-1,580,677,579,-1,579,677,678,-1,579,678,577,-1,577,678,679,-1,577,679,670,-1,680,681,609,-1,609,681,682,-1,609,682,610,-1,682,683,610,-1,610,683,684,-1,610,684,611,-1,611,684,685,-1,611,685,612,-1,612,685,613,-1,613,685,686,-1,613,686,614,-1,614,686,687,-1,614,687,615,-1,615,687,688,-1,615,688,616,-1,616,688,689,-1,616,689,617,-1,617,689,690,-1,617,690,608,-1,690,691,608,-1,608,691,692,-1,608,692,607,-1,607,692,693,-1,694,695,696,-1,696,695,605,-1,696,605,693,-1,693,605,606,-1,693,606,607,-1,697,634,698,-1,699,700,634,-1,638,640,701,-1,642,644,702,-1,703,704,705,-1,622,621,706,-1,620,619,707,-1,707,619,618,-1,708,629,630,-1,705,627,628,-1,627,705,626,-1,626,705,704,-1,626,704,625,-1,624,625,652,-1,652,625,704,-1,652,704,650,-1,650,704,703,-1,650,703,648,-1,648,703,646,-1,618,709,707,-1,707,709,710,-1,707,710,711,-1,644,646,702,-1,702,646,703,-1,702,703,712,-1,712,703,705,-1,712,705,708,-1,708,705,628,-1,708,628,629,-1,710,713,711,-1,711,713,714,-1,711,714,715,-1,640,642,701,-1,701,642,702,-1,701,702,716,-1,716,702,712,-1,716,712,717,-1,717,712,708,-1,717,708,718,-1,718,708,630,-1,718,630,623,-1,714,719,715,-1,715,719,720,-1,715,720,721,-1,718,722,717,-1,717,722,723,-1,717,723,716,-1,716,723,724,-1,716,724,701,-1,701,724,725,-1,701,725,638,-1,700,699,726,-1,621,620,706,-1,706,620,707,-1,706,707,727,-1,727,707,711,-1,727,711,728,-1,728,711,715,-1,728,715,729,-1,729,715,721,-1,729,721,730,-1,730,721,698,-1,730,698,634,-1,634,635,725,-1,725,635,636,-1,725,636,638,-1,722,731,723,-1,723,731,732,-1,723,732,724,-1,724,732,733,-1,724,733,725,-1,725,733,634,-1,731,726,732,-1,732,726,699,-1,732,699,733,-1,733,699,634,-1,720,734,721,-1,721,734,735,-1,721,735,698,-1,698,735,736,-1,698,736,697,-1,623,622,718,-1,718,622,706,-1,718,706,722,-1,722,706,727,-1,722,727,731,-1,731,727,728,-1,731,728,726,-1,726,728,729,-1,726,729,700,-1,700,729,730,-1,700,730,634,-1,633,632,737,-1,738,739,632,-1,740,741,742,-1,743,744,745,-1,746,747,748,-1,658,657,749,-1,656,655,750,-1,750,655,654,-1,751,665,666,-1,748,663,664,-1,663,748,662,-1,662,748,747,-1,662,747,661,-1,660,661,752,-1,752,661,747,-1,752,747,753,-1,753,747,746,-1,753,746,754,-1,754,746,755,-1,654,653,750,-1,750,653,651,-1,750,651,756,-1,744,755,745,-1,745,755,746,-1,745,746,757,-1,757,746,748,-1,757,748,751,-1,751,748,664,-1,751,664,665,-1,651,649,756,-1,756,649,647,-1,756,647,758,-1,741,743,742,-1,742,743,745,-1,742,745,759,-1,759,745,757,-1,759,757,760,-1,760,757,751,-1,760,751,761,-1,761,751,666,-1,761,666,659,-1,647,645,758,-1,758,645,643,-1,758,643,762,-1,761,763,760,-1,760,763,764,-1,760,764,759,-1,759,764,765,-1,759,765,742,-1,742,765,766,-1,742,766,740,-1,739,738,767,-1,657,656,749,-1,749,656,750,-1,749,750,768,-1,768,750,756,-1,768,756,769,-1,769,756,758,-1,769,758,770,-1,770,758,762,-1,770,762,771,-1,771,762,737,-1,771,737,632,-1,632,772,766,-1,766,772,773,-1,766,773,740,-1,763,774,764,-1,764,774,775,-1,764,775,765,-1,765,775,776,-1,765,776,766,-1,766,776,632,-1,774,767,775,-1,775,767,738,-1,775,738,776,-1,776,738,632,-1,643,641,762,-1,762,641,639,-1,762,639,737,-1,737,639,637,-1,737,637,633,-1,659,658,761,-1,761,658,749,-1,761,749,763,-1,763,749,768,-1,763,768,774,-1,774,768,769,-1,774,769,767,-1,767,769,770,-1,767,770,739,-1,739,770,771,-1,739,771,632,-1,777,778,671,-1,671,778,779,-1,671,779,672,-1,672,779,780,-1,672,780,673,-1,673,780,781,-1,673,781,674,-1,674,781,782,-1,674,782,675,-1,675,782,783,-1,675,783,676,-1,676,783,784,-1,676,784,677,-1,677,784,785,-1,677,785,678,-1,678,785,786,-1,678,786,679,-1,679,786,787,-1,679,787,670,-1,787,788,670,-1,670,788,789,-1,670,789,669,-1,669,789,790,-1,791,792,793,-1,793,792,667,-1,793,667,790,-1,790,667,668,-1,790,668,669,-1,794,685,795,-1,795,685,684,-1,795,684,796,-1,796,684,683,-1,796,683,797,-1,797,683,682,-1,797,682,798,-1,799,696,800,-1,800,696,693,-1,800,693,801,-1,801,693,692,-1,801,692,802,-1,802,692,691,-1,802,691,803,-1,803,691,690,-1,803,690,804,-1,804,690,689,-1,804,689,805,-1,805,689,688,-1,805,688,806,-1,806,688,687,-1,806,687,794,-1,794,687,686,-1,794,686,685,-1,807,634,697,-1,808,807,809,-1,809,807,697,-1,809,697,810,-1,810,697,736,-1,810,736,811,-1,811,736,735,-1,811,735,812,-1,812,735,734,-1,812,734,813,-1,813,734,720,-1,813,720,814,-1,814,720,719,-1,814,719,815,-1,815,719,714,-1,815,714,816,-1,816,714,713,-1,816,713,817,-1,817,713,710,-1,817,710,818,-1,818,710,709,-1,818,709,799,-1,799,709,618,-1,819,820,821,-1,632,819,772,-1,772,819,821,-1,772,821,773,-1,773,821,822,-1,773,822,740,-1,740,822,823,-1,740,823,741,-1,741,823,824,-1,741,824,743,-1,743,824,825,-1,743,825,744,-1,744,825,826,-1,744,826,755,-1,755,826,827,-1,755,827,754,-1,754,827,828,-1,754,828,753,-1,753,828,829,-1,753,829,752,-1,752,829,830,-1,752,830,660,-1,660,830,831,-1,832,782,833,-1,833,782,781,-1,833,781,834,-1,834,781,780,-1,834,780,835,-1,835,780,779,-1,835,779,831,-1,836,793,837,-1,837,793,790,-1,837,790,838,-1,838,790,789,-1,838,789,839,-1,839,789,788,-1,839,788,840,-1,840,788,787,-1,840,787,841,-1,841,787,786,-1,841,786,842,-1,842,786,785,-1,842,785,843,-1,843,785,784,-1,843,784,832,-1,832,784,783,-1,832,783,782,-1,844,808,845,-1,846,847,808,-1,811,812,848,-1,813,814,849,-1,850,851,852,-1,794,795,853,-1,796,797,854,-1,854,797,798,-1,855,804,805,-1,852,802,803,-1,802,852,801,-1,801,852,851,-1,801,851,800,-1,799,800,818,-1,818,800,851,-1,818,851,817,-1,817,851,850,-1,817,850,816,-1,816,850,815,-1,798,856,854,-1,854,856,857,-1,854,857,858,-1,814,815,849,-1,849,815,850,-1,849,850,859,-1,859,850,852,-1,859,852,855,-1,855,852,803,-1,855,803,804,-1,857,860,858,-1,858,860,861,-1,858,861,862,-1,812,813,848,-1,848,813,849,-1,848,849,863,-1,863,849,859,-1,863,859,864,-1,864,859,855,-1,864,855,865,-1,865,855,805,-1,865,805,806,-1,861,866,862,-1,862,866,867,-1,862,867,868,-1,865,869,864,-1,864,869,870,-1,864,870,863,-1,863,870,871,-1,863,871,848,-1,848,871,872,-1,848,872,811,-1,847,846,873,-1,795,796,853,-1,853,796,854,-1,853,854,874,-1,874,854,858,-1,874,858,875,-1,875,858,862,-1,875,862,876,-1,876,862,868,-1,876,868,877,-1,877,868,845,-1,877,845,808,-1,808,809,872,-1,872,809,810,-1,872,810,811,-1,869,878,870,-1,870,878,879,-1,870,879,871,-1,871,879,880,-1,871,880,872,-1,872,880,808,-1,878,873,879,-1,879,873,846,-1,879,846,880,-1,880,846,808,-1,867,881,868,-1,868,881,882,-1,868,882,845,-1,845,882,883,-1,845,883,844,-1,806,794,865,-1,865,794,853,-1,865,853,869,-1,869,853,874,-1,869,874,878,-1,878,874,875,-1,878,875,873,-1,873,875,876,-1,873,876,847,-1,847,876,877,-1,847,877,808,-1,821,820,884,-1,885,886,820,-1,887,888,889,-1,890,891,892,-1,893,894,895,-1,832,833,896,-1,834,835,897,-1,897,835,831,-1,898,841,842,-1,895,839,840,-1,839,895,838,-1,838,895,894,-1,838,894,837,-1,836,837,899,-1,899,837,894,-1,899,894,900,-1,900,894,893,-1,900,893,901,-1,901,893,902,-1,831,830,897,-1,897,830,829,-1,897,829,903,-1,891,902,892,-1,892,902,893,-1,892,893,904,-1,904,893,895,-1,904,895,898,-1,898,895,840,-1,898,840,841,-1,829,828,903,-1,903,828,827,-1,903,827,905,-1,888,890,889,-1,889,890,892,-1,889,892,906,-1,906,892,904,-1,906,904,907,-1,907,904,898,-1,907,898,908,-1,908,898,842,-1,908,842,843,-1,827,826,905,-1,905,826,825,-1,905,825,909,-1,908,910,907,-1,907,910,911,-1,907,911,906,-1,906,911,912,-1,906,912,889,-1,889,912,913,-1,889,913,887,-1,886,885,914,-1,833,834,896,-1,896,834,897,-1,896,897,915,-1,915,897,903,-1,915,903,916,-1,916,903,905,-1,916,905,917,-1,917,905,909,-1,917,909,918,-1,918,909,884,-1,918,884,820,-1,820,919,913,-1,913,919,920,-1,913,920,887,-1,910,921,911,-1,911,921,922,-1,911,922,912,-1,912,922,923,-1,912,923,913,-1,913,923,820,-1,921,914,922,-1,922,914,885,-1,922,885,923,-1,923,885,820,-1,825,824,909,-1,909,824,823,-1,909,823,884,-1,884,823,822,-1,884,822,821,-1,843,832,908,-1,908,832,896,-1,908,896,910,-1,910,896,915,-1,910,915,921,-1,921,915,916,-1,921,916,914,-1,914,916,917,-1,914,917,886,-1,886,917,918,-1,886,918,820,-1,924,808,844,-1,820,924,919,-1,919,924,844,-1,919,844,920,-1,920,844,883,-1,920,883,887,-1,887,883,882,-1,887,882,888,-1,888,882,881,-1,888,881,890,-1,890,881,867,-1,890,867,891,-1,891,867,866,-1,891,866,902,-1,902,866,861,-1,902,861,901,-1,901,861,860,-1,901,860,900,-1,900,860,857,-1,900,857,899,-1,899,857,856,-1,899,856,836,-1,836,856,798,-1,1,117,48,-1,48,46,1,-1,1,46,100,-1,1,100,3,-1,117,221,48,-1,48,221,224,-1,48,224,38,-1,38,224,231,-1,38,231,39,-1,39,231,230,-1,232,36,37,-1,230,228,39,-1,39,228,226,-1,39,226,41,-1,41,226,42,-1,232,37,225,-1,225,37,226,-1,226,37,43,-1,226,43,42,-1,27,26,236,-1,236,26,32,-1,236,32,31,-1,232,234,36,-1,36,234,240,-1,36,240,31,-1,31,240,239,-1,31,239,236,-1,235,30,236,-1,236,30,29,-1,236,29,27,-1,235,241,30,-1,30,241,243,-1,30,243,22,-1,22,243,20,-1,20,243,245,-1,20,245,18,-1,245,251,18,-1,18,251,250,-1,18,250,23,-1,23,250,249,-1,23,249,24,-1,24,249,25,-1,25,249,248,-1,25,248,247,-1,
        ]
    }
}