#VRML V2.0 utf8
# 3D model generated by easyeda2kicad.py (https://github.com/uPesy/easyeda2kicad.py)

Shape{
    appearance Appearance {
        material  Material 	{
            diffuseColor 0.20784313725490197 0.20784313725490197 0.20784313725490197
            specularColor 0.01568627450980392 0.01568627450980392 0.01568627450980392
            ambientIntensity 0.2
            transparency 0
            shininess 0.5
        }
    }
    geometry IndexedFaceSet {
        ccw TRUE
        solid FALSE
        coord DEF co Coordinate {
            point [
                0.1685 0.0694 0.0, 0.1879 0.0672 0.0, 0.126 -0.0784 0.0, 0.1224 -0.0764 0.0, 0.1224 -0.098 0.0, 0.1032 -0.1095 0.0, 1.378 0.7874 0.0, 1.378 0.0984 0.0, 0.1032 0.7874 0.0, 0.7874 0.0984 0.0, 0.3601 0.0886 0.0, 0.3865 0.0886 0.0, 0.3865 -0.1082 0.0, 0.7874 -0.0984 0.0, 0.1446 0.0663 0.0, 0.1224 0.0568 0.0, 0.1224 0.0832 0.0, 0.2026 0.0619 0.0, 0.2163 0.0528 0.0, 0.2282 0.0397 0.0, 0.2425 -0.0119 0.0, 0.2405 -0.0332 0.0, 0.2351 -0.0502 0.0, 0.1913 -0.087 0.0, 0.173 -0.089 0.0, 0.2057 -0.0817 0.0, 0.2177 -0.0736 0.0, 0.227 -0.0638 0.0, 0.1468 -0.0861 0.0, 0.1882 -0.1095 0.0, 0.2857 -0.1082 0.0, 0.2009 -0.1081 0.0, 0.2199 -0.1016 0.0, 0.2363 0.0245 0.0, 0.2415 0.0034 0.0, 0.2358 -0.0915 0.0, 0.2506 -0.0759 0.0, 0.2857 -0.0866 0.0, 0.261 -0.0572 0.0, 0.3601 -0.0866 0.0, 0.2585 0.0368 0.0, 0.2469 0.0552 0.0, 0.2292 0.0722 0.0, 0.2105 0.083 0.0, 0.1885 0.0894 0.0, 0.267 -0.0363 0.0, 0.2689 -0.0135 0.0, 0.266 0.0144 0.0, 0.1688 0.091 0.0, 0.1452 0.0894 0.0, 0.1434 -0.1067 0.0, 0.1633 -0.1095 0.0, 0.1032 -0.7874 0.0, 0.1712 -0.1106 0.0, 0.1766 -0.1107 0.0, 1.378 -0.0984 0.0, 1.378 -0.1095 0.0, 1.378 -0.7874 0.0, -0.2329 -0.1082 0.0, -0.2086 -0.0543 0.0, -0.1973 -0.0719 0.0, -0.0216 -0.1082 0.0, 0.084 -0.1082 0.0, 0.084 0.0886 0.0, -0.7874 0.0984 0.0, -1.378 0.0984 0.0, -1.378 0.7874 0.0, -0.0168 0.067 0.0, 0.0576 0.067 0.0, 0.0576 0.0022 0.0, -0.1811 -0.0874 0.0, -0.1606 -0.0994 0.0, -0.1379 -0.1061 0.0, -1.378 -0.1095 0.0, -1.378 -0.0984 0.0, -0.7874 -0.0984 0.0, -0.06 0.0886 0.0, -0.012 0.0022 0.0, -0.012 -0.0194 0.0, 0.0576 -0.0194 0.0, 0.0576 -0.0866 0.0, -0.0216 -0.0866 0.0, -0.06 -0.1082 0.0, -0.1135 -0.1082 0.0, -0.4105 -0.1082 0.0, -0.3817 -0.1082 0.0, -0.0168 0.0886 0.0, -0.3618 -0.053 0.0, -0.2805 -0.053 0.0, -0.2617 -0.1082 0.0, -0.144 0.0856 0.0, -0.167 0.0775 0.0, -0.3073 0.0886 0.0, -0.1885 0.0631 0.0, -0.1887 0.0629 0.0, -0.2026 0.0475 0.0, -0.2117 0.0306 0.0, -0.217 0.0112 0.0, -0.2185 -0.0073 0.0, -0.2157 -0.0337 0.0, -0.1156 0.0886 0.0, -1.378 -0.7874 0.0, -0.3337 0.0886 0.0, -1.378 -0.0984 0.1142, -1.378 0.7874 0.1969, -1.378 0.0984 0.1142, -1.378 0.0 0.1969, -1.378 -0.7874 0.1969, -1.378 -0.7874 0.1969
            ]
        }
        coordIndex [
            0,1,2,-1,3,4,5,-1,6,7,8,-1,8,7,9,-1,10,8,11,-1,11,8,9,-1,11,9,12,-1,12,9,13,-1,0,2,14,-1,14,2,3,-1,14,3,15,-1,15,3,8,-1,15,8,16,-1,1,17,2,-1,2,17,18,-1,2,18,19,-1,20,21,2,-1,2,21,22,-1,23,24,25,-1,25,24,26,-1,22,27,2,-1,2,27,26,-1,2,26,28,-1,28,26,24,-1,12,29,30,-1,30,29,31,-1,30,31,32,-1,19,33,2,-1,2,33,34,-1,2,34,20,-1,32,35,30,-1,30,35,36,-1,30,36,37,-1,37,36,38,-1,37,38,39,-1,40,41,10,-1,10,41,42,-1,10,42,8,-1,8,42,43,-1,8,43,44,-1,38,45,39,-1,39,45,46,-1,39,46,10,-1,10,46,47,-1,10,47,40,-1,44,48,8,-1,8,48,49,-1,8,49,16,-1,4,50,5,-1,5,50,51,-1,5,51,52,-1,51,53,52,-1,52,53,54,-1,52,54,29,-1,13,55,12,-1,12,55,56,-1,12,56,29,-1,29,56,57,-1,29,57,52,-1,58,59,60,-1,61,62,5,-1,5,62,63,-1,64,65,66,-1,67,68,69,-1,60,70,58,-1,58,70,71,-1,58,71,72,-1,73,74,75,-1,76,77,78,-1,79,80,78,-1,78,80,81,-1,78,81,76,-1,76,81,61,-1,76,61,82,-1,82,61,5,-1,82,5,83,-1,84,85,5,-1,69,77,67,-1,67,77,76,-1,67,76,86,-1,87,88,85,-1,85,88,89,-1,85,89,5,-1,5,89,58,-1,5,58,83,-1,83,58,72,-1,90,91,92,-1,92,91,93,-1,93,94,92,-1,92,94,95,-1,92,95,96,-1,96,97,92,-1,92,97,98,-1,92,98,58,-1,58,98,99,-1,58,99,59,-1,3,5,8,-1,8,5,63,-1,8,63,66,-1,66,63,86,-1,66,86,64,-1,64,86,76,-1,64,76,100,-1,52,101,5,-1,5,101,73,-1,5,73,84,-1,84,73,75,-1,84,75,102,-1,102,75,64,-1,102,64,92,-1,92,64,100,-1,92,100,90,-1,103,74,73,-1,66,65,104,-1,104,65,105,-1,104,105,106,-1,106,105,103,-1,106,103,107,-1,107,103,73,-1,107,73,101,-1,
        ]
    }
}
Shape{
    appearance Appearance {
        material  Material 	{
            diffuseColor 0.6666666666666666 0.6666666666666666 0.6666666666666666
            specularColor 0.4666666666666667 0.4666666666666667 0.4666666666666667
            ambientIntensity 0.2
            transparency 0
            shininess 0.5
        }
    }
    geometry IndexedFaceSet {
        ccw TRUE
        solid FALSE
        coord DEF co Coordinate {
            point [
                -1.0395 0.4133 0.3937, -0.9654 0.4816 0.3937, -0.966 0.5437 0.3937, -1.0395 -0.4133 0.3937, -1.0477 -0.4937 0.3937, -0.9654 -0.4816 0.3937, -0.966 -0.5437 0.3937, -0.881 -0.5367 0.3937, -0.8775 -0.5804 0.3937, -0.7887 -0.5772 0.3937, -0.7844 -0.6027 0.3937, -0.691 -0.6019 0.3937, -0.689 -0.6102 0.3937, -0.5906 -0.6102 0.3937, -0.8775 0.5804 0.3937, -0.881 0.5367 0.3937, -0.7844 0.6027 0.3937, -0.7887 0.5772 0.3937, -0.689 0.6102 0.3937, -0.691 0.6019 0.3937, -0.5906 0.6102 0.3937, -1.1987 0.0504 0.3937, -1.2992 -0.0 0.3937, -1.1987 -0.0504 0.3937, -1.2917 -0.0955 0.3937, -1.1821 -0.1498 0.3937, -1.2693 -0.1886 0.3937, -1.1494 -0.2451 0.3937, -1.2327 -0.277 0.3937, -1.1014 -0.3338 0.3937, -1.1827 -0.3587 0.3937, -1.1205 -0.4315 0.3937, -1.0477 0.4937 0.3937, -1.1205 0.4315 0.3937, -1.1014 0.3338 0.3937, -1.1827 0.3587 0.3937, -1.1494 0.2451 0.3937, -1.2327 0.277 0.3937, -1.1821 0.1498 0.3937, -1.2693 0.1886 0.3937, -1.2917 0.0955 0.3937, -1.2917 0.0955 0.3937
            ]
        }
        coordIndex [
            0,1,2,-1,3,4,5,-1,5,4,6,-1,5,6,7,-1,7,6,8,-1,7,8,9,-1,9,8,10,-1,9,10,11,-1,11,10,12,-1,11,12,13,-1,2,1,14,-1,14,1,15,-1,14,15,16,-1,16,15,17,-1,16,17,18,-1,18,17,19,-1,18,19,20,-1,21,22,23,-1,23,22,24,-1,23,24,25,-1,25,24,26,-1,25,26,27,-1,27,26,28,-1,27,28,29,-1,29,28,30,-1,29,30,3,-1,3,30,31,-1,3,31,4,-1,2,32,0,-1,0,32,33,-1,0,33,34,-1,34,33,35,-1,34,35,36,-1,36,35,37,-1,36,37,38,-1,38,37,39,-1,38,39,21,-1,21,39,40,-1,21,40,22,-1,
        ]
    }
}
Shape{
    appearance Appearance {
        material  Material 	{
            diffuseColor 0.20784313725490197 0.20784313725490197 0.20784313725490197
            specularColor 0.01568627450980392 0.01568627450980392 0.01568627450980392
            ambientIntensity 0.2
            transparency 0
            shininess 0.5
        }
    }
    geometry IndexedFaceSet {
        ccw TRUE
        solid FALSE
        coord DEF co Coordinate {
            point [
                1.378 0.0 0.1969, 1.378 0.7874 0.1969, 1.3695 0.1078 0.1969, 1.3442 0.2129 0.1969, -1.378 0.0 0.1969, -1.3695 0.1078 0.1969, -1.378 0.7874 0.1969, -1.3442 0.2129 0.1969, -1.3029 0.3128 0.1969, -1.0939 0.5574 0.1969, -1.0018 0.6139 0.1969, -0.9019 0.6553 0.1969, -0.7968 0.6805 0.1969, -1.2464 0.405 0.1969, -1.1762 0.4872 0.1969, 0.9019 0.6553 0.1969, 1.0018 0.6139 0.1969, 1.0939 0.5574 0.1969, 1.1762 0.4872 0.1969, 1.2464 0.405 0.1969, 1.3029 0.3128 0.1969, -0.689 0.689 0.1969, 0.689 0.689 0.1969, 0.7968 0.6805 0.1969, -1.3695 -0.1078 0.1969, -1.378 -0.7874 0.1969, 1.3695 -0.1078 0.1969, 1.378 -0.7874 0.1969, 1.3442 -0.2129 0.1969, 1.3029 -0.3128 0.1969, 1.2464 -0.405 0.1969, 1.1762 -0.4872 0.1969, -0.7968 -0.6805 0.1969, -0.9019 -0.6553 0.1969, -1.0018 -0.6139 0.1969, 1.0939 -0.5574 0.1969, 1.0018 -0.6139 0.1969, 0.9019 -0.6553 0.1969, 0.7968 -0.6805 0.1969, 0.689 -0.689 0.1969, -0.689 -0.689 0.1969, -1.0939 -0.5574 0.1969, -1.1762 -0.4872 0.1969, -1.2464 -0.405 0.1969, -1.3029 -0.3128 0.1969, -1.3442 -0.2129 0.1969, 1.378 0.0984 0.1142, 1.378 0.0984 0.0, 1.378 0.7874 0.0, 1.378 -0.1095 0.0, 1.378 -0.0984 0.0, 1.378 -0.0984 0.1142, 1.378 -0.7874 0.0, -1.378 0.7874 0.0, 0.1032 0.7874 0.0, 0.1032 -0.7874 0.0, -1.378 -0.7874 0.0, -1.378 -0.7874 0.0
            ]
        }
        coordIndex [
            0,1,2,-1,2,1,3,-1,4,5,6,-1,6,5,7,-1,6,7,8,-1,9,10,6,-1,6,10,11,-1,6,11,12,-1,8,13,6,-1,6,13,14,-1,6,14,9,-1,15,16,1,-1,1,16,17,-1,1,17,18,-1,18,19,1,-1,1,19,20,-1,1,20,3,-1,12,21,6,-1,6,21,22,-1,6,22,1,-1,1,22,23,-1,1,23,15,-1,24,4,25,-1,0,26,27,-1,27,26,28,-1,28,29,27,-1,27,29,30,-1,27,30,31,-1,32,33,25,-1,25,33,34,-1,31,35,27,-1,27,35,36,-1,27,36,37,-1,37,38,27,-1,27,38,39,-1,27,39,25,-1,25,39,40,-1,25,40,32,-1,34,41,25,-1,25,41,42,-1,25,42,43,-1,43,44,25,-1,25,44,45,-1,25,45,24,-1,46,47,48,-1,49,50,51,-1,48,1,46,-1,46,1,0,-1,46,0,51,-1,51,0,27,-1,51,27,49,-1,49,27,52,-1,53,6,54,-1,54,6,1,-1,54,1,48,-1,52,27,55,-1,55,27,25,-1,55,25,56,-1,
        ]
    }
}
Shape{
    appearance Appearance {
        material  Material 	{
            diffuseColor 0.6666666666666666 0.6666666666666666 0.6666666666666666
            specularColor 0.4666666666666667 0.4666666666666667 0.4666666666666667
            ambientIntensity 0.2
            transparency 0
            shininess 0.5
        }
    }
    geometry IndexedFaceSet {
        ccw TRUE
        solid FALSE
        coord DEF co Coordinate {
            point [
                -0.689 0.689 0.315, -0.689 0.689 0.1969, -0.7968 0.6805 0.1969, -0.7968 0.6805 0.315, -0.9019 0.6553 0.1969, -0.9019 0.6553 0.315, -1.0018 0.6139 0.1969, -1.0018 0.6139 0.315, -1.0939 0.5574 0.1969, -1.0939 0.5574 0.315, -1.1762 0.4872 0.1969, -1.1762 0.4872 0.315, -1.2464 0.405 0.1969, -1.2464 0.405 0.315, -1.3029 0.3128 0.1969, -1.3029 0.3128 0.315, -1.3442 0.2129 0.1969, -1.3442 0.2129 0.315, -1.3695 0.1078 0.1969, -1.3695 0.1078 0.315, -1.378 0.0 0.1969, -1.378 -0.0 0.315, -1.3695 -0.1078 0.1969, -1.3695 -0.1078 0.315, -1.3442 -0.2129 0.1969, -1.3442 -0.2129 0.315, -1.3029 -0.3128 0.1969, -1.3029 -0.3128 0.315, -1.2464 -0.405 0.1969, -1.2464 -0.405 0.315, -1.1762 -0.4872 0.1969, -1.1762 -0.4872 0.315, -1.0939 -0.5574 0.1969, -1.0939 -0.5574 0.315, -1.0018 -0.6139 0.1969, -1.0018 -0.6139 0.315, -0.9019 -0.6553 0.1969, -0.9019 -0.6553 0.315, -0.7968 -0.6805 0.1969, -0.7968 -0.6805 0.315, -0.689 -0.689 0.1969, -0.689 -0.689 0.315, 0.689 -0.689 0.315, 0.689 -0.689 0.1969, 0.7968 -0.6805 0.1969, 0.7968 -0.6805 0.315, 0.9019 -0.6553 0.1969, 0.9019 -0.6553 0.315, 1.0018 -0.6139 0.1969, 1.0018 -0.6139 0.315, 1.0939 -0.5574 0.1969, 1.0939 -0.5574 0.315, 1.1762 -0.4872 0.1969, 1.1762 -0.4872 0.315, 1.2464 -0.405 0.1969, 1.2464 -0.405 0.315, 1.3029 -0.3128 0.1969, 1.3029 -0.3128 0.315, 1.3442 -0.2129 0.1969, 1.3442 -0.2129 0.315, 1.3695 -0.1078 0.1969, 1.3695 -0.1078 0.315, 1.378 0.0 0.1969, 1.378 0.0 0.315, 1.3695 0.1078 0.1969, 1.3695 0.1078 0.315, 1.3442 0.2129 0.1969, 1.3442 0.2129 0.315, 1.3029 0.3128 0.1969, 1.3029 0.3128 0.315, 1.2464 0.405 0.1969, 1.2464 0.405 0.315, 1.1762 0.4872 0.1969, 1.1762 0.4872 0.315, 1.0939 0.5574 0.1969, 1.0939 0.5574 0.315, 1.0018 0.6139 0.1969, 1.0018 0.6139 0.315, 0.9019 0.6553 0.1969, 0.9019 0.6553 0.315, 0.7968 0.6805 0.1969, 0.7968 0.6805 0.315, 0.689 0.689 0.1969, 0.689 0.689 0.315, 0.691 -0.6019 0.3937, 0.5906 -0.6102 0.3937, 0.689 -0.6102 0.3937, 0.7887 -0.5772 0.3937, 0.7844 -0.6027 0.3937, 0.881 -0.5367 0.3937, 0.8775 -0.5804 0.3937, 0.9654 -0.4816 0.3937, 0.966 -0.5437 0.3937, 1.0395 -0.4133 0.3937, 1.0395 0.4133 0.3937, 1.0477 0.4937 0.3937, 0.9654 0.4816 0.3937, 0.966 0.5437 0.3937, 0.881 0.5367 0.3937, 0.8775 0.5804 0.3937, 0.7887 0.5772 0.3937, 0.7844 0.6027 0.3937, 0.691 0.6019 0.3937, 0.689 0.6102 0.3937, 0.5906 0.6102 0.3937, 1.0477 -0.4937 0.3937, 1.1205 -0.4315 0.3937, 1.1014 -0.3338 0.3937, 1.1827 -0.3587 0.3937, 1.1494 -0.2451 0.3937, 1.2327 -0.277 0.3937, 1.1821 -0.1498 0.3937, 1.2693 -0.1886 0.3937, 1.1987 -0.0504 0.3937, 1.2917 -0.0955 0.3937, 1.2992 0.0 0.3937, 1.1987 0.0504 0.3937, 1.2917 0.0955 0.3937, 1.1821 0.1498 0.3937, 1.2693 0.1886 0.3937, 1.1494 0.2451 0.3937, 1.2327 0.277 0.3937, 1.1014 0.3338 0.3937, 1.1827 0.3587 0.3937, 1.1205 0.4315 0.3937, -0.5906 0.6102 0.7087, -0.5906 0.6102 0.3937, -0.6614 0.6061 0.7087, -0.691 0.6019 0.3937, -0.7887 0.5772 0.3937, -0.7313 0.5938 0.7087, -0.6908 0.6009 0.7087, -0.8806 0.536 0.7087, -0.8644 0.5453 0.7087, -0.881 0.5367 0.3937, -0.7993 0.5734 0.7087, -0.7885 0.5766 0.7087, -0.9259 0.5098 0.7087, -0.9654 0.4816 0.3937, -0.9648 0.4808 0.7087, -0.9828 0.4675 0.7087, -1.0395 0.4133 0.3937, -1.0344 0.4188 0.7087, -1.1014 0.3338 0.3937, -1.08 0.3644 0.7087, -1.0392 0.4131 0.7087, -1.1494 0.2451 0.3937, -1.119 0.3051 0.7087, -1.1006 0.3332 0.7087, -1.1812 0.1496 0.7087, -1.1752 0.175 0.7087, -1.1821 0.1498 0.3937, -1.1509 0.2417 0.7087, -1.1492 0.245 0.7087, -1.1915 0.106 0.7087, -1.1987 0.0504 0.3937, -1.198 0.0503 0.7087, -1.1998 0.0355 0.7087, -1.1987 -0.0504 0.3937, -1.1998 -0.0355 0.7087, -1.1821 -0.1498 0.3937, -1.1915 -0.106 0.7087, -1.198 -0.0503 0.7087, -1.1492 -0.245 0.7087, -1.1509 -0.2417 0.7087, -1.1494 -0.2451 0.3937, -1.1752 -0.175 0.7087, -1.1812 -0.1496 0.7087, -1.119 -0.3051 0.7087, -1.1014 -0.3338 0.3937, -1.1006 -0.3332 0.7087, -1.08 -0.3644 0.7087, -1.0395 -0.4133 0.3937, -1.0392 -0.4131 0.7087, -1.0344 -0.4188 0.7087, -0.9654 -0.4816 0.3937, -0.9828 -0.4675 0.7087, -0.881 -0.5367 0.3937, -0.9259 -0.5098 0.7087, -0.9648 -0.4808 0.7087, -0.7885 -0.5766 0.7087, -0.7993 -0.5734 0.7087, -0.7887 -0.5772 0.3937, -0.8644 -0.5453 0.7087, -0.8806 -0.536 0.7087, -0.7313 -0.5938 0.7087, -0.691 -0.6019 0.3937, -0.6908 -0.6009 0.7087, -0.6614 -0.6061 0.7087, -0.5906 -0.6102 0.3937, -0.5906 -0.6102 0.7087, 0.5906 -0.6102 0.7087, 0.6614 -0.6061 0.7087, 0.7313 -0.5938 0.7087, 0.6908 -0.6009 0.7087, 0.8806 -0.536 0.7087, 0.8644 -0.5453 0.7087, 0.7993 -0.5734 0.7087, 0.7885 -0.5766 0.7087, 0.9259 -0.5098 0.7087, 0.9648 -0.4808 0.7087, 0.9828 -0.4675 0.7087, 1.0344 -0.4188 0.7087, 1.08 -0.3644 0.7087, 1.0392 -0.4131 0.7087, 1.119 -0.3051 0.7087, 1.1006 -0.3332 0.7087, 1.1812 -0.1496 0.7087, 1.1752 -0.175 0.7087, 1.1509 -0.2417 0.7087, 1.1492 -0.245 0.7087, 1.1915 -0.106 0.7087, 1.198 -0.0503 0.7087, 1.1998 -0.0355 0.7087, 1.1998 0.0355 0.7087, 1.1915 0.106 0.7087, 1.198 0.0503 0.7087, 1.1492 0.245 0.7087, 1.1509 0.2417 0.7087, 1.1752 0.175 0.7087, 1.1812 0.1496 0.7087, 1.119 0.3051 0.7087, 1.1006 0.3332 0.7087, 1.08 0.3644 0.7087, 1.0392 0.4131 0.7087, 1.0344 0.4188 0.7087, 0.9828 0.4675 0.7087, 0.9259 0.5098 0.7087, 0.9648 0.4808 0.7087, 0.7885 0.5766 0.7087, 0.7993 0.5734 0.7087, 0.8644 0.5453 0.7087, 0.8806 0.536 0.7087, 0.7313 0.5938 0.7087, 0.6908 0.6009 0.7087, 0.6614 0.6061 0.7087, 0.5906 0.6102 0.7087, -0.6523 -0.5279 0.7874, -0.5906 -0.5315 0.7874, -1.0508 -0.2657 0.7874, -0.7131 0.5172 0.7874, -0.6523 0.5279 0.7874, -0.5906 0.5315 0.7874, -1.0786 -0.2105 0.7874, 0.7131 -0.5172 0.7874, 0.7723 -0.4994 0.7874, 0.5906 0.5315 0.7874, 1.0997 -0.1524 0.7874, 1.0786 -0.2105 0.7874, 1.0508 -0.2657 0.7874, 0.7723 0.4994 0.7874, 0.7131 0.5172 0.7874, 0.6523 0.5279 0.7874, 0.6523 -0.5279 0.7874, 0.8291 -0.475 0.7874, 0.8826 -0.4441 0.7874, 0.9322 -0.4071 0.7874, 0.9771 -0.3647 0.7874, 1.0169 -0.3174 0.7874, 1.114 -0.0923 0.7874, 1.1211 -0.0309 0.7874, 1.0169 0.3174 0.7874, 1.114 0.0923 0.7874, 1.0997 0.1524 0.7874, 1.0786 0.2105 0.7874, -0.7723 0.4994 0.7874, -0.8291 0.475 0.7874, -0.8826 0.4441 0.7874, -0.9322 0.4071 0.7874, -0.9771 0.3647 0.7874, -1.0169 0.3174 0.7874, -1.0508 0.2657 0.7874, -1.0786 0.2105 0.7874, -1.0997 0.1524 0.7874, -1.114 0.0923 0.7874, -1.1211 0.0309 0.7874, -1.1211 -0.0309 0.7874, -0.9771 -0.3647 0.7874, -0.9322 -0.4071 0.7874, -0.7131 -0.5172 0.7874, 0.5906 -0.5315 0.7874, 1.1211 0.0309 0.7874, 1.0508 0.2657 0.7874, -1.114 -0.0923 0.7874, -1.0997 -0.1524 0.7874, 0.9771 0.3647 0.7874, 0.9322 0.4071 0.7874, -1.0169 -0.3174 0.7874, -0.8826 -0.4441 0.7874, -0.8291 -0.475 0.7874, -0.7723 -0.4994 0.7874, 0.8826 0.4441 0.7874, 0.8291 0.475 0.7874, -0.689 -0.6102 0.3937, -0.689 0.6102 0.3937, -0.7844 0.6027 0.3937, -0.8775 0.5804 0.3937, -0.966 0.5437 0.3937, -1.0477 0.4937 0.3937, -1.1205 0.4315 0.3937, -1.1827 0.3587 0.3937, -1.2327 0.277 0.3937, -1.2693 0.1886 0.3937, -1.2917 0.0955 0.3937, -1.2992 -0.0 0.3937, -1.2917 -0.0955 0.3937, -1.2693 -0.1886 0.3937, -1.2327 -0.277 0.3937, -1.1827 -0.3587 0.3937, -1.1205 -0.4315 0.3937, -1.0477 -0.4937 0.3937, -0.966 -0.5437 0.3937, -0.8775 -0.5804 0.3937, -0.7844 -0.6027 0.3937, -0.5906 -0.5519 0.7847, 0.5906 -0.5519 0.7847, -0.5906 -0.5709 0.7769, 0.5906 -0.5709 0.7769, -0.5906 -0.5872 0.7643, 0.5906 -0.5872 0.7643, -0.5906 -0.5997 0.748, 0.5906 -0.5997 0.748, -0.5906 -0.6076 0.729, 0.5906 -0.6076 0.729, 0.7307 -0.5912 0.729, 0.7983 -0.5709 0.729, 0.9244 -0.5076 0.729, 1.0779 -0.3628 0.729, 1.1484 -0.2406 0.729, 1.1889 -0.1055 0.729, 1.1889 0.1055 0.729, 1.1167 0.3038 0.729, 1.0779 0.3628 0.729, 1.0325 0.4169 0.729, 0.9244 0.5076 0.729, 0.7307 0.5912 0.729, 0.6546 0.5481 0.7847, 0.7178 0.537 0.7847, 0.6568 0.567 0.7769, 0.7222 0.5555 0.7769, 0.6587 0.5832 0.7643, 0.726 0.5713 0.7643, 0.6602 0.5956 0.748, 0.7288 0.5835 0.748, 0.6611 0.6034 0.729, 0.8382 0.4932 0.7847, 0.8938 0.4611 0.7847, 0.8468 0.5101 0.7769, 0.9042 0.477 0.7769, 0.8541 0.5247 0.7643, 0.9132 0.4906 0.7643, 0.8597 0.5359 0.748, 0.9201 0.501 0.748, 0.8632 0.5429 0.729, 1.1192 0.1583 0.7847, 1.134 0.0958 0.7847, 1.1374 0.1637 0.7769, 1.1527 0.0991 0.7769, 1.1531 0.1684 0.7643, 1.1688 0.102 0.7643, 1.165 0.172 0.748, 1.1811 0.1041 0.748, 1.1726 0.1742 0.729, 1.1415 -0.0321 0.7847, 1.134 -0.0958 0.7847, 1.1605 -0.0332 0.7769, 1.1527 -0.0991 0.7769, 1.1767 -0.0341 0.7643, 1.1688 -0.102 0.7643, 1.1892 -0.0349 0.748, 1.1811 -0.1041 0.748, 1.1971 -0.0353 0.729, 1.0685 -0.2759 0.7847, 1.0332 -0.3296 0.7847, 1.0849 -0.2854 0.7769, 1.0485 -0.3409 0.7769, 1.0991 -0.2936 0.7643, 1.0615 -0.3506 0.7643, 1.1099 -0.2998 0.748, 1.0716 -0.3581 0.748, 1.1167 -0.3038 0.729, 0.9453 -0.4228 0.7847, 0.8938 -0.4611 0.7847, 0.9575 -0.4373 0.7769, 0.9042 -0.477 0.7769, 0.968 -0.4498 0.7643, 0.9132 -0.4906 0.7643, 0.976 -0.4594 0.748, 0.9201 -0.501 0.748, 0.9811 -0.4654 0.729, 0.5906 0.5519 0.7847, 0.5906 0.5709 0.7769, 0.5906 0.5872 0.7643, 0.5906 0.5997 0.748, 0.5906 0.6076 0.729, 0.7983 0.5709 0.729, 0.7957 0.5635 0.748, 0.7914 0.5518 0.7643, 0.7858 0.5364 0.7769, 0.7793 0.5186 0.7847, 0.9811 0.4654 0.729, 0.976 0.4594 0.748, 0.968 0.4498 0.7643, 0.9575 0.4373 0.7769, 0.9453 0.4228 0.7847, 0.992 0.3787 0.7847, 1.0058 0.3918 0.7769, 1.0176 0.4029 0.7643, 1.0267 0.4115 0.748, 1.0716 0.3581 0.748, 1.0615 0.3506 0.7643, 1.0485 0.3409 0.7769, 1.0332 0.3296 0.7847, 1.1099 0.2998 0.748, 1.0991 0.2936 0.7643, 1.0849 0.2854 0.7769, 1.0685 0.2759 0.7847, 1.1484 0.2406 0.729, 1.1412 0.2375 0.748, 1.1297 0.2326 0.7643, 1.1147 0.2261 0.7769, 1.0973 0.2186 0.7847, 1.1971 0.0353 0.729, 1.1892 0.0349 0.748, 1.1767 0.0341 0.7643, 1.1605 0.0332 0.7769, 1.1415 0.0321 0.7847, 1.1726 -0.1742 0.729, 1.165 -0.172 0.748, 1.1531 -0.1684 0.7643, 1.1374 -0.1637 0.7769, 1.1192 -0.1583 0.7847, 1.0973 -0.2186 0.7847, 1.1147 -0.2261 0.7769, 1.1297 -0.2326 0.7643, 1.1412 -0.2375 0.748, 1.0325 -0.4169 0.729, 1.0267 -0.4115 0.748, 1.0176 -0.4029 0.7643, 1.0058 -0.3918 0.7769, 0.992 -0.3787 0.7847, 0.8632 -0.5429 0.729, 0.8597 -0.5359 0.748, 0.8541 -0.5247 0.7643, 0.8468 -0.5101 0.7769, 0.8382 -0.4932 0.7847, 0.7793 -0.5186 0.7847, 0.7858 -0.5364 0.7769, 0.7914 -0.5518 0.7643, 0.7957 -0.5635 0.748, 0.7288 -0.5835 0.748, 0.726 -0.5713 0.7643, 0.7222 -0.5555 0.7769, 0.7178 -0.537 0.7847, 0.6611 -0.6034 0.729, 0.6602 -0.5956 0.748, 0.6587 -0.5832 0.7643, 0.6568 -0.567 0.7769, 0.6546 -0.5481 0.7847, -0.7307 0.5912 0.729, -0.7983 0.5709 0.729, -0.9244 0.5076 0.729, -1.0779 0.3628 0.729, -1.1484 0.2406 0.729, -1.1889 0.1055 0.729, -1.1889 -0.1055 0.729, -1.1167 -0.3038 0.729, -1.0779 -0.3628 0.729, -1.0325 -0.4169 0.729, -0.9244 -0.5076 0.729, -0.7307 -0.5912 0.729, -0.6546 -0.5481 0.7847, -0.7178 -0.537 0.7847, -0.6568 -0.567 0.7769, -0.7222 -0.5555 0.7769, -0.6587 -0.5832 0.7643, -0.726 -0.5713 0.7643, -0.6602 -0.5956 0.748, -0.7288 -0.5835 0.748, -0.6611 -0.6034 0.729, -0.8382 -0.4932 0.7847, -0.8938 -0.4611 0.7847, -0.8468 -0.5101 0.7769, -0.9042 -0.477 0.7769, -0.8541 -0.5247 0.7643, -0.9132 -0.4906 0.7643, -0.8597 -0.5359 0.748, -0.9201 -0.501 0.748, -0.8632 -0.5429 0.729, -1.1192 -0.1583 0.7847, -1.134 -0.0958 0.7847, -1.1374 -0.1637 0.7769, -1.1527 -0.0991 0.7769, -1.1531 -0.1684 0.7643, -1.1688 -0.102 0.7643, -1.165 -0.172 0.748, -1.1811 -0.1041 0.748, -1.1726 -0.1742 0.729, -1.1415 0.0321 0.7847, -1.134 0.0958 0.7847, -1.1605 0.0332 0.7769, -1.1527 0.0991 0.7769, -1.1767 0.0341 0.7643, -1.1688 0.102 0.7643, -1.1892 0.0349 0.748, -1.1811 0.1041 0.748, -1.1971 0.0353 0.729, -1.0685 0.2759 0.7847, -1.0332 0.3296 0.7847, -1.0849 0.2854 0.7769, -1.0485 0.3409 0.7769, -1.0991 0.2936 0.7643, -1.0615 0.3506 0.7643, -1.1099 0.2998 0.748, -1.0716 0.3581 0.748, -1.1167 0.3038 0.729, -0.9453 0.4228 0.7847, -0.8938 0.4611 0.7847, -0.9575 0.4373 0.7769, -0.9042 0.477 0.7769, -0.968 0.4498 0.7643, -0.9132 0.4906 0.7643, -0.976 0.4594 0.748, -0.9201 0.501 0.748, -0.9811 0.4654 0.729, -0.7983 -0.5709 0.729, -0.7957 -0.5635 0.748, -0.7914 -0.5518 0.7643, -0.7858 -0.5364 0.7769, -0.7793 -0.5186 0.7847, -0.9811 -0.4654 0.729, -0.976 -0.4594 0.748, -0.968 -0.4498 0.7643, -0.9575 -0.4373 0.7769, -0.9453 -0.4228 0.7847, -0.992 -0.3787 0.7847, -1.0058 -0.3918 0.7769, -1.0176 -0.4029 0.7643, -1.0267 -0.4115 0.748, -1.0716 -0.3581 0.748, -1.0615 -0.3506 0.7643, -1.0485 -0.3409 0.7769, -1.0332 -0.3296 0.7847, -1.1099 -0.2998 0.748, -1.0991 -0.2936 0.7643, -1.0849 -0.2854 0.7769, -1.0685 -0.2759 0.7847, -1.1484 -0.2406 0.729, -1.1412 -0.2375 0.748, -1.1297 -0.2326 0.7643, -1.1147 -0.2261 0.7769, -1.0973 -0.2186 0.7847, -1.1971 -0.0353 0.729, -1.1892 -0.0349 0.748, -1.1767 -0.0341 0.7643, -1.1605 -0.0332 0.7769, -1.1415 -0.0321 0.7847, -1.1726 0.1742 0.729, -1.165 0.172 0.748, -1.1531 0.1684 0.7643, -1.1374 0.1637 0.7769, -1.1192 0.1583 0.7847, -1.0973 0.2186 0.7847, -1.1147 0.2261 0.7769, -1.1297 0.2326 0.7643, -1.1412 0.2375 0.748, -1.0325 0.4169 0.729, -1.0267 0.4115 0.748, -1.0176 0.4029 0.7643, -1.0058 0.3918 0.7769, -0.992 0.3787 0.7847, -0.8632 0.5429 0.729, -0.8597 0.5359 0.748, -0.8541 0.5247 0.7643, -0.8468 0.5101 0.7769, -0.8382 0.4932 0.7847, -0.7793 0.5186 0.7847, -0.7858 0.5364 0.7769, -0.7914 0.5518 0.7643, -0.7957 0.5635 0.748, -0.7288 0.5835 0.748, -0.726 0.5713 0.7643, -0.7222 0.5555 0.7769, -0.7178 0.537 0.7847, -0.6611 0.6034 0.729, -0.6602 0.5956 0.748, -0.6587 0.5832 0.7643, -0.6568 0.567 0.7769, -0.6546 0.5481 0.7847, -0.5906 0.5519 0.7847, -0.5906 0.5709 0.7769, -0.5906 0.5872 0.7643, -0.5906 0.5997 0.748, -0.5906 0.6076 0.729, 1.378 -0.0984 0.1142, 1.4961 -0.0984 0.1142, 1.378 0.0984 0.1142, 1.4961 0.0984 0.1142, 0.7874 0.0984 -0.0039, 0.7874 0.0984 0.0, 1.378 0.0984 0.0, 1.4961 0.0984 -0.0039, 0.7874 -0.0984 0.0, 0.7874 -0.0984 -0.0039, 1.378 -0.0984 0.0, 1.4961 -0.0984 -0.0039, -1.378 0.0984 0.1142, -1.4961 0.0984 0.1142, -1.378 -0.0984 0.1142, -1.4961 -0.0984 0.1142, -0.7874 -0.0984 -0.0039, -0.7874 -0.0984 0.0, -1.378 -0.0984 0.0, -1.4961 -0.0984 -0.0039, -0.7874 0.0984 0.0, -0.7874 0.0984 -0.0039, -1.378 0.0984 0.0, -1.4961 0.0984 -0.0039, -1.4961 0.0984 -0.0039
            ]
        }
        coordIndex [
            0,1,2,-1,0,2,3,-1,3,2,4,-1,3,4,5,-1,5,4,6,-1,5,6,7,-1,7,6,8,-1,7,8,9,-1,9,8,10,-1,9,10,11,-1,11,10,12,-1,11,12,13,-1,13,12,14,-1,13,14,15,-1,15,14,16,-1,15,16,17,-1,17,16,18,-1,17,18,19,-1,19,18,20,-1,19,20,21,-1,21,20,22,-1,21,22,23,-1,23,22,24,-1,23,24,25,-1,25,24,26,-1,25,26,27,-1,27,26,28,-1,27,28,29,-1,29,28,30,-1,29,30,31,-1,31,30,32,-1,31,32,33,-1,33,32,34,-1,33,34,35,-1,35,34,36,-1,35,36,37,-1,37,36,38,-1,37,38,39,-1,39,38,40,-1,39,40,41,-1,41,40,42,-1,42,40,43,-1,42,43,44,-1,42,44,45,-1,45,44,46,-1,45,46,47,-1,47,46,48,-1,47,48,49,-1,49,48,50,-1,49,50,51,-1,51,50,52,-1,51,52,53,-1,53,52,54,-1,53,54,55,-1,55,54,56,-1,55,56,57,-1,57,56,58,-1,57,58,59,-1,59,58,60,-1,59,60,61,-1,61,60,62,-1,61,62,63,-1,63,62,64,-1,63,64,65,-1,65,64,66,-1,65,66,67,-1,67,66,68,-1,67,68,69,-1,69,68,70,-1,69,70,71,-1,71,70,72,-1,71,72,73,-1,73,72,74,-1,73,74,75,-1,75,74,76,-1,75,76,77,-1,77,76,78,-1,77,78,79,-1,79,78,80,-1,79,80,81,-1,81,80,82,-1,81,82,83,-1,83,82,0,-1,0,82,1,-1,84,85,86,-1,84,86,87,-1,87,86,88,-1,87,88,89,-1,89,88,90,-1,89,90,91,-1,91,90,92,-1,91,92,93,-1,94,95,96,-1,96,95,97,-1,96,97,98,-1,98,97,99,-1,98,99,100,-1,100,99,101,-1,100,101,102,-1,102,101,103,-1,102,103,104,-1,92,105,93,-1,93,105,106,-1,93,106,107,-1,107,106,108,-1,107,108,109,-1,109,108,110,-1,109,110,111,-1,111,110,112,-1,111,112,113,-1,112,114,113,-1,113,114,115,-1,113,115,116,-1,116,115,117,-1,116,117,118,-1,118,117,119,-1,118,119,120,-1,120,119,121,-1,120,121,122,-1,122,121,123,-1,122,123,94,-1,94,123,124,-1,94,124,95,-1,125,126,127,-1,127,126,128,-1,129,130,128,-1,128,130,131,-1,128,131,127,-1,132,133,134,-1,134,133,135,-1,134,135,129,-1,129,135,136,-1,129,136,130,-1,132,134,137,-1,137,134,138,-1,137,138,139,-1,139,138,140,-1,140,138,141,-1,140,141,142,-1,143,144,141,-1,141,144,145,-1,141,145,142,-1,146,147,143,-1,143,147,148,-1,143,148,144,-1,149,150,151,-1,151,150,152,-1,151,152,146,-1,146,152,153,-1,146,153,147,-1,149,151,154,-1,154,151,155,-1,154,155,156,-1,156,155,157,-1,157,155,158,-1,157,158,159,-1,160,161,158,-1,158,161,162,-1,158,162,159,-1,163,164,165,-1,165,164,166,-1,165,166,160,-1,160,166,167,-1,160,167,161,-1,163,165,168,-1,168,165,169,-1,168,169,170,-1,170,169,171,-1,171,169,172,-1,171,172,173,-1,173,172,174,-1,174,172,175,-1,174,175,176,-1,177,178,175,-1,175,178,179,-1,175,179,176,-1,180,181,182,-1,182,181,183,-1,182,183,177,-1,177,183,184,-1,177,184,178,-1,180,182,185,-1,185,182,186,-1,185,186,187,-1,187,186,188,-1,188,186,189,-1,188,189,190,-1,190,189,191,-1,191,189,85,-1,191,85,192,-1,192,85,84,-1,87,193,84,-1,84,193,194,-1,84,194,192,-1,195,196,89,-1,89,196,197,-1,89,197,87,-1,87,197,198,-1,87,198,193,-1,195,89,199,-1,199,89,91,-1,199,91,200,-1,200,91,201,-1,201,91,93,-1,201,93,202,-1,107,203,93,-1,93,203,204,-1,93,204,202,-1,109,205,107,-1,107,205,206,-1,107,206,203,-1,207,208,111,-1,111,208,209,-1,111,209,109,-1,109,209,210,-1,109,210,205,-1,207,111,211,-1,211,111,113,-1,211,113,212,-1,212,113,213,-1,213,113,116,-1,213,116,214,-1,118,215,116,-1,116,215,216,-1,116,216,214,-1,217,218,120,-1,120,218,219,-1,120,219,118,-1,118,219,220,-1,118,220,215,-1,217,120,221,-1,221,120,122,-1,221,122,222,-1,222,122,223,-1,223,122,94,-1,223,94,224,-1,224,94,225,-1,225,94,96,-1,225,96,226,-1,98,227,96,-1,96,227,228,-1,96,228,226,-1,229,230,100,-1,100,230,231,-1,100,231,98,-1,98,231,232,-1,98,232,227,-1,229,100,233,-1,233,100,102,-1,233,102,234,-1,234,102,235,-1,235,102,104,-1,235,104,236,-1,236,104,125,-1,125,104,126,-1,237,238,239,-1,240,238,241,-1,241,238,242,-1,239,238,243,-1,244,245,246,-1,247,246,248,-1,248,246,249,-1,250,251,247,-1,247,251,252,-1,247,252,246,-1,244,246,253,-1,245,254,246,-1,246,254,255,-1,246,255,256,-1,256,257,246,-1,246,257,258,-1,246,258,249,-1,259,260,261,-1,262,263,264,-1,240,265,238,-1,238,265,266,-1,238,266,267,-1,267,268,238,-1,238,268,269,-1,238,269,270,-1,270,271,238,-1,238,271,272,-1,238,272,273,-1,273,274,238,-1,238,274,275,-1,238,275,276,-1,277,278,279,-1,242,238,246,-1,246,238,280,-1,246,280,253,-1,260,281,261,-1,261,281,262,-1,261,262,282,-1,282,262,264,-1,276,283,238,-1,238,283,284,-1,238,284,243,-1,259,261,247,-1,247,261,285,-1,247,285,286,-1,237,239,279,-1,279,239,287,-1,279,287,277,-1,278,288,279,-1,279,288,289,-1,279,289,290,-1,286,291,247,-1,247,291,292,-1,247,292,250,-1,42,86,85,-1,42,85,41,-1,41,85,189,-1,41,189,293,-1,86,42,45,-1,86,45,88,-1,88,45,47,-1,88,47,90,-1,90,47,49,-1,90,49,92,-1,92,49,51,-1,92,51,105,-1,105,51,53,-1,105,53,106,-1,106,53,55,-1,106,55,108,-1,108,55,57,-1,108,57,110,-1,110,57,59,-1,110,59,112,-1,112,59,61,-1,112,61,114,-1,114,61,63,-1,114,63,115,-1,115,63,65,-1,115,65,117,-1,117,65,67,-1,117,67,119,-1,119,67,69,-1,119,69,121,-1,121,69,71,-1,121,71,123,-1,123,71,73,-1,123,73,124,-1,124,73,75,-1,124,75,95,-1,95,75,77,-1,95,77,97,-1,97,77,79,-1,97,79,99,-1,99,79,81,-1,99,81,101,-1,101,81,83,-1,101,83,103,-1,294,0,3,-1,294,3,295,-1,295,3,5,-1,295,5,296,-1,296,5,7,-1,296,7,297,-1,297,7,9,-1,297,9,298,-1,298,9,11,-1,298,11,299,-1,299,11,13,-1,299,13,300,-1,300,13,15,-1,300,15,301,-1,301,15,17,-1,301,17,302,-1,302,17,19,-1,302,19,303,-1,303,19,21,-1,303,21,304,-1,304,21,23,-1,304,23,305,-1,305,23,25,-1,305,25,306,-1,306,25,27,-1,306,27,307,-1,307,27,29,-1,307,29,308,-1,308,29,31,-1,308,31,309,-1,309,31,33,-1,309,33,310,-1,310,33,35,-1,310,35,311,-1,311,35,37,-1,311,37,312,-1,312,37,39,-1,312,39,313,-1,313,39,41,-1,313,41,293,-1,104,103,83,-1,104,83,126,-1,126,83,0,-1,126,0,294,-1,280,238,314,-1,280,314,315,-1,315,314,316,-1,315,316,317,-1,317,316,318,-1,317,318,319,-1,319,318,320,-1,319,320,321,-1,321,320,322,-1,321,322,323,-1,323,322,190,-1,323,190,191,-1,194,193,324,-1,198,197,325,-1,195,199,326,-1,204,203,327,-1,210,209,328,-1,207,211,329,-1,216,215,330,-1,217,221,331,-1,222,223,332,-1,224,225,333,-1,228,227,334,-1,229,233,335,-1,252,251,336,-1,336,251,337,-1,336,337,338,-1,338,337,339,-1,338,339,340,-1,340,339,341,-1,340,341,342,-1,342,341,343,-1,342,343,344,-1,344,343,335,-1,292,291,345,-1,345,291,346,-1,345,346,347,-1,347,346,348,-1,347,348,349,-1,349,348,350,-1,349,350,351,-1,351,350,352,-1,351,352,353,-1,353,352,334,-1,263,262,354,-1,354,262,355,-1,354,355,356,-1,356,355,357,-1,356,357,358,-1,358,357,359,-1,358,359,360,-1,360,359,361,-1,360,361,362,-1,362,361,330,-1,260,259,363,-1,363,259,364,-1,363,364,365,-1,365,364,366,-1,365,366,367,-1,367,366,368,-1,367,368,369,-1,369,368,370,-1,369,370,371,-1,371,370,329,-1,249,258,372,-1,372,258,373,-1,372,373,374,-1,374,373,375,-1,374,375,376,-1,376,375,377,-1,376,377,378,-1,378,377,379,-1,378,379,380,-1,380,379,327,-1,256,255,381,-1,381,255,382,-1,381,382,383,-1,383,382,384,-1,383,384,385,-1,385,384,386,-1,385,386,387,-1,387,386,388,-1,387,388,389,-1,389,388,326,-1,246,252,390,-1,390,252,336,-1,390,336,391,-1,391,336,338,-1,391,338,392,-1,392,338,340,-1,392,340,393,-1,393,340,342,-1,393,342,394,-1,394,342,344,-1,394,344,236,-1,236,344,235,-1,335,233,344,-1,344,233,234,-1,344,234,235,-1,230,229,395,-1,395,229,335,-1,395,335,396,-1,396,335,343,-1,396,343,397,-1,397,343,341,-1,397,341,398,-1,398,341,339,-1,398,339,399,-1,399,339,337,-1,399,337,250,-1,250,337,251,-1,250,292,399,-1,399,292,345,-1,399,345,398,-1,398,345,347,-1,398,347,397,-1,397,347,349,-1,397,349,396,-1,396,349,351,-1,396,351,395,-1,395,351,353,-1,395,353,230,-1,230,353,231,-1,334,227,353,-1,353,227,232,-1,353,232,231,-1,226,228,400,-1,400,228,334,-1,400,334,401,-1,401,334,352,-1,401,352,402,-1,402,352,350,-1,402,350,403,-1,403,350,348,-1,403,348,404,-1,404,348,346,-1,404,346,286,-1,286,346,291,-1,286,285,404,-1,404,285,405,-1,404,405,403,-1,403,405,406,-1,403,406,402,-1,402,406,407,-1,402,407,401,-1,401,407,408,-1,401,408,400,-1,400,408,333,-1,400,333,226,-1,226,333,225,-1,223,224,332,-1,332,224,333,-1,332,333,409,-1,409,333,408,-1,409,408,410,-1,410,408,407,-1,410,407,411,-1,411,407,406,-1,411,406,412,-1,412,406,405,-1,412,405,261,-1,261,405,285,-1,221,222,331,-1,331,222,332,-1,331,332,413,-1,413,332,409,-1,413,409,414,-1,414,409,410,-1,414,410,415,-1,415,410,411,-1,415,411,416,-1,416,411,412,-1,416,412,282,-1,282,412,261,-1,218,217,417,-1,417,217,331,-1,417,331,418,-1,418,331,413,-1,418,413,419,-1,419,413,414,-1,419,414,420,-1,420,414,415,-1,420,415,421,-1,421,415,416,-1,421,416,264,-1,264,416,282,-1,264,263,421,-1,421,263,354,-1,421,354,420,-1,420,354,356,-1,420,356,419,-1,419,356,358,-1,419,358,418,-1,418,358,360,-1,418,360,417,-1,417,360,362,-1,417,362,218,-1,218,362,219,-1,330,215,362,-1,362,215,220,-1,362,220,219,-1,214,216,422,-1,422,216,330,-1,422,330,423,-1,423,330,361,-1,423,361,424,-1,424,361,359,-1,424,359,425,-1,425,359,357,-1,425,357,426,-1,426,357,355,-1,426,355,281,-1,281,355,262,-1,281,260,426,-1,426,260,363,-1,426,363,425,-1,425,363,365,-1,425,365,424,-1,424,365,367,-1,424,367,423,-1,423,367,369,-1,423,369,422,-1,422,369,371,-1,422,371,214,-1,214,371,213,-1,329,211,371,-1,371,211,212,-1,371,212,213,-1,208,207,427,-1,427,207,329,-1,427,329,428,-1,428,329,370,-1,428,370,429,-1,429,370,368,-1,429,368,430,-1,430,368,366,-1,430,366,431,-1,431,366,364,-1,431,364,247,-1,247,364,259,-1,247,248,431,-1,431,248,432,-1,431,432,430,-1,430,432,433,-1,430,433,429,-1,429,433,434,-1,429,434,428,-1,428,434,435,-1,428,435,427,-1,427,435,328,-1,427,328,208,-1,208,328,209,-1,205,210,380,-1,380,210,328,-1,380,328,378,-1,378,328,435,-1,378,435,376,-1,376,435,434,-1,376,434,374,-1,374,434,433,-1,374,433,372,-1,372,433,432,-1,372,432,249,-1,249,432,248,-1,327,203,380,-1,380,203,206,-1,380,206,205,-1,202,204,436,-1,436,204,327,-1,436,327,437,-1,437,327,379,-1,437,379,438,-1,438,379,377,-1,438,377,439,-1,439,377,375,-1,439,375,440,-1,440,375,373,-1,440,373,257,-1,257,373,258,-1,257,256,440,-1,440,256,381,-1,440,381,439,-1,439,381,383,-1,439,383,438,-1,438,383,385,-1,438,385,437,-1,437,385,387,-1,437,387,436,-1,436,387,389,-1,436,389,202,-1,202,389,201,-1,326,199,389,-1,389,199,200,-1,389,200,201,-1,196,195,441,-1,441,195,326,-1,441,326,442,-1,442,326,388,-1,442,388,443,-1,443,388,386,-1,443,386,444,-1,444,386,384,-1,444,384,445,-1,445,384,382,-1,445,382,254,-1,254,382,255,-1,254,245,445,-1,445,245,446,-1,445,446,444,-1,444,446,447,-1,444,447,443,-1,443,447,448,-1,443,448,442,-1,442,448,449,-1,442,449,441,-1,441,449,325,-1,441,325,196,-1,196,325,197,-1,193,198,324,-1,324,198,325,-1,324,325,450,-1,450,325,449,-1,450,449,451,-1,451,449,448,-1,451,448,452,-1,452,448,447,-1,452,447,453,-1,453,447,446,-1,453,446,244,-1,244,446,245,-1,192,194,454,-1,454,194,324,-1,454,324,455,-1,455,324,450,-1,455,450,456,-1,456,450,451,-1,456,451,457,-1,457,451,452,-1,457,452,458,-1,458,452,453,-1,458,453,253,-1,253,453,244,-1,253,280,458,-1,458,280,315,-1,458,315,457,-1,457,315,317,-1,457,317,456,-1,456,317,319,-1,456,319,455,-1,455,319,321,-1,455,321,454,-1,454,321,323,-1,454,323,192,-1,192,323,191,-1,131,130,459,-1,136,135,460,-1,132,137,461,-1,145,144,462,-1,153,152,463,-1,149,154,464,-1,162,161,465,-1,163,168,466,-1,170,171,467,-1,173,174,468,-1,179,178,469,-1,180,185,470,-1,237,279,471,-1,471,279,472,-1,471,472,473,-1,473,472,474,-1,473,474,475,-1,475,474,476,-1,475,476,477,-1,477,476,478,-1,477,478,479,-1,479,478,470,-1,289,288,480,-1,480,288,481,-1,480,481,482,-1,482,481,483,-1,482,483,484,-1,484,483,485,-1,484,485,486,-1,486,485,487,-1,486,487,488,-1,488,487,469,-1,284,283,489,-1,489,283,490,-1,489,490,491,-1,491,490,492,-1,491,492,493,-1,493,492,494,-1,493,494,495,-1,495,494,496,-1,495,496,497,-1,497,496,465,-1,275,274,498,-1,498,274,499,-1,498,499,500,-1,500,499,501,-1,500,501,502,-1,502,501,503,-1,502,503,504,-1,504,503,505,-1,504,505,506,-1,506,505,464,-1,271,270,507,-1,507,270,508,-1,507,508,509,-1,509,508,510,-1,509,510,511,-1,511,510,512,-1,511,512,513,-1,513,512,514,-1,513,514,515,-1,515,514,462,-1,268,267,516,-1,516,267,517,-1,516,517,518,-1,518,517,519,-1,518,519,520,-1,520,519,521,-1,520,521,522,-1,522,521,523,-1,522,523,524,-1,524,523,461,-1,238,237,314,-1,314,237,471,-1,314,471,316,-1,316,471,473,-1,316,473,318,-1,318,473,475,-1,318,475,320,-1,320,475,477,-1,320,477,322,-1,322,477,479,-1,322,479,190,-1,190,479,188,-1,470,185,479,-1,479,185,187,-1,479,187,188,-1,181,180,525,-1,525,180,470,-1,525,470,526,-1,526,470,478,-1,526,478,527,-1,527,478,476,-1,527,476,528,-1,528,476,474,-1,528,474,529,-1,529,474,472,-1,529,472,290,-1,290,472,279,-1,290,289,529,-1,529,289,480,-1,529,480,528,-1,528,480,482,-1,528,482,527,-1,527,482,484,-1,527,484,526,-1,526,484,486,-1,526,486,525,-1,525,486,488,-1,525,488,181,-1,181,488,183,-1,469,178,488,-1,488,178,184,-1,488,184,183,-1,176,179,530,-1,530,179,469,-1,530,469,531,-1,531,469,487,-1,531,487,532,-1,532,487,485,-1,532,485,533,-1,533,485,483,-1,533,483,534,-1,534,483,481,-1,534,481,278,-1,278,481,288,-1,278,277,534,-1,534,277,535,-1,534,535,533,-1,533,535,536,-1,533,536,532,-1,532,536,537,-1,532,537,531,-1,531,537,538,-1,531,538,530,-1,530,538,468,-1,530,468,176,-1,176,468,174,-1,171,173,467,-1,467,173,468,-1,467,468,539,-1,539,468,538,-1,539,538,540,-1,540,538,537,-1,540,537,541,-1,541,537,536,-1,541,536,542,-1,542,536,535,-1,542,535,287,-1,287,535,277,-1,168,170,466,-1,466,170,467,-1,466,467,543,-1,543,467,539,-1,543,539,544,-1,544,539,540,-1,544,540,545,-1,545,540,541,-1,545,541,546,-1,546,541,542,-1,546,542,239,-1,239,542,287,-1,164,163,547,-1,547,163,466,-1,547,466,548,-1,548,466,543,-1,548,543,549,-1,549,543,544,-1,549,544,550,-1,550,544,545,-1,550,545,551,-1,551,545,546,-1,551,546,243,-1,243,546,239,-1,243,284,551,-1,551,284,489,-1,551,489,550,-1,550,489,491,-1,550,491,549,-1,549,491,493,-1,549,493,548,-1,548,493,495,-1,548,495,547,-1,547,495,497,-1,547,497,164,-1,164,497,166,-1,465,161,497,-1,497,161,167,-1,497,167,166,-1,159,162,552,-1,552,162,465,-1,552,465,553,-1,553,465,496,-1,553,496,554,-1,554,496,494,-1,554,494,555,-1,555,494,492,-1,555,492,556,-1,556,492,490,-1,556,490,276,-1,276,490,283,-1,276,275,556,-1,556,275,498,-1,556,498,555,-1,555,498,500,-1,555,500,554,-1,554,500,502,-1,554,502,553,-1,553,502,504,-1,553,504,552,-1,552,504,506,-1,552,506,159,-1,159,506,157,-1,464,154,506,-1,506,154,156,-1,506,156,157,-1,150,149,557,-1,557,149,464,-1,557,464,558,-1,558,464,505,-1,558,505,559,-1,559,505,503,-1,559,503,560,-1,560,503,501,-1,560,501,561,-1,561,501,499,-1,561,499,273,-1,273,499,274,-1,273,272,561,-1,561,272,562,-1,561,562,560,-1,560,562,563,-1,560,563,559,-1,559,563,564,-1,559,564,558,-1,558,564,565,-1,558,565,557,-1,557,565,463,-1,557,463,150,-1,150,463,152,-1,147,153,515,-1,515,153,463,-1,515,463,513,-1,513,463,565,-1,513,565,511,-1,511,565,564,-1,511,564,509,-1,509,564,563,-1,509,563,507,-1,507,563,562,-1,507,562,271,-1,271,562,272,-1,462,144,515,-1,515,144,148,-1,515,148,147,-1,142,145,566,-1,566,145,462,-1,566,462,567,-1,567,462,514,-1,567,514,568,-1,568,514,512,-1,568,512,569,-1,569,512,510,-1,569,510,570,-1,570,510,508,-1,570,508,269,-1,269,508,270,-1,269,268,570,-1,570,268,516,-1,570,516,569,-1,569,516,518,-1,569,518,568,-1,568,518,520,-1,568,520,567,-1,567,520,522,-1,567,522,566,-1,566,522,524,-1,566,524,142,-1,142,524,140,-1,461,137,524,-1,524,137,139,-1,524,139,140,-1,133,132,571,-1,571,132,461,-1,571,461,572,-1,572,461,523,-1,572,523,573,-1,573,523,521,-1,573,521,574,-1,574,521,519,-1,574,519,575,-1,575,519,517,-1,575,517,266,-1,266,517,267,-1,266,265,575,-1,575,265,576,-1,575,576,574,-1,574,576,577,-1,574,577,573,-1,573,577,578,-1,573,578,572,-1,572,578,579,-1,572,579,571,-1,571,579,460,-1,571,460,133,-1,133,460,135,-1,130,136,459,-1,459,136,460,-1,459,460,580,-1,580,460,579,-1,580,579,581,-1,581,579,578,-1,581,578,582,-1,582,578,577,-1,582,577,583,-1,583,577,576,-1,583,576,240,-1,240,576,265,-1,127,131,584,-1,584,131,459,-1,584,459,585,-1,585,459,580,-1,585,580,586,-1,586,580,581,-1,586,581,587,-1,587,581,582,-1,587,582,588,-1,588,582,583,-1,588,583,241,-1,241,583,240,-1,241,242,588,-1,588,242,589,-1,588,589,587,-1,587,589,590,-1,587,590,586,-1,586,590,591,-1,586,591,585,-1,585,591,592,-1,585,592,584,-1,584,592,593,-1,584,593,127,-1,127,593,125,-1,242,246,390,-1,242,390,589,-1,589,390,391,-1,589,391,590,-1,590,391,392,-1,590,392,591,-1,591,392,393,-1,591,393,592,-1,592,393,394,-1,592,394,593,-1,593,394,236,-1,593,236,125,-1,594,595,596,-1,596,595,597,-1,598,599,600,-1,596,597,600,-1,600,597,601,-1,600,601,598,-1,602,603,604,-1,604,603,605,-1,604,605,594,-1,594,605,595,-1,601,597,605,-1,605,597,595,-1,599,598,602,-1,602,598,603,-1,603,598,605,-1,605,598,601,-1,606,607,608,-1,608,607,609,-1,610,611,612,-1,608,609,612,-1,612,609,613,-1,612,613,610,-1,614,615,616,-1,616,615,617,-1,616,617,606,-1,606,617,607,-1,613,609,617,-1,617,609,607,-1,610,615,611,-1,611,615,614,-1,615,610,617,-1,617,610,613,-1,
        ]
    }
}
Shape{
    appearance Appearance {
        material  Material 	{
            diffuseColor 1.0 1.0 1.0
            specularColor 0.8784313725490196 0.8784313725490196 0.8784313725490196
            ambientIntensity 0.2
            transparency 0
            shininess 0.5
        }
    }
    geometry IndexedFaceSet {
        ccw TRUE
        solid FALSE
        coord DEF co Coordinate {
            point [
                -0.3337 0.0886 0.0039, -0.4105 -0.1082 0.0039, -0.3337 0.0886 0.0, -0.4105 -0.1082 0.0, -0.3817 -0.1082 0.0039, -0.3817 -0.1082 0.0, -0.3618 -0.053 0.0039, -0.3618 -0.053 0.0, -0.2805 -0.053 0.0039, -0.2805 -0.053 0.0, -0.2617 -0.1082 0.0039, -0.2617 -0.1082 0.0, -0.2329 -0.1082 0.0039, -0.2329 -0.1082 0.0, -0.3073 0.0886 0.0039, -0.3073 0.0886 0.0, -0.2871 -0.0314 0.0039, -0.3529 -0.0314 0.0039, -0.3165 0.0508 0.0039, -0.3184 0.0576 0.0039, -0.3196 0.0646 0.0039, -0.3203 0.0646 0.0039, -0.3215 0.0576 0.0039, -0.3233 0.0508 0.0039, -0.2871 -0.0314 0.0, -0.3529 -0.0314 0.0, -0.3165 0.0508 0.0, -0.3184 0.0576 0.0, -0.3196 0.0646 0.0, -0.3203 0.0646 0.0, -0.3215 0.0576 0.0, -0.3233 0.0508 0.0, -0.1135 -0.1082 0.0039, -0.06 -0.1082 0.0039, -0.1135 -0.1082 0.0, -0.06 -0.1082 0.0, -0.06 0.0886 0.0039, -0.06 0.0886 0.0, -0.1156 0.0886 0.0039, -0.1156 0.0886 0.0, -0.2185 -0.0073 0.0039, -0.2185 -0.0073 0.0, -0.217 0.0112 0.0, -0.217 0.0112 0.0039, -0.2117 0.0306 0.0, -0.2117 0.0306 0.0039, -0.2026 0.0475 0.0, -0.2026 0.0475 0.0039, -0.1887 0.0629 0.0, -0.1887 0.0629 0.0039, -0.1885 0.0631 0.0, -0.1885 0.0631 0.0039, -0.167 0.0775 0.0, -0.167 0.0775 0.0039, -0.144 0.0856 0.0, -0.144 0.0856 0.0039, -0.1379 -0.1061 0.0, -0.1379 -0.1061 0.0039, -0.1606 -0.0994 0.0, -0.1606 -0.0994 0.0039, -0.1811 -0.0874 0.0, -0.1811 -0.0874 0.0039, -0.1973 -0.0719 0.0, -0.1973 -0.0719 0.0039, -0.2086 -0.0543 0.0, -0.2086 -0.0543 0.0039, -0.2157 -0.0337 0.0, -0.2157 -0.0337 0.0039, -0.1789 0.0394 0.0039, -0.1694 0.0495 0.0039, -0.155 0.0588 0.0039, -0.1388 0.0645 0.0039, -0.1155 0.067 0.0039, -0.0864 0.067 0.0039, -0.0864 -0.0866 0.0039, -0.1144 -0.0866 0.0039, -0.1351 -0.0847 0.0039, -0.1517 -0.0795 0.0039, -0.1651 -0.0716 0.0039, -0.1762 -0.0607 0.0039, -0.1845 -0.0471 0.0039, -0.1902 -0.0286 0.0039, -0.192 -0.0079 0.0039, -0.1904 0.0117 0.0039, -0.1858 0.0272 0.0039, -0.1155 0.067 0.0, -0.0864 0.067 0.0, -0.1388 0.0645 0.0, -0.155 0.0588 0.0, -0.1694 0.0495 0.0, -0.1789 0.0394 0.0, -0.1858 0.0272 0.0, -0.1904 0.0117 0.0, -0.192 -0.0079 0.0, -0.1902 -0.0286 0.0, -0.1845 -0.0471 0.0, -0.1762 -0.0607 0.0, -0.1651 -0.0716 0.0, -0.1517 -0.0795 0.0, -0.1351 -0.0847 0.0, -0.1144 -0.0866 0.0, -0.0864 -0.0866 0.0, -0.0216 -0.0866 0.0039, -0.0216 -0.1082 0.0039, -0.0216 -0.0866 0.0, -0.0216 -0.1082 0.0, 0.084 -0.1082 0.0039, 0.084 -0.1082 0.0, 0.084 0.0886 0.0039, 0.084 0.0886 0.0, -0.0168 0.0886 0.0039, -0.0168 0.0886 0.0, -0.0168 0.067 0.0039, -0.0168 0.067 0.0, 0.0576 0.067 0.0039, 0.0576 0.067 0.0, 0.0576 0.0022 0.0039, 0.0576 0.0022 0.0, -0.012 0.0022 0.0039, -0.012 0.0022 0.0, -0.012 -0.0194 0.0039, -0.012 -0.0194 0.0, 0.0576 -0.0194 0.0039, 0.0576 -0.0194 0.0, 0.0576 -0.0866 0.0039, 0.0576 -0.0866 0.0, 0.1224 -0.0764 0.0039, 0.1224 -0.098 0.0039, 0.1224 -0.0764 0.0, 0.1224 -0.098 0.0, 0.1434 -0.1067 0.0039, 0.1766 -0.1107 0.0039, 0.1766 -0.1107 0.0, 0.1712 -0.1106 0.0, 0.1712 -0.1106 0.0039, 0.1633 -0.1095 0.0, 0.1434 -0.1067 0.0, 0.2689 -0.0135 0.0039, 0.2689 -0.0135 0.0, 0.267 -0.0363 0.0, 0.267 -0.0363 0.0039, 0.261 -0.0572 0.0, 0.261 -0.0572 0.0039, 0.2506 -0.0759 0.0, 0.2506 -0.0759 0.0039, 0.2358 -0.0915 0.0, 0.2358 -0.0915 0.0039, 0.2199 -0.1016 0.0, 0.2199 -0.1016 0.0039, 0.2009 -0.1081 0.0, 0.2009 -0.1081 0.0039, 0.1882 -0.1095 0.0, 0.1688 0.091 0.0039, 0.1688 0.091 0.0, 0.1885 0.0894 0.0, 0.1885 0.0894 0.0039, 0.2105 0.083 0.0, 0.2105 0.083 0.0039, 0.2292 0.0722 0.0, 0.2292 0.0722 0.0039, 0.2469 0.0552 0.0, 0.2469 0.0552 0.0039, 0.2585 0.0368 0.0, 0.2585 0.0368 0.0039, 0.266 0.0144 0.0, 0.266 0.0144 0.0039, 0.1224 0.0832 0.0039, 0.1224 0.0832 0.0, 0.1452 0.0894 0.0, 0.1452 0.0894 0.0039, 0.1224 0.0568 0.0039, 0.1224 0.0568 0.0, 0.1685 0.0694 0.0039, 0.1685 0.0694 0.0, 0.1446 0.0663 0.0, 0.1446 0.0663 0.0039, 0.2425 -0.0119 0.0039, 0.2425 -0.0119 0.0, 0.2415 0.0034 0.0, 0.2415 0.0034 0.0039, 0.2363 0.0245 0.0, 0.2363 0.0245 0.0039, 0.2282 0.0397 0.0, 0.2282 0.0397 0.0039, 0.2163 0.0528 0.0, 0.2163 0.0528 0.0039, 0.2026 0.0619 0.0, 0.2026 0.0619 0.0039, 0.1879 0.0672 0.0, 0.1879 0.0672 0.0039, 0.173 -0.089 0.0039, 0.173 -0.089 0.0, 0.1913 -0.087 0.0, 0.1913 -0.087 0.0039, 0.2057 -0.0817 0.0, 0.2057 -0.0817 0.0039, 0.2177 -0.0736 0.0, 0.2177 -0.0736 0.0039, 0.227 -0.0638 0.0, 0.227 -0.0638 0.0039, 0.2351 -0.0502 0.0, 0.2351 -0.0502 0.0039, 0.2405 -0.0332 0.0, 0.2405 -0.0332 0.0039, 0.126 -0.0784 0.0, 0.126 -0.0784 0.0039, 0.1468 -0.0861 0.0, 0.1468 -0.0861 0.0039, 0.2857 -0.0866 0.0039, 0.2857 -0.1082 0.0039, 0.2857 -0.0866 0.0, 0.2857 -0.1082 0.0, 0.3865 -0.1082 0.0039, 0.3865 -0.1082 0.0, 0.3865 0.0886 0.0039, 0.3865 0.0886 0.0, 0.3601 0.0886 0.0039, 0.3601 0.0886 0.0, 0.3601 -0.0866 0.0039, 0.3601 -0.0866 0.0, 0.3601 -0.0866 0.0
            ]
        }
        coordIndex [
            0,1,2,-1,2,1,3,-1,1,4,3,-1,3,4,5,-1,4,6,5,-1,5,6,7,-1,6,8,7,-1,7,8,9,-1,8,10,9,-1,9,10,11,-1,10,12,11,-1,11,12,13,-1,12,14,13,-1,13,14,15,-1,14,0,15,-1,15,0,2,-1,16,8,17,-1,17,8,6,-1,18,14,16,-1,16,14,12,-1,16,12,8,-1,8,12,10,-1,18,19,14,-1,14,19,20,-1,14,20,0,-1,0,20,21,-1,0,21,22,-1,22,23,0,-1,0,23,17,-1,0,17,1,-1,1,17,6,-1,1,6,4,-1,16,17,24,-1,24,17,25,-1,18,16,26,-1,26,16,24,-1,18,26,27,-1,18,27,19,-1,19,27,28,-1,19,28,20,-1,21,20,29,-1,29,20,28,-1,21,29,30,-1,21,30,22,-1,22,30,31,-1,22,31,23,-1,17,23,25,-1,25,23,31,-1,32,33,34,-1,34,33,35,-1,33,36,35,-1,35,36,37,-1,36,38,37,-1,37,38,39,-1,40,41,42,-1,40,42,43,-1,43,42,44,-1,43,44,45,-1,45,44,46,-1,45,46,47,-1,47,46,48,-1,47,48,49,-1,49,48,50,-1,49,50,51,-1,51,50,52,-1,51,52,53,-1,53,52,54,-1,53,54,55,-1,55,54,39,-1,55,39,38,-1,32,34,56,-1,32,56,57,-1,57,56,58,-1,57,58,59,-1,59,58,60,-1,59,60,61,-1,61,60,62,-1,61,62,63,-1,63,62,64,-1,63,64,65,-1,65,64,66,-1,65,66,67,-1,67,66,41,-1,67,41,40,-1,45,47,68,-1,68,47,49,-1,68,49,69,-1,69,49,51,-1,69,51,70,-1,70,51,53,-1,70,53,71,-1,71,53,55,-1,71,55,72,-1,72,55,38,-1,72,38,73,-1,73,38,36,-1,73,36,74,-1,74,36,33,-1,74,33,75,-1,75,33,32,-1,75,32,76,-1,76,32,57,-1,76,57,77,-1,77,57,59,-1,77,59,78,-1,78,59,61,-1,78,61,79,-1,79,61,63,-1,79,63,80,-1,80,63,65,-1,80,65,81,-1,81,65,67,-1,81,67,82,-1,82,67,40,-1,82,40,83,-1,83,40,43,-1,83,43,84,-1,84,43,45,-1,84,45,68,-1,72,73,85,-1,85,73,86,-1,72,85,87,-1,72,87,71,-1,71,87,88,-1,71,88,70,-1,70,88,89,-1,70,89,69,-1,69,89,90,-1,69,90,68,-1,68,90,91,-1,68,91,84,-1,84,91,92,-1,84,92,83,-1,83,92,93,-1,83,93,82,-1,82,93,94,-1,82,94,81,-1,81,94,95,-1,81,95,80,-1,80,95,96,-1,80,96,79,-1,79,96,97,-1,79,97,78,-1,78,97,98,-1,78,98,77,-1,77,98,99,-1,77,99,76,-1,76,99,100,-1,76,100,75,-1,74,75,101,-1,101,75,100,-1,73,74,86,-1,86,74,101,-1,102,103,104,-1,104,103,105,-1,103,106,105,-1,105,106,107,-1,106,108,107,-1,107,108,109,-1,108,110,109,-1,109,110,111,-1,110,112,111,-1,111,112,113,-1,112,114,113,-1,113,114,115,-1,114,116,115,-1,115,116,117,-1,116,118,117,-1,117,118,119,-1,118,120,119,-1,119,120,121,-1,120,122,121,-1,121,122,123,-1,122,124,123,-1,123,124,125,-1,124,102,125,-1,125,102,104,-1,106,103,102,-1,102,124,106,-1,106,124,122,-1,106,122,108,-1,112,110,114,-1,114,110,108,-1,114,108,116,-1,116,108,122,-1,116,122,118,-1,118,122,120,-1,126,127,128,-1,128,127,129,-1,129,127,130,-1,131,132,133,-1,131,133,134,-1,134,133,135,-1,134,135,130,-1,130,135,136,-1,130,136,129,-1,137,138,139,-1,137,139,140,-1,140,139,141,-1,140,141,142,-1,142,141,143,-1,142,143,144,-1,144,143,145,-1,144,145,146,-1,146,145,147,-1,146,147,148,-1,148,147,149,-1,148,149,150,-1,150,149,131,-1,131,149,151,-1,131,151,132,-1,152,153,154,-1,152,154,155,-1,155,154,156,-1,155,156,157,-1,157,156,158,-1,157,158,159,-1,159,158,160,-1,159,160,161,-1,161,160,162,-1,161,162,163,-1,163,162,164,-1,163,164,165,-1,165,164,138,-1,165,138,137,-1,166,167,168,-1,166,168,169,-1,169,168,153,-1,169,153,152,-1,166,170,167,-1,167,170,171,-1,172,173,174,-1,172,174,175,-1,175,174,171,-1,175,171,170,-1,176,177,178,-1,176,178,179,-1,179,178,180,-1,179,180,181,-1,181,180,182,-1,181,182,183,-1,183,182,184,-1,183,184,185,-1,185,184,186,-1,185,186,187,-1,187,186,188,-1,187,188,189,-1,189,188,173,-1,189,173,172,-1,190,191,192,-1,190,192,193,-1,193,192,194,-1,193,194,195,-1,195,194,196,-1,195,196,197,-1,197,196,198,-1,197,198,199,-1,199,198,200,-1,199,200,201,-1,201,200,202,-1,201,202,203,-1,203,202,177,-1,203,177,176,-1,126,128,204,-1,126,204,205,-1,205,204,206,-1,205,206,207,-1,207,206,191,-1,207,191,190,-1,193,131,190,-1,190,131,134,-1,190,134,207,-1,207,134,130,-1,207,130,205,-1,205,130,127,-1,205,127,126,-1,170,166,175,-1,175,166,169,-1,175,169,172,-1,172,169,152,-1,172,152,189,-1,189,152,155,-1,189,155,187,-1,187,155,157,-1,187,157,185,-1,185,157,159,-1,185,159,183,-1,183,159,161,-1,183,161,181,-1,181,161,163,-1,181,163,179,-1,179,163,165,-1,179,165,176,-1,176,165,137,-1,176,137,203,-1,203,137,140,-1,203,140,201,-1,201,140,142,-1,201,142,199,-1,199,142,144,-1,199,144,197,-1,197,144,146,-1,197,146,195,-1,195,146,148,-1,195,148,193,-1,193,148,150,-1,193,150,131,-1,208,209,210,-1,210,209,211,-1,209,212,211,-1,211,212,213,-1,212,214,213,-1,213,214,215,-1,214,216,215,-1,215,216,217,-1,216,218,217,-1,217,218,219,-1,218,208,219,-1,219,208,210,-1,216,214,218,-1,218,214,212,-1,218,212,208,-1,208,212,209,-1,
        ]
    }
}
Shape{
    appearance Appearance {
        material  Material 	{
            diffuseColor 0.20784313725490197 0.20784313725490197 0.20784313725490197
            specularColor 0.01568627450980392 0.01568627450980392 0.01568627450980392
            ambientIntensity 0.2
            transparency 0
            shininess 0.5
        }
    }
    geometry IndexedFaceSet {
        ccw TRUE
        solid FALSE
        coord DEF co Coordinate {
            point [
                -0.2871 -0.0314 0.0, -0.3529 -0.0314 0.0, -0.3165 0.0508 0.0, -0.3233 0.0508 0.0, -0.3184 0.0576 0.0, -0.3215 0.0576 0.0, -0.3196 0.0646 0.0, -0.3203 0.0646 0.0, -0.0864 0.067 0.0, -0.0864 -0.0866 0.0, -0.1155 0.067 0.0, -0.1144 -0.0866 0.0, -0.1351 -0.0847 0.0, -0.192 -0.0079 0.0, -0.1904 0.0117 0.0, -0.1858 0.0272 0.0, -0.1388 0.0645 0.0, -0.1517 -0.0795 0.0, -0.1651 -0.0716 0.0, -0.1762 -0.0607 0.0, -0.1845 -0.0471 0.0, -0.1902 -0.0286 0.0, -0.1789 0.0394 0.0, -0.1694 0.0495 0.0, -0.155 0.0588 0.0, -0.155 0.0588 0.0
            ]
        }
        coordIndex [
            0,1,2,-1,2,1,3,-1,2,3,4,-1,4,3,5,-1,4,5,6,-1,6,5,7,-1,8,9,10,-1,10,9,11,-1,10,11,12,-1,13,14,10,-1,10,14,15,-1,10,15,16,-1,12,17,10,-1,10,17,18,-1,10,18,19,-1,19,20,10,-1,10,20,21,-1,10,21,13,-1,22,23,15,-1,15,23,24,-1,15,24,16,-1,
        ]
    }
}