#VRML V2.0 utf8
# 3D model generated by easyeda2kicad.py (https://github.com/uPesy/easyeda2kicad.py)

Shape{
    appearance Appearance {
        material  Material 	{
            diffuseColor 0.5019607843137255 0.5019607843137255 0.5019607843137255
            specularColor 0.25098039215686274 0.25098039215686274 0.25098039215686274
            ambientIntensity 0.2
            transparency 0
            shininess 0.5
        }
    }
    geometry IndexedFaceSet {
        ccw TRUE
        solid FALSE
        coord DEF co Coordinate {
            point [
                -1.0763 -2.0079 1.1989, -1.0763 -2.0079 1.146, -0.9479 -2.0079 1.146, -1.0763 -2.0079 1.4106, -1.0763 -2.0079 1.3715, -0.9479 -2.0079 1.3715, -0.9133 -2.0079 1.1989, -0.9399 -2.0079 1.1989, -0.9399 -2.0079 1.146, -0.8969 -2.0079 1.5451, -0.8867 -2.0079 1.5463, -0.9399 -2.0079 1.5463, -0.8625 -2.0079 1.4114, -0.8711 -2.0079 1.4106, -0.8269 -2.0079 1.4106, -0.802 -2.0079 1.5298, -0.802 -2.0079 1.4871, -0.7659 -2.0079 1.4871, -0.7936 -2.0079 1.1996, -0.7994 -2.0079 1.1989, -0.7659 -2.0079 1.1989, -0.8229 -2.0079 1.1993, -0.8269 -2.0079 1.2007, -0.8269 -2.0079 1.1989, -0.6349 -2.0079 1.3181, -0.6349 -2.0079 1.2754, -0.6099 -2.0079 1.2754, -1.7359 -2.0079 1.3613, -1.7339 -2.0079 1.3715, -1.813 -2.0079 1.3715, -1.1913 -2.0079 1.4407, -1.1657 -2.0079 1.4188, -1.0763 -2.0079 1.5463, -1.2979 -2.0079 1.5463, -1.2761 -2.0079 1.5317, -1.2451 -2.0079 1.4959, -1.2249 -2.0079 1.4567, -1.2195 -2.0079 1.4549, -1.366 -2.0079 1.5769, -1.3184 -2.0079 1.5601, -1.0763 -2.0079 1.7717, -1.496 -2.0079 1.5583, -1.4523 -2.0079 1.5752, -1.813 -2.0079 1.7717, -1.4052 -2.0079 1.581, -1.6917 -2.0079 1.4586, -1.6834 -2.0079 1.4663, -1.813 -2.0079 1.5463, -1.6516 -2.0079 1.4877, -1.6162 -2.0079 1.5004, -1.5826 -2.0079 1.5041, -1.5153 -2.0079 1.5463, -1.519 -2.0079 1.544, -1.5413 -2.0079 1.5249, -1.5717 -2.0079 1.5035, -1.5608 -2.0079 1.5022, -1.813 -2.0079 1.4106, -1.7285 -2.0079 1.3988, -1.7229 -2.0079 1.4106, -1.7126 -2.0079 1.4324, -1.6205 -2.0079 1.2015, -1.6367 -2.0079 1.2066, -1.813 -2.0079 1.1989, -1.6705 -2.0079 1.2242, -1.6964 -2.0079 1.247, -1.6999 -2.0079 1.2509, -1.7199 -2.0079 1.2815, -1.7326 -2.0079 1.317, -1.7363 -2.0079 1.3504, -1.5784 -2.0079 1.1497, -1.5969 -2.0079 1.1637, -1.813 -2.0079 1.146, -1.611 -2.0079 1.1812, -1.6193 -2.0079 1.1989, -1.5304 -2.0079 1.137, -1.813 -2.0079 0.0, -1.5075 -2.0079 1.1398, -1.0763 -2.0079 0.0, -1.4911 -2.0079 1.146, -1.5341 -2.0079 1.137, -1.5565 -2.0079 1.1405, -1.5696 -2.0079 1.146, -1.4415 -2.0079 1.1989, -1.4415 -2.0079 1.1987, -1.4527 -2.0079 1.1775, -1.4674 -2.0079 1.161, -1.4863 -2.0079 1.1479, -1.1661 -2.0079 1.2423, -1.1928 -2.0079 1.2198, -1.1478 -2.0079 1.2675, -1.4592 -2.0079 1.2954, -1.3321 -2.0079 1.3618, -1.4758 -2.0079 1.3105, -1.4959 -2.0079 1.3213, -1.1902 -2.0079 1.3397, -1.1947 -2.0079 1.3579, -1.202 -2.0079 1.3715, -1.6742 -2.0079 1.3715, -1.3135 -2.0079 1.2575, -1.3027 -2.0079 1.3115, -1.32 -2.0079 1.255, -1.3259 -2.0079 1.251, -1.3132 -2.0079 1.2003, -1.3195 -2.0079 1.2026, -1.3257 -2.0079 1.2069, -1.3285 -2.0079 1.2097, -1.6686 -2.0079 1.3146, -1.6572 -2.0079 1.2952, -1.6091 -2.0079 1.2855, -1.6402 -2.0079 1.2777, -1.6196 -2.0079 1.265, -1.574 -2.0079 1.3169, -1.5934 -2.0079 1.3034, -1.6765 -2.0079 1.3523, -1.6754 -2.0079 1.3379, -1.3065 -2.0079 1.2584, -1.3056 -2.0079 1.2583, -1.3027 -2.0079 1.2577, -1.2218 -2.0079 1.2059, -1.2524 -2.0079 1.1996, -1.3084 -2.0079 1.1996, -1.553 -2.0079 1.3249, -1.5304 -2.0079 1.3277, -1.5188 -2.0079 1.327, -1.1351 -2.0079 1.3626, -1.1309 -2.0079 1.3324, -1.131 -2.0079 1.3285, -1.1356 -2.0079 1.2974, -1.3359 -2.0079 1.229, -1.3358 -2.0079 1.2316, -1.4355 -2.0079 1.2413, -1.3341 -2.0079 1.2389, -1.3307 -2.0079 1.2456, -1.3326 -2.0079 1.2156, -1.335 -2.0079 1.2221, -1.436 -2.0079 1.2221, -1.4355 -2.0079 1.2318, -1.209 -2.0079 1.2813, -1.1986 -2.0079 1.2961, -1.192 -2.0079 1.313, -1.1898 -2.0079 1.3315, -1.3008 -2.0079 1.2575, -1.2581 -2.0079 1.2575, -1.2411 -2.0079 1.2607, -1.2244 -2.0079 1.2684, -1.2104 -2.0079 1.2799, -1.2714 -2.0079 1.4055, -1.6656 -2.0079 1.3964, -1.6737 -2.0079 1.3753, -1.2638 -2.0079 1.4055, -1.2035 -2.0079 1.3743, -1.2145 -2.0079 1.3866, -1.2292 -2.0079 1.3969, -1.2458 -2.0079 1.4032, -1.3102 -2.0079 1.4851, -1.3167 -2.0079 1.4911, -1.5313 -2.0079 1.433, -1.2896 -2.0079 1.4588, -1.6557 -2.0079 1.4106, -1.5383 -2.0079 1.4368, -1.2724 -2.0079 1.4106, -1.2759 -2.0079 1.4278, -1.3435 -2.0079 1.5093, -1.3733 -2.0079 1.5204, -1.5177 -2.0079 1.4616, -1.4042 -2.0079 1.5241, -1.5596 -2.0079 1.4445, -1.5816 -2.0079 1.4472, -1.5914 -2.0079 1.4467, -1.4395 -2.0079 1.5195, -1.4705 -2.0079 1.5068, -1.4968 -2.0079 1.4873, -1.6148 -2.0079 1.4412, -1.636 -2.0079 1.43, -1.6524 -2.0079 1.4153, -1.1599 -2.0079 1.4106, -1.1465 -2.0079 1.3917, -1.1386 -2.0079 1.3715, -0.5803 -2.0079 1.2153, -0.5803 -2.0079 1.2, -0.5677 -2.0079 1.1989, -0.6099 -2.0079 1.1989, -0.5871 -2.0079 1.2601, -0.6099 -2.0079 1.2601, -0.6099 -2.0079 1.2153, -0.6349 -2.0079 1.2601, -0.6349 -2.0079 1.2153, -0.5871 -2.0079 1.2754, -0.5833 -2.0079 1.3181, -0.6099 -2.0079 1.3181, -0.6099 -2.0079 1.2, -0.6521 -2.0079 1.2, -0.6611 -2.0079 1.1989, -0.6521 -2.0079 1.3335, -0.9272 -2.0079 1.2454, -0.9246 -2.0079 1.2724, -0.9305 -2.0079 1.2406, -0.9328 -2.0079 1.2347, -0.8346 -2.0079 1.2206, -0.8573 -2.0079 1.2614, -0.8346 -2.0079 1.2034, -0.8573 -2.0079 1.2, -0.8823 -2.0079 1.2051, -0.8884 -2.0079 1.2011, -0.874 -2.0079 1.2, -0.8946 -2.0079 1.1989, -0.8876 -2.0079 1.2833, -0.8933 -2.0079 1.284, -0.9023 -2.0079 1.2567, -0.9137 -2.0079 1.1989, -0.9201 -2.0079 1.2014, -0.9257 -2.0079 1.2053, -0.9221 -2.0079 1.2499, -0.915 -2.0079 1.2535, -0.913 -2.0079 1.2797, -0.9025 -2.0079 1.2831, -0.9274 -2.0079 1.207, -0.9309 -2.0079 1.212, -0.933 -2.0079 1.2176, -0.8286 -2.0079 1.2169, -0.8269 -2.0079 1.2162, -0.8269 -2.0079 1.2516, -0.874 -2.0079 1.2148, -0.8745 -2.0079 1.2148, -0.877 -2.0079 1.2108, -0.9339 -2.0079 1.2256, -0.9338 -2.0079 1.2275, -0.9399 -2.0079 1.3715, -0.9246 -2.0079 1.2887, -0.9212 -2.0079 1.2906, -0.9088 -2.0079 1.2955, -0.8918 -2.0079 1.2975, -0.8338 -2.0079 1.2631, -0.859 -2.0079 1.2755, -0.8345 -2.0079 1.2696, -0.874 -2.0079 1.2606, -0.8746 -2.0079 1.2679, -0.8763 -2.0079 1.2739, -0.8783 -2.0079 1.2774, -0.8917 -2.0079 1.2975, -0.8799 -2.0079 1.2962, -0.8733 -2.0079 1.2939, -0.8271 -2.0079 1.2517, -0.8298 -2.0079 1.2545, -0.832 -2.0079 1.258, -0.8808 -2.0079 1.2801, -0.8837 -2.0079 1.282, -0.834 -2.0079 1.275, -0.8322 -2.0079 1.2804, -0.8617 -2.0079 1.2826, -0.8293 -2.0079 1.285, -0.8653 -2.0079 1.2878, -0.868 -2.0079 1.2905, -0.8196 -2.0079 1.1989, -0.8269 -2.0079 1.146, -0.8088 -2.0079 1.1978, -0.7748 -2.0079 1.2933, -0.7748 -2.0079 1.2771, -0.8269 -2.0079 1.2871, -0.8269 -2.0079 1.3715, -0.8238 -2.0079 1.29, -0.8198 -2.0079 1.2925, -0.7711 -2.0079 1.2193, -0.7731 -2.0079 1.214, -0.7762 -2.0079 1.2096, -0.8108 -2.0079 1.2959, -0.7974 -2.0079 1.2975, -0.7659 -2.0079 1.3715, -0.7857 -2.0079 1.2965, -0.7759 -2.0079 1.2417, -0.7728 -2.0079 1.2371, -0.771 -2.0079 1.2322, -0.7703 -2.0079 1.226, -0.781 -2.0079 1.2054, -0.7848 -2.0079 1.203, -0.7991 -2.0079 1.284, -0.804 -2.0079 1.2836, -0.8173 -2.0079 1.2711, -0.8085 -2.0079 1.2824, -0.8122 -2.0079 1.2804, -0.8172 -2.0079 1.2689, -0.8165 -2.0079 1.2663, -0.8153 -2.0079 1.2641, -0.8137 -2.0079 1.2623, -0.8078 -2.0079 1.2586, -0.7874 -2.0079 1.2825, -0.7974 -2.0079 1.2541, -0.7779 -2.0079 1.2789, -0.791 -2.0079 1.2515, -0.7799 -2.0079 1.2453, -0.8148 -2.0079 1.2782, -0.8162 -2.0079 1.276, -0.817 -2.0079 1.2738, -0.8182 -2.0079 1.2128, -0.8092 -2.0079 1.2419, -0.8192 -2.0079 1.2465, -0.8072 -2.0079 1.2114, -0.8064 -2.0079 1.2114, -0.7983 -2.0079 1.2373, -0.7978 -2.0079 1.2124, -0.7874 -2.0079 1.2243, -0.7876 -2.0079 1.2264, -0.7935 -2.0079 1.214, -0.792 -2.0079 1.2149, -0.7901 -2.0079 1.2166, -0.7886 -2.0079 1.2188, -0.7878 -2.0079 1.2211, -0.7884 -2.0079 1.229, -0.7897 -2.0079 1.2312, -0.7917 -2.0079 1.2334, -0.5187 -2.0079 1.4482, -0.5677 -2.0079 1.4482, -0.5051 -2.0079 1.4117, -0.5677 -2.0079 1.4106, -0.4861 -2.0079 1.4117, 1.8898 -2.0079 1.4106, 1.8898 -2.0079 1.5463, -0.5369 -2.0079 1.5452, -0.5677 -2.0079 1.5463, -0.5743 -2.0079 1.4482, -0.5871 -2.0079 1.4117, -0.6099 -2.0079 1.4106, -0.6062 -2.0079 1.4117, -0.6099 -2.0079 1.5463, -0.5677 -2.0079 1.5127, -0.5553 -2.0079 1.5452, -0.6611 -2.0079 1.4106, -0.6627 -2.0079 1.4145, -0.6855 -2.0079 1.4117, -0.7348 -2.0079 1.4106, -0.7222 -2.0079 1.4117, -0.7222 -2.0079 1.5452, -0.7348 -2.0079 1.5463, -0.6841 -2.0079 1.5452, -0.6611 -2.0079 1.5463, -0.6172 -2.0079 1.4561, -0.6238 -2.0079 1.4423, -0.6291 -2.0079 1.523, -0.6208 -2.0079 1.5114, -0.6337 -2.0079 1.4304, -0.6475 -2.0079 1.4205, -0.6611 -2.0079 1.4152, -0.6337 -2.0079 1.5275, -0.6638 -2.0079 1.5429, -0.6611 -2.0079 1.542, -0.6477 -2.0079 1.5371, -0.6158 -2.0079 1.4987, -0.6136 -2.0079 1.4802, -0.614 -2.0079 1.4717, -0.7474 -2.0079 1.427, -0.7474 -2.0079 1.4117, -0.7659 -2.0079 1.4106, -0.7659 -2.0079 1.5463, -0.7505 -2.0079 1.5452, -0.7659 -2.0079 1.5452, -0.7505 -2.0079 1.5298, -0.7542 -2.0079 1.4718, -0.7659 -2.0079 1.4718, -0.7659 -2.0079 1.427, -0.802 -2.0079 1.4718, -0.802 -2.0079 1.427, -0.7542 -2.0079 1.4871, -0.7659 -2.0079 1.5298, -0.8192 -2.0079 1.5452, -0.8269 -2.0079 1.5463, -0.8192 -2.0079 1.4117, -0.8459 -2.0079 1.542, -0.8599 -2.0079 1.546, -0.8633 -2.0079 1.5463, -0.7659 -2.0079 1.4117, -0.8459 -2.0079 1.524, -0.8482 -2.0079 1.4161, -0.8741 -2.0079 1.4251, -0.859 -2.0079 1.4279, -0.8459 -2.0079 1.4338, -0.8459 -2.0079 1.4173, -0.8609 -2.0079 1.5299, -0.8774 -2.0079 1.5319, -0.9277 -2.0079 1.477, -0.9212 -2.0079 1.4479, -0.9146 -2.0079 1.4389, -0.912 -2.0079 1.4363, -0.9033 -2.0079 1.4301, -0.8938 -2.0079 1.4265, -0.8804 -2.0079 1.4248, -0.9137 -2.0079 1.5171, -0.921 -2.0079 1.507, -0.9046 -2.0079 1.5246, -0.8941 -2.0079 1.5294, -0.8825 -2.0079 1.5317, -0.9255 -2.0079 1.4955, -0.8474 -2.0079 1.5248, -0.9276 -2.0079 1.4721, -0.9255 -2.0079 1.4587, -0.8775 -2.0079 1.5474, -0.9399 -2.0079 1.7717, -0.8269 -2.0079 1.7717, -0.8773 -2.0079 1.5474, -0.9362 -2.0079 1.5151, -0.9265 -2.0079 1.5278, -0.9233 -2.0079 1.5309, -0.9109 -2.0079 1.5396, -0.9399 -2.0079 1.4457, -0.9431 -2.0079 1.454, -0.9479 -2.0079 1.4106, -0.9458 -2.0079 1.4759, -0.9456 -2.0079 1.4829, -0.9479 -2.0079 1.5463, -0.9426 -2.0079 1.5003, -0.9399 -2.0079 1.5067, -0.918 -2.0079 1.4188, -0.9287 -2.0079 1.4277, -0.9399 -2.0079 1.4106, -0.9377 -2.0079 1.4401, -0.8829 -2.0079 1.4095, -0.8909 -2.0079 1.4099, -0.8945 -2.0079 1.4106, -0.9054 -2.0079 1.4128, -0.8952 -2.0079 1.1987, -0.9037 -2.0079 1.1978, -0.6874 -2.0079 1.2953, -0.6701 -2.0079 1.2953, -0.6611 -2.0079 1.3715, -0.5833 -2.0079 1.3335, -0.5677 -2.0079 1.3715, -0.6099 -2.0079 1.3335, -0.6099 -2.0079 1.3715, -0.7081 -2.0079 1.1989, -0.718 -2.0079 1.2237, -0.7159 -2.0079 1.2159, -0.7155 -2.0079 1.2159, -0.7348 -2.0079 1.3715, -0.7348 -2.0079 1.2721, -0.7134 -2.0079 1.2236, -0.7147 -2.0079 1.2191, -0.7348 -2.0079 1.1989, -0.7348 -2.0079 1.2273, -0.7616 -2.0079 1.2953, -0.7429 -2.0079 1.2953, -0.7242 -2.0079 1.2002, -0.7248 -2.0079 1.1989, -0.7315 -2.0079 1.1829, -0.7659 -2.0079 1.146, -0.7581 -2.0079 1.1565, -0.7581 -2.0079 1.1714, -0.7547 -2.0079 1.1703, -0.7487 -2.0079 1.1695, -0.7455 -2.0079 1.1698, -0.7418 -2.0079 1.1709, -0.7386 -2.0079 1.1728, -0.7354 -2.0079 1.1762, -0.7348 -2.0079 1.1771, -0.7348 -2.0079 1.1582, -0.7401 -2.0079 1.156, -0.7348 -2.0079 1.146, -0.7474 -2.0079 1.1551, -0.751 -2.0079 1.1553, -0.6611 -2.0079 1.146, -0.7279 -2.0079 1.1628, -0.7336 -2.0079 1.1587, -0.7133 -2.0079 1.1856, -0.721 -2.0079 1.1708, -1.8898 -2.0079 0.0, -1.8898 -2.0079 1.146, -1.8898 -2.0079 1.1989, -1.8898 -2.0079 1.3715, -1.8898 -2.0079 1.4106, -1.8898 -2.0079 1.5463, -1.8898 -2.0079 1.7717, -0.9513 -2.0079 1.427, -0.9513 -2.0079 1.4117, -1.0217 -2.0079 1.4117, -1.0044 -2.0079 1.5452, -1.0044 -2.0079 1.427, -1.0217 -2.0079 1.5452, -0.9479 -2.0079 1.1989, -0.9499 -2.0079 1.2, -1.0217 -2.0079 1.2, -0.9499 -2.0079 1.2153, -0.9529 -2.0079 1.3181, -1.0044 -2.0079 1.2601, -1.0044 -2.0079 1.2153, -0.9567 -2.0079 1.2601, -0.9567 -2.0079 1.2754, -1.0044 -2.0079 1.2754, -1.0044 -2.0079 1.3181, -1.0217 -2.0079 1.3335, -0.9529 -2.0079 1.3335, -0.9479 -2.0079 1.7717, -0.7659 -2.0079 1.7717, -0.7348 -2.0079 1.7717, -0.6611 -2.0079 1.7717, -0.6099 -2.0079 1.7717, -0.5677 -2.0079 1.7717, 1.8898 -2.0079 1.7717, -0.5551 -2.0079 1.2, -0.5551 -2.0079 1.3335, -0.5184 -2.0079 1.2, -0.338 -2.0079 1.2, -0.319 -2.0079 1.2, 1.8898 -2.0079 1.1989, -0.3698 -2.0079 1.3335, 1.8898 -2.0079 1.3715, -0.3516 -2.0079 1.2365, -0.4072 -2.0079 1.2365, -0.42 -2.0079 1.2, -0.439 -2.0079 1.2, -0.3882 -2.0079 1.3335, -0.4566 -2.0079 1.2306, -0.4666 -2.0079 1.2187, -0.4804 -2.0079 1.2088, -0.4956 -2.0079 1.2028, -0.4666 -2.0079 1.3158, -0.4619 -2.0079 1.3113, -0.4537 -2.0079 1.2997, -0.4487 -2.0079 1.287, -0.517 -2.0079 1.3335, -0.4967 -2.0079 1.3312, -0.4805 -2.0079 1.3254, -0.4464 -2.0079 1.2685, -0.4468 -2.0079 1.26, -0.4501 -2.0079 1.2444, -0.6099 -2.0079 1.146, -0.5677 -2.0079 1.146, 1.8898 -2.0079 1.146, -0.9479 -2.0079 0.0, -0.9399 -2.0079 0.0, -0.8269 -2.0079 0.0, -0.7659 -2.0079 0.0, -0.7348 -2.0079 0.0, -0.6611 -2.0079 0.0, -0.6099 -2.0079 0.0, -0.5677 -2.0079 0.0, 1.8898 -2.0079 0.0, -2.0866 0.1969 0.5118, -2.0866 0.1969 0.3937, -2.0866 -0.1969 0.3937, -2.0866 1.811 0.0, -2.0866 0.9843 0.0, -2.0866 1.811 1.7717, -2.0866 0.9843 0.0354, -2.0866 -0.1969 0.5118, -2.0866 -0.5906 0.5118, -2.0866 -1.811 1.7717, -2.0866 0.5906 0.5118, -2.0866 0.5906 0.0354, -2.0866 -0.9843 0.0, -2.0866 -1.811 0.0, -2.0866 -0.9843 0.0354, -2.0866 -0.5906 0.0354, -1.1024 -0.9843 0.0, 2.0866 1.811 0.0, 2.0866 0.9843 0.0, 1.1024 0.9843 0.0, 1.9407 -2.0012 0.0, 1.1024 -0.9843 0.0, -1.1024 0.9843 0.0, -1.8898 2.0079 0.0, -2.0799 1.862 0.0, -2.029 -1.9502 0.0, -2.0602 -1.9094 0.0, -1.9882 -1.9815 0.0, -1.9407 -2.0012 0.0, -2.0799 -1.862 0.0, -2.0602 1.9094 0.0, -2.029 1.9502 0.0, -1.9407 2.0012 0.0, -1.9882 1.9815 0.0, 1.9882 1.9815 0.0, 2.029 1.9502 0.0, 1.8898 2.0079 0.0, 1.9407 2.0012 0.0, 2.0602 1.9094 0.0, 2.0799 1.862 0.0, 2.0866 -0.9843 0.0, 2.0866 -1.811 0.0, 2.0799 -1.862 0.0, 2.0602 -1.9094 0.0, 2.029 -1.9502 0.0, 1.9882 -1.9815 0.0, 2.0866 -0.1969 0.5118, 2.0866 -0.1969 0.3937, 2.0866 0.1969 0.3937, 2.0866 -1.811 1.7717, 2.0866 -0.9843 0.0354, 2.0866 0.1969 0.5118, 2.0866 0.5906 0.5118, 2.0866 1.811 1.7717, 2.0866 -0.5906 0.5118, 2.0866 -0.5906 0.0354, 2.0866 0.9843 0.0354, 2.0866 0.5906 0.0354, 1.8898 2.0079 1.7717, -1.8898 2.0079 1.7717, 2.0419 -1.8518 1.811, 2.0472 -1.811 1.811, 1.8898 -1.9685 1.811, 2.0472 1.811 1.811, -1.8898 -1.9685 1.811, 1.8898 1.9685 1.811, -1.8898 1.9685 1.811, -2.0472 1.811 1.811, -1.9305 1.9631 1.811, -1.9685 1.9474 1.811, -1.9685 -1.9474 1.811, -2.0472 -1.811 1.811, -2.0011 -1.9224 1.811, -2.0419 -1.8518 1.811, -2.0261 -1.8898 1.811, 1.9305 -1.9631 1.811, 1.9685 -1.9474 1.811, 2.0011 -1.9224 1.811, 2.0011 1.9224 1.811, 1.9685 1.9474 1.811, 2.0261 1.8898 1.811, 1.9305 1.9631 1.811, 2.0419 1.8518 1.811, -1.9305 -1.9631 1.811, -2.0011 1.9224 1.811, -2.0261 1.8898 1.811, -2.0419 1.8518 1.811, 2.0261 -1.8898 1.811, 2.0864 -0.5906 0.0354, 1.1024 -0.9843 0.0354, 2.0864 0.5906 0.0354, 1.1024 0.9843 0.0354, -1.1024 -0.9843 0.0354, -1.1024 0.9843 0.0354, -2.0864 0.5906 0.0354, -2.0864 -0.5906 0.0354, -2.0799 -1.862 1.7717, -2.0602 -1.9094 1.7717, -2.029 -1.9502 1.7717, -1.9882 -1.9815 1.7717, -1.9407 -2.0012 1.7717, -1.9407 2.0012 1.7717, -1.9882 1.9815 1.7717, -2.029 1.9502 1.7717, -2.0602 1.9094 1.7717, -2.0799 1.862 1.7717, 1.9407 -2.0012 1.7717, 1.9882 -1.9815 1.7717, 2.029 -1.9502 1.7717, 2.0602 -1.9094 1.7717, 2.0799 -1.862 1.7717, 2.0799 1.862 1.7717, 2.0602 1.9094 1.7717, 2.029 1.9502 1.7717, 1.9882 1.9815 1.7717, 1.9407 2.0012 1.7717, 1.9407 2.0012 1.7717
            ]
        }
        coordIndex [
            0,1,2,-1,3,4,5,-1,6,7,8,-1,9,10,11,-1,12,13,14,-1,15,16,17,-1,18,19,20,-1,21,22,23,-1,24,25,26,-1,27,28,29,-1,30,31,32,-1,32,31,3,-1,33,34,32,-1,32,34,35,-1,35,36,32,-1,32,36,37,-1,32,37,30,-1,38,39,40,-1,41,42,43,-1,43,42,40,-1,40,42,44,-1,40,44,38,-1,45,46,47,-1,46,48,47,-1,47,48,49,-1,47,49,50,-1,41,43,51,-1,51,43,47,-1,51,47,52,-1,52,47,50,-1,52,50,53,-1,53,50,54,-1,53,54,55,-1,29,28,56,-1,28,57,56,-1,56,57,58,-1,56,58,47,-1,47,58,59,-1,47,59,45,-1,60,61,62,-1,61,63,62,-1,62,63,64,-1,62,64,65,-1,65,66,62,-1,62,66,67,-1,62,67,29,-1,29,67,68,-1,29,68,27,-1,69,70,71,-1,71,70,72,-1,71,72,62,-1,62,72,73,-1,62,73,60,-1,74,75,76,-1,76,75,77,-1,76,77,78,-1,74,79,75,-1,75,79,80,-1,75,80,71,-1,71,80,81,-1,71,81,69,-1,0,82,1,-1,1,82,83,-1,1,83,84,-1,84,85,1,-1,1,85,86,-1,1,86,78,-1,87,88,0,-1,87,0,89,-1,90,91,92,-1,92,91,93,-1,94,95,91,-1,91,95,96,-1,91,96,97,-1,98,99,100,-1,100,99,101,-1,102,103,82,-1,82,103,104,-1,82,104,105,-1,106,107,108,-1,108,107,109,-1,108,109,110,-1,111,97,112,-1,112,97,113,-1,112,113,108,-1,108,113,114,-1,108,114,106,-1,98,115,99,-1,99,115,116,-1,99,116,117,-1,88,118,0,-1,0,118,119,-1,0,119,82,-1,82,119,120,-1,82,120,102,-1,111,121,97,-1,97,121,122,-1,97,122,91,-1,91,122,123,-1,91,123,93,-1,124,125,4,-1,4,125,126,-1,4,126,0,-1,0,126,127,-1,0,127,89,-1,128,129,130,-1,130,129,131,-1,130,131,99,-1,99,131,132,-1,99,132,101,-1,105,133,82,-1,82,133,134,-1,82,134,135,-1,135,134,128,-1,135,128,136,-1,136,128,130,-1,137,138,99,-1,99,138,139,-1,99,139,91,-1,91,139,140,-1,91,140,94,-1,117,141,99,-1,99,141,142,-1,99,142,143,-1,143,144,99,-1,99,144,145,-1,99,145,137,-1,146,147,148,-1,148,97,146,-1,146,97,96,-1,146,96,149,-1,149,96,150,-1,150,151,149,-1,149,151,152,-1,149,152,153,-1,154,155,156,-1,154,156,157,-1,158,156,159,-1,147,146,158,-1,158,146,160,-1,158,160,156,-1,156,160,161,-1,156,161,157,-1,155,162,156,-1,156,162,163,-1,156,163,164,-1,164,163,165,-1,159,166,158,-1,158,166,167,-1,158,167,168,-1,169,170,165,-1,165,170,171,-1,165,171,164,-1,172,173,168,-1,168,173,174,-1,168,174,158,-1,31,175,3,-1,3,175,176,-1,3,176,4,-1,4,176,177,-1,4,177,124,-1,178,179,180,-1,180,179,181,-1,182,183,184,-1,184,183,185,-1,184,185,186,-1,184,178,182,-1,182,178,180,-1,182,180,187,-1,187,180,188,-1,187,188,26,-1,26,188,189,-1,26,189,24,-1,179,190,181,-1,181,190,191,-1,181,191,192,-1,192,191,193,-1,194,195,196,-1,196,195,197,-1,198,199,200,-1,200,199,201,-1,200,201,22,-1,202,203,204,-1,204,203,205,-1,204,205,201,-1,206,207,208,-1,6,209,7,-1,7,209,210,-1,7,210,211,-1,194,212,195,-1,195,212,213,-1,195,213,214,-1,214,213,208,-1,214,208,215,-1,215,208,207,-1,211,216,7,-1,7,216,217,-1,7,217,218,-1,219,220,221,-1,222,223,204,-1,204,223,224,-1,204,224,202,-1,218,225,7,-1,7,225,226,-1,7,226,227,-1,227,226,197,-1,227,197,228,-1,228,197,195,-1,228,229,227,-1,227,229,230,-1,227,230,231,-1,219,221,198,-1,199,232,233,-1,233,232,234,-1,235,236,208,-1,208,236,237,-1,208,237,238,-1,231,239,227,-1,227,239,240,-1,227,240,241,-1,221,242,198,-1,198,242,243,-1,198,243,199,-1,199,243,244,-1,199,244,232,-1,238,245,208,-1,208,245,246,-1,208,246,206,-1,234,247,233,-1,233,247,248,-1,233,248,249,-1,249,248,250,-1,249,250,251,-1,251,250,252,-1,21,23,253,-1,253,23,254,-1,253,254,255,-1,256,257,20,-1,250,258,259,-1,259,258,260,-1,259,260,261,-1,262,263,20,-1,20,263,264,-1,261,265,259,-1,259,265,266,-1,259,266,267,-1,267,266,268,-1,267,268,256,-1,269,270,257,-1,257,270,271,-1,257,271,20,-1,20,271,272,-1,20,272,262,-1,264,273,20,-1,20,273,274,-1,20,274,18,-1,275,276,277,-1,277,276,278,-1,277,278,279,-1,277,280,275,-1,275,280,281,-1,275,281,282,-1,282,283,275,-1,275,283,284,-1,275,284,285,-1,285,284,286,-1,285,286,287,-1,287,286,288,-1,287,288,257,-1,257,288,289,-1,257,289,269,-1,290,291,279,-1,279,291,292,-1,279,292,277,-1,293,294,220,-1,220,294,295,-1,220,295,221,-1,293,296,294,-1,294,296,297,-1,294,297,298,-1,298,297,299,-1,298,300,301,-1,299,302,298,-1,298,302,303,-1,298,303,304,-1,304,305,298,-1,298,305,306,-1,298,306,300,-1,301,307,298,-1,298,307,308,-1,298,308,309,-1,310,311,312,-1,312,311,313,-1,312,313,314,-1,315,316,317,-1,317,316,318,-1,311,319,313,-1,313,319,320,-1,313,320,321,-1,321,320,322,-1,321,322,323,-1,323,322,324,-1,323,324,318,-1,318,324,325,-1,318,325,317,-1,326,327,328,-1,326,328,329,-1,330,331,332,-1,332,331,333,-1,332,333,334,-1,335,336,321,-1,337,338,323,-1,336,339,321,-1,321,339,340,-1,321,340,326,-1,326,340,341,-1,326,341,327,-1,337,323,342,-1,333,343,334,-1,334,343,344,-1,334,344,323,-1,323,344,345,-1,323,345,342,-1,338,346,323,-1,323,346,347,-1,323,347,321,-1,321,347,348,-1,321,348,335,-1,349,350,329,-1,329,350,351,-1,332,352,353,-1,353,352,354,-1,328,330,329,-1,329,330,332,-1,329,332,355,-1,355,332,353,-1,356,357,358,-1,358,357,359,-1,358,359,360,-1,358,349,356,-1,356,349,329,-1,356,329,361,-1,361,329,355,-1,361,355,17,-1,17,355,362,-1,17,362,15,-1,354,352,363,-1,363,352,364,-1,363,364,365,-1,366,364,367,-1,367,364,368,-1,350,369,351,-1,351,369,365,-1,351,365,14,-1,14,365,364,-1,14,364,370,-1,370,364,366,-1,12,14,371,-1,372,373,370,-1,370,373,374,-1,370,374,14,-1,14,374,375,-1,14,375,371,-1,376,377,378,-1,379,380,370,-1,370,380,381,-1,370,381,382,-1,382,383,370,-1,370,383,384,-1,370,384,372,-1,385,386,387,-1,387,386,388,-1,377,389,378,-1,378,389,388,-1,378,388,390,-1,390,388,386,-1,376,378,391,-1,391,378,392,-1,391,392,370,-1,370,392,393,-1,370,393,379,-1,10,394,395,-1,395,394,396,-1,396,394,397,-1,396,397,368,-1,11,398,399,-1,399,400,11,-1,11,400,401,-1,11,401,9,-1,402,403,404,-1,405,406,407,-1,407,406,408,-1,407,408,11,-1,11,408,409,-1,11,409,398,-1,410,411,412,-1,412,411,413,-1,414,415,227,-1,227,415,416,-1,227,416,412,-1,412,416,417,-1,412,417,410,-1,13,414,259,-1,259,414,227,-1,259,227,250,-1,250,227,241,-1,250,241,252,-1,22,201,23,-1,23,201,205,-1,23,205,254,-1,254,205,418,-1,254,418,8,-1,8,418,419,-1,8,419,6,-1,420,421,422,-1,423,424,425,-1,425,424,426,-1,425,426,193,-1,193,426,422,-1,193,422,192,-1,192,422,421,-1,192,421,427,-1,428,429,430,-1,422,431,420,-1,420,431,432,-1,420,432,433,-1,433,432,428,-1,433,428,434,-1,434,428,430,-1,435,436,20,-1,20,436,437,-1,256,20,267,-1,267,20,437,-1,267,437,431,-1,431,437,438,-1,431,438,432,-1,439,436,440,-1,440,436,435,-1,440,435,441,-1,442,443,444,-1,255,254,19,-1,19,254,442,-1,19,442,20,-1,20,442,444,-1,20,444,435,-1,435,444,445,-1,435,445,446,-1,446,447,435,-1,435,447,448,-1,435,448,449,-1,449,450,435,-1,435,450,451,-1,435,451,441,-1,452,453,454,-1,454,453,455,-1,454,455,442,-1,442,455,456,-1,442,456,443,-1,457,458,454,-1,454,458,459,-1,454,459,452,-1,427,460,457,-1,457,460,461,-1,457,461,458,-1,462,75,463,-1,463,75,71,-1,463,71,464,-1,464,71,62,-1,464,62,465,-1,465,62,29,-1,465,29,466,-1,466,29,56,-1,466,56,467,-1,467,56,47,-1,467,47,468,-1,468,47,43,-1,469,470,404,-1,404,470,471,-1,472,407,32,-1,403,405,404,-1,404,405,407,-1,404,407,469,-1,469,407,472,-1,469,472,473,-1,5,404,3,-1,3,404,471,-1,3,471,32,-1,32,471,474,-1,32,474,472,-1,475,476,477,-1,476,475,478,-1,478,475,5,-1,478,5,479,-1,480,481,482,-1,482,481,478,-1,482,478,483,-1,483,478,479,-1,483,479,484,-1,484,479,485,-1,2,475,0,-1,0,475,477,-1,0,477,4,-1,4,477,486,-1,4,486,5,-1,5,486,487,-1,5,487,479,-1,10,395,11,-1,11,395,488,-1,11,488,407,-1,407,488,40,-1,407,40,32,-1,32,40,39,-1,32,39,33,-1,2,8,475,-1,475,8,7,-1,475,7,5,-1,5,7,227,-1,5,227,404,-1,404,227,412,-1,404,412,402,-1,402,412,413,-1,13,259,14,-1,14,259,267,-1,14,267,351,-1,351,267,431,-1,351,431,329,-1,329,431,422,-1,329,422,326,-1,326,422,426,-1,326,426,321,-1,321,426,424,-1,321,424,313,-1,368,364,396,-1,396,364,352,-1,396,352,489,-1,489,352,332,-1,489,332,490,-1,490,332,334,-1,490,334,491,-1,491,334,323,-1,491,323,492,-1,492,323,318,-1,492,318,493,-1,493,318,316,-1,493,316,494,-1,495,496,424,-1,423,188,424,-1,424,188,180,-1,424,180,495,-1,495,180,497,-1,498,180,499,-1,499,180,500,-1,499,500,501,-1,501,500,502,-1,503,504,498,-1,498,504,505,-1,498,505,180,-1,180,505,506,-1,180,506,497,-1,317,314,315,-1,315,314,313,-1,315,313,502,-1,502,313,424,-1,502,424,501,-1,501,424,507,-1,506,508,509,-1,509,510,506,-1,506,510,511,-1,506,511,497,-1,512,513,507,-1,507,513,514,-1,507,514,515,-1,496,516,424,-1,424,516,517,-1,424,517,507,-1,507,517,518,-1,507,518,512,-1,515,519,507,-1,507,519,520,-1,507,520,506,-1,506,520,521,-1,506,521,508,-1,427,457,192,-1,192,457,522,-1,192,522,181,-1,181,522,523,-1,181,523,180,-1,180,523,524,-1,180,524,500,-1,78,77,1,-1,1,77,525,-1,1,525,2,-1,2,525,526,-1,2,526,8,-1,8,526,527,-1,8,527,254,-1,254,527,528,-1,254,528,442,-1,442,528,529,-1,442,529,454,-1,454,529,530,-1,454,530,457,-1,457,530,531,-1,457,531,522,-1,522,531,532,-1,522,532,523,-1,523,532,533,-1,523,533,524,-1,534,535,536,-1,537,538,539,-1,539,538,540,-1,541,542,543,-1,536,541,534,-1,534,541,543,-1,534,543,544,-1,544,543,539,-1,544,539,545,-1,545,539,540,-1,546,547,548,-1,548,547,543,-1,548,543,549,-1,549,543,542,-1,546,550,547,-1,547,550,533,-1,551,552,553,-1,554,533,555,-1,555,533,550,-1,555,550,553,-1,553,550,556,-1,538,537,557,-1,557,537,558,-1,559,560,561,-1,561,560,562,-1,533,462,547,-1,547,462,562,-1,547,562,563,-1,563,562,560,-1,558,564,557,-1,557,564,565,-1,557,565,566,-1,566,565,567,-1,568,569,553,-1,538,557,556,-1,556,557,570,-1,556,570,553,-1,553,570,571,-1,553,571,568,-1,569,572,553,-1,553,572,573,-1,553,573,551,-1,574,575,555,-1,555,575,576,-1,555,576,577,-1,577,578,555,-1,555,578,579,-1,555,579,554,-1,580,581,582,-1,575,574,583,-1,583,574,584,-1,585,586,587,-1,582,585,580,-1,580,585,587,-1,580,587,588,-1,588,587,583,-1,588,583,589,-1,589,583,584,-1,552,551,590,-1,590,551,587,-1,590,587,591,-1,591,587,586,-1,592,570,593,-1,593,570,557,-1,594,595,596,-1,596,595,597,-1,596,597,598,-1,599,600,601,-1,601,600,602,-1,601,602,603,-1,604,605,606,-1,606,605,607,-1,606,607,608,-1,609,610,611,-1,612,613,614,-1,614,613,615,-1,614,615,616,-1,616,615,599,-1,616,599,597,-1,597,599,601,-1,597,601,598,-1,598,601,605,-1,598,605,617,-1,617,605,604,-1,603,618,601,-1,601,618,619,-1,601,619,620,-1,609,611,596,-1,596,611,621,-1,596,621,594,-1,589,584,622,-1,622,584,623,-1,622,623,624,-1,624,623,625,-1,624,625,591,-1,591,625,590,-1,623,584,555,-1,555,584,574,-1,625,553,590,-1,590,553,552,-1,625,623,553,-1,553,623,555,-1,548,626,546,-1,546,626,550,-1,626,627,550,-1,550,627,556,-1,627,540,556,-1,556,540,538,-1,545,540,628,-1,628,540,627,-1,628,627,629,-1,629,627,626,-1,629,626,549,-1,549,626,548,-1,543,547,563,-1,543,563,630,-1,630,563,560,-1,630,560,631,-1,631,560,559,-1,631,559,632,-1,632,559,561,-1,632,561,633,-1,633,561,562,-1,633,562,634,-1,562,462,463,-1,562,463,634,-1,634,463,464,-1,634,464,465,-1,465,466,634,-1,634,466,467,-1,634,467,468,-1,593,557,566,-1,593,566,635,-1,635,566,567,-1,635,567,636,-1,636,567,565,-1,636,565,637,-1,637,565,564,-1,637,564,638,-1,638,564,558,-1,638,558,639,-1,639,558,537,-1,639,537,539,-1,524,533,554,-1,494,316,640,-1,640,316,315,-1,315,502,640,-1,640,502,500,-1,640,500,524,-1,524,554,640,-1,640,554,579,-1,640,579,641,-1,641,579,578,-1,641,578,642,-1,642,578,577,-1,642,577,643,-1,643,577,576,-1,643,576,644,-1,644,576,575,-1,644,575,583,-1,587,551,573,-1,587,573,645,-1,645,573,572,-1,645,572,646,-1,646,572,569,-1,646,569,647,-1,647,569,568,-1,647,568,648,-1,648,568,571,-1,648,571,649,-1,649,571,570,-1,649,570,592,-1,
        ]
    }
}
Shape{
    appearance Appearance {
        material  Material 	{
            diffuseColor 1.0 1.0 1.0
            specularColor 0.5019607843137255 0.5019607843137255 0.5019607843137255
            ambientIntensity 0.2
            transparency 0
            shininess 0.5
        }
    }
    geometry IndexedFaceSet {
        ccw TRUE
        solid FALSE
        coord DEF co Coordinate {
            point [
                2.1627 0.5906 0.4535, 2.1654 0.5906 0.4331, 2.0866 0.5906 0.5118, 2.126 0.5906 0.5013, 2.1423 0.5906 0.4887, 2.1548 0.5906 0.4724, 2.1613 0.5906 0.0088, 2.1495 0.5906 -0.0197, 2.0866 0.5906 0.0354, 2.0843 0.5906 0.026, 2.0864 0.5906 0.0354, 2.1654 0.5906 0.0394, 2.107 0.5906 0.5091, 1.378 0.5906 -0.0787, 1.378 0.5906 0.0, 2.0472 0.5906 -0.0787, 2.0472 0.5906 0.0, 2.0778 0.5906 -0.0747, 2.0568 0.5906 0.0012, 2.1063 0.5906 -0.0629, 2.0658 0.5906 0.0046, 2.1308 0.5906 -0.0441, 2.0737 0.5906 0.0102, 2.0799 0.5906 0.0175, 2.1495 -0.5906 -0.0197, 2.0866 -0.5906 0.0354, 2.0864 -0.5906 0.0354, 2.1654 -0.5906 0.4331, 2.0866 -0.5906 0.5118, 2.1654 -0.5906 0.0394, 2.1613 -0.5906 0.0088, 2.1548 -0.5906 0.4724, 2.1423 -0.5906 0.4887, 2.126 -0.5906 0.5013, 2.1627 -0.5906 0.4535, 2.107 -0.5906 0.5091, 1.378 -0.5906 0.0, 1.378 -0.5906 -0.0787, 2.0472 -0.5906 0.0, 2.0472 -0.5906 -0.0787, 2.0568 -0.5906 0.0012, 2.0778 -0.5906 -0.0747, 2.0658 -0.5906 0.0046, 2.1063 -0.5906 -0.0629, 2.0737 -0.5906 0.0102, 2.1308 -0.5906 -0.0441, 2.0799 -0.5906 0.0175, 2.0843 -0.5906 0.026, 2.1654 -0.1969 0.4331, 2.1654 -0.1969 0.3937, 2.1654 0.1969 0.3937, 2.1654 0.1969 0.4331, 2.107 0.1969 0.5091, 2.0866 0.1969 0.5118, 2.0866 0.1969 0.3937, 2.1627 0.1969 0.4535, 2.1548 0.1969 0.4724, 2.1423 0.1969 0.4887, 2.126 0.1969 0.5013, 2.0866 -0.1969 0.3937, 2.1627 -0.1969 0.4535, 2.126 -0.1969 0.5013, 2.107 -0.1969 0.5091, 2.0866 -0.1969 0.5118, 2.1423 -0.1969 0.4887, 2.1548 -0.1969 0.4724, -2.1627 0.5906 0.4535, -2.1548 0.5906 0.4724, -2.0866 0.5906 0.5118, -2.1495 0.5906 -0.0197, -2.0866 0.5906 0.0354, -2.0864 0.5906 0.0354, -2.1613 0.5906 0.0088, -2.1654 0.5906 0.0394, -2.1654 0.5906 0.4331, -2.1423 0.5906 0.4887, -2.126 0.5906 0.5013, -2.107 0.5906 0.5091, -1.378 0.5906 0.0, -1.378 0.5906 -0.0787, -2.0472 0.5906 0.0, -2.0472 0.5906 -0.0787, -2.0568 0.5906 0.0012, -2.0778 0.5906 -0.0747, -2.0658 0.5906 0.0046, -2.1063 0.5906 -0.0629, -2.0737 0.5906 0.0102, -2.1308 0.5906 -0.0441, -2.0799 0.5906 0.0175, -2.0843 0.5906 0.026, -2.1627 -0.5906 0.4535, -2.1654 -0.5906 0.4331, -2.0866 -0.5906 0.5118, -2.1613 -0.5906 0.0088, -2.1495 -0.5906 -0.0197, -2.0866 -0.5906 0.0354, -2.0843 -0.5906 0.026, -2.0864 -0.5906 0.0354, -2.107 -0.5906 0.5091, -2.126 -0.5906 0.5013, -2.1654 -0.5906 0.0394, -2.1423 -0.5906 0.4887, -2.1548 -0.5906 0.4724, -1.378 -0.5906 -0.0787, -1.378 -0.5906 0.0, -2.0472 -0.5906 -0.0787, -2.0472 -0.5906 0.0, -2.0778 -0.5906 -0.0747, -2.0568 -0.5906 0.0012, -2.1063 -0.5906 -0.0629, -2.0658 -0.5906 0.0046, -2.1308 -0.5906 -0.0441, -2.0737 -0.5906 0.0102, -2.0799 -0.5906 0.0175, -2.1654 0.1969 0.4331, -2.1654 0.1969 0.3937, -2.1654 -0.1969 0.3937, -2.1654 -0.1969 0.4331, -2.0866 0.1969 0.3937, -2.1627 0.1969 0.4535, -2.126 0.1969 0.5013, -2.107 0.1969 0.5091, -2.0866 0.1969 0.5118, -2.1423 0.1969 0.4887, -2.1548 0.1969 0.4724, -2.0866 -0.1969 0.3937, -2.1627 -0.1969 0.4535, -2.1548 -0.1969 0.4724, -2.1423 -0.1969 0.4887, -2.126 -0.1969 0.5013, -2.107 -0.1969 0.5091, -2.0866 -0.1969 0.5118, -2.0866 -0.1969 0.5118
            ]
        }
        coordIndex [
            0,1,2,-1,3,4,5,-1,6,7,8,-1,8,7,9,-1,8,9,10,-1,2,1,8,-1,8,1,11,-1,8,11,6,-1,0,2,5,-1,5,2,12,-1,5,12,3,-1,13,14,15,-1,15,14,16,-1,15,16,17,-1,17,16,18,-1,17,18,19,-1,19,18,20,-1,19,20,21,-1,21,20,22,-1,21,22,7,-1,7,22,23,-1,7,23,9,-1,24,25,26,-1,27,28,29,-1,29,28,25,-1,29,25,30,-1,30,25,24,-1,31,32,33,-1,27,34,28,-1,28,34,31,-1,28,31,35,-1,35,31,33,-1,36,37,38,-1,38,37,39,-1,38,39,40,-1,40,39,41,-1,40,41,42,-1,42,41,43,-1,42,43,44,-1,44,43,45,-1,44,45,46,-1,46,45,24,-1,46,24,47,-1,47,24,26,-1,13,15,37,-1,37,15,39,-1,14,13,36,-1,36,13,37,-1,16,14,38,-1,38,14,36,-1,16,38,18,-1,18,38,40,-1,18,40,20,-1,20,40,42,-1,20,42,22,-1,22,42,44,-1,22,44,23,-1,23,44,46,-1,23,46,9,-1,9,46,47,-1,9,47,10,-1,10,47,26,-1,48,27,49,-1,49,27,29,-1,49,29,50,-1,50,29,11,-1,50,11,51,-1,51,11,1,-1,11,29,30,-1,11,30,6,-1,6,30,24,-1,6,24,7,-1,7,24,45,-1,7,45,21,-1,21,45,43,-1,21,43,19,-1,19,43,41,-1,19,41,17,-1,17,41,39,-1,17,39,15,-1,52,53,54,-1,50,51,54,-1,54,51,55,-1,54,55,56,-1,56,57,54,-1,54,57,58,-1,54,58,52,-1,49,50,59,-1,59,50,54,-1,48,49,59,-1,48,59,60,-1,61,59,62,-1,62,59,63,-1,61,64,59,-1,59,64,65,-1,59,65,60,-1,51,1,0,-1,51,0,55,-1,55,0,5,-1,55,5,56,-1,56,5,4,-1,56,4,57,-1,57,4,3,-1,57,3,58,-1,58,3,12,-1,58,12,52,-1,52,12,2,-1,52,2,53,-1,27,48,60,-1,27,60,34,-1,34,60,65,-1,34,65,31,-1,31,65,64,-1,31,64,32,-1,32,64,61,-1,32,61,33,-1,33,61,62,-1,33,62,35,-1,35,62,63,-1,35,63,28,-1,66,67,68,-1,69,70,71,-1,69,72,70,-1,70,72,73,-1,70,73,68,-1,68,73,74,-1,68,74,66,-1,67,75,68,-1,68,75,76,-1,68,76,77,-1,78,79,80,-1,80,79,81,-1,80,81,82,-1,82,81,83,-1,82,83,84,-1,84,83,85,-1,84,85,86,-1,86,85,87,-1,86,87,88,-1,88,87,69,-1,88,69,89,-1,89,69,71,-1,90,91,92,-1,93,94,95,-1,95,94,96,-1,95,96,97,-1,92,98,99,-1,92,91,95,-1,95,91,100,-1,95,100,93,-1,99,101,92,-1,92,101,102,-1,92,102,90,-1,103,104,105,-1,105,104,106,-1,105,106,107,-1,107,106,108,-1,107,108,109,-1,109,108,110,-1,109,110,111,-1,111,110,112,-1,111,112,94,-1,94,112,113,-1,94,113,96,-1,81,79,105,-1,105,79,103,-1,79,78,103,-1,103,78,104,-1,78,80,104,-1,104,80,106,-1,71,97,89,-1,89,97,96,-1,89,96,88,-1,88,96,113,-1,88,113,86,-1,86,113,112,-1,86,112,84,-1,84,112,110,-1,84,110,82,-1,82,110,108,-1,82,108,80,-1,80,108,106,-1,114,74,115,-1,115,74,73,-1,115,73,116,-1,116,73,100,-1,116,100,117,-1,117,100,91,-1,81,105,107,-1,81,107,83,-1,83,107,109,-1,83,109,85,-1,85,109,111,-1,85,111,87,-1,87,111,94,-1,87,94,69,-1,69,94,93,-1,69,93,72,-1,72,93,100,-1,72,100,73,-1,114,115,118,-1,114,118,119,-1,120,118,121,-1,121,118,122,-1,120,123,118,-1,118,123,124,-1,118,124,119,-1,115,116,118,-1,118,116,125,-1,125,116,117,-1,117,126,125,-1,125,126,127,-1,125,127,128,-1,128,129,125,-1,125,129,130,-1,125,130,131,-1,122,68,77,-1,122,77,121,-1,121,77,76,-1,121,76,120,-1,120,76,75,-1,120,75,123,-1,123,75,67,-1,123,67,124,-1,124,67,66,-1,124,66,119,-1,119,66,74,-1,119,74,114,-1,92,131,130,-1,92,130,98,-1,98,130,129,-1,98,129,99,-1,99,129,128,-1,99,128,101,-1,101,128,127,-1,101,127,102,-1,102,127,126,-1,102,126,90,-1,90,126,117,-1,90,117,91,-1,
        ]
    }
}
Shape{
    appearance Appearance {
        material  Material 	{
            diffuseColor 0.0 0.0 0.0
            specularColor 0.0 0.0 0.0
            ambientIntensity 0.2
            transparency 0
            shininess 0.5
        }
    }
    geometry IndexedFaceSet {
        ccw TRUE
        solid FALSE
        coord DEF co Coordinate {
            point [
                -0.9513 -2.0118 1.427, -0.9513 -2.0118 1.4117, -0.9513 -2.0079 1.427, -0.9513 -2.0079 1.4117, -1.0044 -2.0118 1.427, -1.0044 -2.0079 1.427, -1.0044 -2.0118 1.5452, -1.0044 -2.0079 1.5452, -1.0217 -2.0118 1.5452, -1.0217 -2.0079 1.5452, -1.0217 -2.0118 1.4117, -1.0217 -2.0079 1.4117, -0.8829 -2.0118 1.4095, -0.8829 -2.0079 1.4095, -0.8625 -2.0118 1.4114, -0.8711 -2.0079 1.4106, -0.8625 -2.0079 1.4114, -0.8482 -2.0079 1.4161, -0.8482 -2.0118 1.4161, -0.8459 -2.0079 1.4173, -0.8459 -2.0118 1.4173, -0.8459 -2.0118 1.4338, -0.8459 -2.0079 1.4338, -0.859 -2.0079 1.4279, -0.859 -2.0118 1.4279, -0.8741 -2.0079 1.4251, -0.8741 -2.0118 1.4251, -0.8804 -2.0079 1.4248, -0.8804 -2.0118 1.4248, -0.8938 -2.0079 1.4265, -0.8938 -2.0118 1.4265, -0.9033 -2.0079 1.4301, -0.9033 -2.0118 1.4301, -0.912 -2.0079 1.4363, -0.912 -2.0118 1.4363, -0.9146 -2.0079 1.4389, -0.9146 -2.0118 1.4389, -0.9212 -2.0079 1.4479, -0.9212 -2.0118 1.4479, -0.9255 -2.0079 1.4587, -0.9255 -2.0118 1.4587, -0.9276 -2.0079 1.4721, -0.9276 -2.0118 1.4721, -0.9277 -2.0079 1.477, -0.9277 -2.0118 1.477, -0.9255 -2.0079 1.4955, -0.9255 -2.0118 1.4955, -0.921 -2.0079 1.507, -0.921 -2.0118 1.507, -0.9137 -2.0079 1.5171, -0.9137 -2.0118 1.5171, -0.9046 -2.0079 1.5246, -0.9046 -2.0118 1.5246, -0.8941 -2.0079 1.5294, -0.8941 -2.0118 1.5294, -0.8825 -2.0079 1.5317, -0.8825 -2.0118 1.5317, -0.8774 -2.0079 1.5319, -0.8774 -2.0118 1.5319, -0.8609 -2.0079 1.5299, -0.8609 -2.0118 1.5299, -0.8474 -2.0079 1.5248, -0.8474 -2.0118 1.5248, -0.8459 -2.0079 1.524, -0.8459 -2.0118 1.524, -0.8459 -2.0118 1.542, -0.8459 -2.0079 1.542, -0.8775 -2.0079 1.5474, -0.8775 -2.0118 1.5474, -0.8773 -2.0118 1.5474, -0.8599 -2.0079 1.546, -0.8599 -2.0118 1.546, -0.8633 -2.0079 1.5463, -0.8773 -2.0079 1.5474, -0.8867 -2.0079 1.5463, -0.8969 -2.0118 1.5451, -0.8969 -2.0079 1.5451, -0.9109 -2.0079 1.5396, -0.9109 -2.0118 1.5396, -0.9233 -2.0079 1.5309, -0.9233 -2.0118 1.5309, -0.9265 -2.0079 1.5278, -0.9265 -2.0118 1.5278, -0.9362 -2.0079 1.5151, -0.9399 -2.0079 1.5067, -0.9426 -2.0118 1.5003, -0.9362 -2.0118 1.5151, -0.9426 -2.0079 1.5003, -0.9456 -2.0079 1.4829, -0.9456 -2.0118 1.4829, -0.9458 -2.0079 1.4759, -0.9458 -2.0118 1.4759, -0.9431 -2.0079 1.454, -0.9399 -2.0079 1.4457, -0.9377 -2.0118 1.4401, -0.9431 -2.0118 1.454, -0.9377 -2.0079 1.4401, -0.9287 -2.0079 1.4277, -0.9287 -2.0118 1.4277, -0.9054 -2.0079 1.4128, -0.918 -2.0118 1.4188, -0.918 -2.0079 1.4188, -0.8945 -2.0079 1.4106, -0.8909 -2.0118 1.4099, -0.9054 -2.0118 1.4128, -0.8909 -2.0079 1.4099, -0.7474 -2.0118 1.427, -0.7474 -2.0118 1.4117, -0.7474 -2.0079 1.427, -0.7474 -2.0079 1.4117, -0.802 -2.0079 1.427, -0.802 -2.0118 1.427, -0.7659 -2.0079 1.427, -0.802 -2.0118 1.4718, -0.802 -2.0079 1.4718, -0.7542 -2.0118 1.4718, -0.7659 -2.0079 1.4718, -0.7542 -2.0079 1.4718, -0.7542 -2.0118 1.4871, -0.7542 -2.0079 1.4871, -0.802 -2.0079 1.4871, -0.802 -2.0118 1.4871, -0.7659 -2.0079 1.4871, -0.802 -2.0118 1.5298, -0.802 -2.0079 1.5298, -0.7505 -2.0079 1.5298, -0.7505 -2.0118 1.5298, -0.7659 -2.0079 1.5298, -0.7505 -2.0118 1.5452, -0.7505 -2.0079 1.5452, -0.8192 -2.0079 1.5452, -0.8192 -2.0118 1.5452, -0.7659 -2.0079 1.5452, -0.8192 -2.0118 1.4117, -0.8192 -2.0079 1.4117, -0.7659 -2.0079 1.4117, -0.6337 -2.0118 1.4304, -0.6484 -2.0118 1.4386, -0.6475 -2.0118 1.4205, -0.6572 -2.0118 1.4329, -0.6627 -2.0118 1.4145, -0.6686 -2.0118 1.4288, -0.6855 -2.0118 1.4117, -0.6856 -2.0118 1.427, -0.7222 -2.0118 1.4117, -0.705 -2.0118 1.427, -0.7222 -2.0118 1.5452, -0.705 -2.0118 1.5298, -0.6841 -2.0118 1.5452, -0.6848 -2.0118 1.5298, -0.6638 -2.0118 1.5429, -0.6677 -2.0118 1.5279, -0.6477 -2.0118 1.5371, -0.6561 -2.0118 1.5238, -0.6337 -2.0118 1.5275, -0.6463 -2.0118 1.5173, -0.6291 -2.0118 1.523, -0.6427 -2.0118 1.5137, -0.6208 -2.0118 1.5114, -0.6375 -2.0118 1.5063, -0.6158 -2.0118 1.4987, -0.6337 -2.0118 1.4966, -0.6136 -2.0118 1.4802, -0.6317 -2.0118 1.4797, -0.614 -2.0118 1.4717, -0.6321 -2.0118 1.4713, -0.6172 -2.0118 1.4561, -0.6347 -2.0118 1.459, -0.6238 -2.0118 1.4423, -0.6393 -2.0118 1.4491, -0.6459 -2.0118 1.4409, -0.6855 -2.0079 1.4117, -0.7222 -2.0079 1.4117, -0.6337 -2.0079 1.4304, -0.6627 -2.0079 1.4145, -0.6611 -2.0079 1.4152, -0.6475 -2.0079 1.4205, -0.6238 -2.0079 1.4423, -0.6172 -2.0079 1.4561, -0.614 -2.0079 1.4717, -0.6136 -2.0079 1.4802, -0.6158 -2.0079 1.4987, -0.6208 -2.0079 1.5114, -0.6291 -2.0079 1.523, -0.6337 -2.0079 1.5275, -0.6477 -2.0079 1.5371, -0.6611 -2.0079 1.542, -0.6638 -2.0079 1.5429, -0.6841 -2.0079 1.5452, -0.7222 -2.0079 1.5452, -0.6848 -2.0079 1.5298, -0.705 -2.0079 1.5298, -0.705 -2.0079 1.427, -0.6856 -2.0079 1.427, -0.6459 -2.0079 1.4409, -0.6484 -2.0079 1.4386, -0.6572 -2.0079 1.4329, -0.6686 -2.0079 1.4288, -0.6317 -2.0079 1.4797, -0.6321 -2.0079 1.4713, -0.6347 -2.0079 1.459, -0.6393 -2.0079 1.4491, -0.6463 -2.0079 1.5173, -0.6427 -2.0079 1.5137, -0.6375 -2.0079 1.5063, -0.6337 -2.0079 1.4966, -0.6677 -2.0079 1.5279, -0.6561 -2.0079 1.5238, -0.6561 -2.0079 1.5238
            ]
        }
        coordIndex [
            0,1,2,-1,2,1,3,-1,4,0,5,-1,5,0,2,-1,6,4,7,-1,7,4,5,-1,8,6,9,-1,9,6,7,-1,10,8,11,-1,11,8,9,-1,1,10,3,-1,3,10,11,-1,6,8,4,-1,4,8,10,-1,4,10,0,-1,0,10,1,-1,12,13,14,-1,14,13,15,-1,15,16,14,-1,14,16,17,-1,14,17,18,-1,18,17,19,-1,18,19,20,-1,21,20,22,-1,22,20,19,-1,21,22,23,-1,21,23,24,-1,24,23,25,-1,24,25,26,-1,26,25,27,-1,26,27,28,-1,28,27,29,-1,28,29,30,-1,30,29,31,-1,30,31,32,-1,32,31,33,-1,32,33,34,-1,34,33,35,-1,34,35,36,-1,36,35,37,-1,36,37,38,-1,38,37,39,-1,38,39,40,-1,40,39,41,-1,40,41,42,-1,42,41,43,-1,42,43,44,-1,44,43,45,-1,44,45,46,-1,46,45,47,-1,46,47,48,-1,48,47,49,-1,48,49,50,-1,50,49,51,-1,50,51,52,-1,52,51,53,-1,52,53,54,-1,54,53,55,-1,54,55,56,-1,56,55,57,-1,56,57,58,-1,58,57,59,-1,58,59,60,-1,60,59,61,-1,60,61,62,-1,62,61,63,-1,62,63,64,-1,65,64,66,-1,66,64,63,-1,67,68,69,-1,65,66,70,-1,65,70,71,-1,71,70,72,-1,71,72,69,-1,69,72,73,-1,69,73,67,-1,68,67,74,-1,68,74,75,-1,74,76,75,-1,75,76,77,-1,75,77,78,-1,78,77,79,-1,78,79,80,-1,80,79,81,-1,80,81,82,-1,82,81,83,-1,84,85,83,-1,83,85,86,-1,83,86,82,-1,84,87,85,-1,85,87,88,-1,85,88,89,-1,89,88,90,-1,89,90,91,-1,91,90,92,-1,93,94,92,-1,92,94,95,-1,92,95,91,-1,93,96,94,-1,94,96,97,-1,94,97,98,-1,99,100,101,-1,101,100,98,-1,101,98,97,-1,102,103,99,-1,99,103,104,-1,99,104,100,-1,102,105,103,-1,103,105,13,-1,103,13,12,-1,62,64,65,-1,52,80,50,-1,50,80,82,-1,50,82,48,-1,48,82,86,-1,48,86,46,-1,62,65,60,-1,60,65,71,-1,60,71,58,-1,58,71,69,-1,58,69,56,-1,56,69,68,-1,56,68,54,-1,54,68,75,-1,54,75,52,-1,52,75,78,-1,52,78,80,-1,91,44,89,-1,89,44,46,-1,89,46,85,-1,85,46,86,-1,20,21,18,-1,18,21,24,-1,18,24,14,-1,14,24,26,-1,14,26,12,-1,12,26,28,-1,12,28,103,-1,103,28,30,-1,103,30,104,-1,104,30,32,-1,104,32,100,-1,100,32,34,-1,100,34,98,-1,98,34,36,-1,98,36,94,-1,94,36,38,-1,94,38,95,-1,95,38,40,-1,95,40,91,-1,91,40,42,-1,91,42,44,-1,106,107,108,-1,108,107,109,-1,110,111,112,-1,112,111,106,-1,112,106,108,-1,113,111,114,-1,114,111,110,-1,113,114,115,-1,115,114,116,-1,115,116,117,-1,118,115,119,-1,119,115,117,-1,120,121,122,-1,122,121,118,-1,122,118,119,-1,123,121,124,-1,124,121,120,-1,125,126,127,-1,127,126,123,-1,127,123,124,-1,128,126,129,-1,129,126,125,-1,130,131,132,-1,132,131,128,-1,132,128,129,-1,133,131,134,-1,134,131,130,-1,109,107,135,-1,135,107,133,-1,135,133,134,-1,133,107,106,-1,106,111,133,-1,133,111,113,-1,133,113,131,-1,126,128,123,-1,123,128,131,-1,123,131,121,-1,121,131,113,-1,121,113,118,-1,118,113,115,-1,136,137,138,-1,138,137,139,-1,138,139,140,-1,140,139,141,-1,140,141,142,-1,142,141,143,-1,142,143,144,-1,144,143,145,-1,144,145,146,-1,146,145,147,-1,146,147,148,-1,148,147,149,-1,148,149,150,-1,150,149,151,-1,150,151,152,-1,152,151,153,-1,152,153,154,-1,154,153,155,-1,154,155,156,-1,156,155,157,-1,156,157,158,-1,158,157,159,-1,158,159,160,-1,160,159,161,-1,160,161,162,-1,162,161,163,-1,162,163,164,-1,164,163,165,-1,164,165,166,-1,166,165,167,-1,166,167,168,-1,168,167,169,-1,168,169,136,-1,136,169,170,-1,136,170,137,-1,142,144,171,-1,171,144,172,-1,173,136,138,-1,142,171,174,-1,142,174,140,-1,140,174,175,-1,140,175,138,-1,138,175,176,-1,138,176,173,-1,136,173,177,-1,136,177,168,-1,168,177,178,-1,168,178,166,-1,166,178,179,-1,166,179,164,-1,164,179,180,-1,164,180,162,-1,162,180,181,-1,162,181,160,-1,160,181,182,-1,160,182,158,-1,158,182,183,-1,158,183,156,-1,156,183,184,-1,156,184,154,-1,154,184,185,-1,186,150,185,-1,185,150,152,-1,185,152,154,-1,186,187,150,-1,150,187,188,-1,150,188,148,-1,146,148,189,-1,189,148,188,-1,144,146,172,-1,172,146,189,-1,149,147,190,-1,190,147,191,-1,147,145,191,-1,191,145,192,-1,145,143,192,-1,192,143,193,-1,170,194,195,-1,170,195,137,-1,137,195,196,-1,137,196,139,-1,139,196,197,-1,139,197,141,-1,141,197,193,-1,141,193,143,-1,163,198,199,-1,163,199,165,-1,165,199,200,-1,165,200,167,-1,167,200,201,-1,167,201,169,-1,169,201,194,-1,169,194,170,-1,155,202,203,-1,155,203,157,-1,157,203,204,-1,157,204,159,-1,159,204,205,-1,159,205,161,-1,161,205,198,-1,161,198,163,-1,149,190,206,-1,149,206,151,-1,151,206,207,-1,151,207,153,-1,153,207,202,-1,153,202,155,-1,
        ]
    }
}
Shape{
    appearance Appearance {
        material  Material 	{
            diffuseColor 0.5019607843137255 0.5019607843137255 0.5019607843137255
            specularColor 0.25098039215686274 0.25098039215686274 0.25098039215686274
            ambientIntensity 0.2
            transparency 0
            shininess 0.5
        }
    }
    geometry IndexedFaceSet {
        ccw TRUE
        solid FALSE
        coord DEF co Coordinate {
            point [
                -0.705 -2.0079 1.5298, -0.705 -2.0079 1.427, -0.6848 -2.0079 1.5298, -0.6856 -2.0079 1.427, -0.6686 -2.0079 1.4288, -0.6572 -2.0079 1.4329, -0.6484 -2.0079 1.4386, -0.6459 -2.0079 1.4409, -0.6393 -2.0079 1.4491, -0.6347 -2.0079 1.459, -0.6321 -2.0079 1.4713, -0.6317 -2.0079 1.4797, -0.6337 -2.0079 1.4966, -0.6375 -2.0079 1.5063, -0.6427 -2.0079 1.5137, -0.6463 -2.0079 1.5173, -0.6677 -2.0079 1.5279, -0.6561 -2.0079 1.5238, -0.6561 -2.0079 1.5238
            ]
        }
        coordIndex [
            0,1,2,-1,2,1,3,-1,2,3,4,-1,4,5,2,-1,2,5,6,-1,2,6,7,-1,7,8,2,-1,2,8,9,-1,2,9,10,-1,10,11,2,-1,2,11,12,-1,2,12,13,-1,13,14,2,-1,2,14,15,-1,2,15,16,-1,16,15,17,-1,
        ]
    }
}
Shape{
    appearance Appearance {
        material  Material 	{
            diffuseColor 0.0 0.0 0.0
            specularColor 0.0 0.0 0.0
            ambientIntensity 0.2
            transparency 0
            shininess 0.5
        }
    }
    geometry IndexedFaceSet {
        ccw TRUE
        solid FALSE
        coord DEF co Coordinate {
            point [
                -0.5688 -2.0118 1.4633, -0.5743 -2.0118 1.4482, -0.5241 -2.0118 1.4633, -0.5187 -2.0118 1.4482, -0.5489 -2.0118 1.5188, -0.5553 -2.0118 1.5452, -0.6062 -2.0118 1.4117, -0.5871 -2.0118 1.4117, -0.5477 -2.0118 1.5228, -0.5467 -2.0118 1.5281, -0.5369 -2.0118 1.5452, -0.5463 -2.0118 1.5281, -0.5452 -2.0118 1.5225, -0.5442 -2.0118 1.5188, -0.4861 -2.0118 1.4117, -0.5051 -2.0118 1.4117, -0.5369 -2.0079 1.5452, -0.4861 -2.0079 1.4117, -0.5553 -2.0079 1.5452, -0.6062 -2.0079 1.4117, -0.5677 -2.0079 1.5127, -0.5871 -2.0079 1.4117, -0.5743 -2.0079 1.4482, -0.5187 -2.0079 1.4482, -0.5677 -2.0079 1.4482, -0.5051 -2.0079 1.4117, -0.5688 -2.0079 1.4633, -0.5241 -2.0079 1.4633, -0.5442 -2.0079 1.5188, -0.5463 -2.0079 1.5281, -0.5452 -2.0079 1.5225, -0.5467 -2.0079 1.5281, -0.5489 -2.0079 1.5188, -0.5477 -2.0079 1.5228, -0.5477 -2.0079 1.5228
            ]
        }
        coordIndex [
            0,1,2,-1,2,1,3,-1,4,5,0,-1,0,5,6,-1,0,6,1,-1,1,6,7,-1,4,8,5,-1,5,8,9,-1,5,9,10,-1,10,9,11,-1,10,11,12,-1,12,13,10,-1,10,13,2,-1,10,2,14,-1,14,2,3,-1,14,3,15,-1,10,14,16,-1,16,14,17,-1,5,10,18,-1,18,10,16,-1,19,6,20,-1,20,6,5,-1,20,5,18,-1,7,6,21,-1,21,6,19,-1,1,7,22,-1,22,7,21,-1,23,3,24,-1,24,3,1,-1,24,1,22,-1,15,3,25,-1,25,3,23,-1,14,15,17,-1,17,15,25,-1,0,2,26,-1,26,2,27,-1,2,13,27,-1,27,13,28,-1,11,29,30,-1,11,30,12,-1,12,30,28,-1,12,28,13,-1,11,9,29,-1,29,9,31,-1,4,32,33,-1,4,33,8,-1,8,33,31,-1,8,31,9,-1,4,0,32,-1,32,0,26,-1,
        ]
    }
}
Shape{
    appearance Appearance {
        material  Material 	{
            diffuseColor 0.5019607843137255 0.5019607843137255 0.5019607843137255
            specularColor 0.25098039215686274 0.25098039215686274 0.25098039215686274
            ambientIntensity 0.2
            transparency 0
            shininess 0.5
        }
    }
    geometry IndexedFaceSet {
        ccw TRUE
        solid FALSE
        coord DEF co Coordinate {
            point [
                -0.5463 -2.0079 1.5281, -0.5467 -2.0079 1.5281, -0.5452 -2.0079 1.5225, -0.5477 -2.0079 1.5228, -0.5442 -2.0079 1.5188, -0.5489 -2.0079 1.5188, -0.5241 -2.0079 1.4633, -0.5688 -2.0079 1.4633, -0.5688 -2.0079 1.4633
            ]
        }
        coordIndex [
            0,1,2,-1,2,1,3,-1,2,3,4,-1,4,3,5,-1,4,5,6,-1,6,5,7,-1,
        ]
    }
}
Shape{
    appearance Appearance {
        material  Material 	{
            diffuseColor 0.0 0.0 0.0
            specularColor 0.0 0.0 0.0
            ambientIntensity 0.2
            transparency 0
            shininess 0.5
        }
    }
    geometry IndexedFaceSet {
        ccw TRUE
        solid FALSE
        coord DEF co Coordinate {
            point [
                -0.9499 -2.0118 1.2153, -0.9499 -2.0118 1.2, -0.9499 -2.0079 1.2153, -0.9499 -2.0079 1.2, -1.0044 -2.0118 1.2153, -1.0044 -2.0079 1.2153, -1.0044 -2.0118 1.2601, -1.0044 -2.0079 1.2601, -0.9567 -2.0118 1.2601, -0.9567 -2.0079 1.2601, -0.9567 -2.0118 1.2754, -0.9567 -2.0079 1.2754, -1.0044 -2.0118 1.2754, -1.0044 -2.0079 1.2754, -1.0044 -2.0118 1.3181, -1.0044 -2.0079 1.3181, -0.9529 -2.0118 1.3181, -0.9529 -2.0079 1.3181, -0.9529 -2.0118 1.3335, -0.9529 -2.0079 1.3335, -1.0217 -2.0118 1.3335, -1.0217 -2.0079 1.3335, -1.0217 -2.0118 1.2, -1.0217 -2.0079 1.2, -0.8745 -2.0118 1.2148, -0.874 -2.0118 1.2148, -0.8751 -2.0118 1.2302, -0.874 -2.0118 1.2376, -0.8573 -2.0118 1.2614, -0.874 -2.0118 1.2387, -0.874 -2.0118 1.2479, -0.874 -2.0118 1.2, -0.8573 -2.0118 1.2, -0.9168 -2.0118 1.2296, -0.916 -2.0118 1.2334, -0.9305 -2.0118 1.2406, -0.8776 -2.0118 1.2242, -0.8812 -2.0118 1.2193, -0.877 -2.0118 1.2108, -0.8833 -2.0118 1.2172, -0.8823 -2.0118 1.2051, -0.888 -2.0118 1.2141, -0.8884 -2.0118 1.2011, -0.893 -2.0118 1.2122, -0.8952 -2.0118 1.1987, -0.8993 -2.0118 1.2115, -0.9037 -2.0118 1.1978, -0.905 -2.0118 1.2121, -0.9137 -2.0118 1.1989, -0.9088 -2.0118 1.2135, -0.9201 -2.0118 1.2014, -0.9121 -2.0118 1.2158, -0.9257 -2.0118 1.2053, -0.9135 -2.0118 1.2172, -0.9272 -2.0118 1.2454, -0.9145 -2.0118 1.2365, -0.9221 -2.0118 1.2499, -0.9125 -2.0118 1.239, -0.915 -2.0118 1.2535, -0.9246 -2.0118 1.2887, -0.9246 -2.0118 1.2724, -0.9212 -2.0118 1.2906, -0.913 -2.0118 1.2797, -0.9088 -2.0118 1.2955, -0.9025 -2.0118 1.2831, -0.8918 -2.0118 1.2975, -0.8933 -2.0118 1.284, -0.8917 -2.0118 1.2975, -0.8876 -2.0118 1.2833, -0.8799 -2.0118 1.2962, -0.8837 -2.0118 1.282, -0.8733 -2.0118 1.2939, -0.8808 -2.0118 1.2801, -0.9104 -2.0118 1.2406, -0.9066 -2.0118 1.2425, -0.9023 -2.0118 1.2567, -0.8963 -2.0118 1.2449, -0.874 -2.0118 1.2606, -0.9328 -2.0118 1.2347, -0.9338 -2.0118 1.2275, -0.9169 -2.0118 1.2269, -0.9339 -2.0118 1.2256, -0.9165 -2.0118 1.2231, -0.933 -2.0118 1.2176, -0.9154 -2.0118 1.22, -0.9309 -2.0118 1.212, -0.9274 -2.0118 1.207, -0.8746 -2.0118 1.2679, -0.859 -2.0118 1.2755, -0.8763 -2.0118 1.2739, -0.8617 -2.0118 1.2826, -0.8783 -2.0118 1.2774, -0.8653 -2.0118 1.2878, -0.868 -2.0118 1.2905, -0.8918 -2.0079 1.2975, -0.9088 -2.0079 1.2955, -0.9212 -2.0079 1.2906, -0.9246 -2.0079 1.2887, -0.9246 -2.0079 1.2724, -0.913 -2.0079 1.2797, -0.9025 -2.0079 1.2831, -0.8933 -2.0079 1.284, -0.8876 -2.0079 1.2833, -0.8837 -2.0079 1.282, -0.8808 -2.0079 1.2801, -0.8783 -2.0079 1.2774, -0.8763 -2.0079 1.2739, -0.8746 -2.0079 1.2679, -0.874 -2.0079 1.2606, -0.9023 -2.0079 1.2567, -0.915 -2.0079 1.2535, -0.9221 -2.0079 1.2499, -0.9272 -2.0079 1.2454, -0.9305 -2.0079 1.2406, -0.9328 -2.0079 1.2347, -0.9338 -2.0079 1.2275, -0.9339 -2.0079 1.2256, -0.933 -2.0079 1.2176, -0.9309 -2.0079 1.212, -0.9274 -2.0079 1.207, -0.9257 -2.0079 1.2053, -0.9037 -2.0079 1.1978, -0.9133 -2.0079 1.1989, -0.9137 -2.0079 1.1989, -0.9201 -2.0079 1.2014, -0.8952 -2.0079 1.1987, -0.8946 -2.0079 1.1989, -0.8884 -2.0079 1.2011, -0.8823 -2.0079 1.2051, -0.877 -2.0079 1.2108, -0.8745 -2.0079 1.2148, -0.874 -2.0079 1.2148, -0.874 -2.0079 1.2, -0.8573 -2.0079 1.2, -0.8573 -2.0079 1.2614, -0.859 -2.0079 1.2755, -0.8617 -2.0079 1.2826, -0.8653 -2.0079 1.2878, -0.868 -2.0079 1.2905, -0.8733 -2.0079 1.2939, -0.8799 -2.0079 1.2962, -0.8917 -2.0079 1.2975, -0.9125 -2.0079 1.239, -0.9104 -2.0079 1.2406, -0.9066 -2.0079 1.2425, -0.8963 -2.0079 1.2449, -0.9169 -2.0079 1.2269, -0.9168 -2.0079 1.2296, -0.916 -2.0079 1.2334, -0.9145 -2.0079 1.2365, -0.9121 -2.0079 1.2158, -0.9135 -2.0079 1.2172, -0.9154 -2.0079 1.22, -0.9165 -2.0079 1.2231, -0.8993 -2.0079 1.2115, -0.905 -2.0079 1.2121, -0.9088 -2.0079 1.2135, -0.8812 -2.0079 1.2193, -0.8833 -2.0079 1.2172, -0.888 -2.0079 1.2141, -0.893 -2.0079 1.2122, -0.874 -2.0079 1.2387, -0.874 -2.0079 1.2376, -0.8751 -2.0079 1.2302, -0.8776 -2.0079 1.2242, -0.874 -2.0079 1.2479, -0.874 -2.0079 1.2479
            ]
        }
        coordIndex [
            0,1,2,-1,2,1,3,-1,4,0,5,-1,5,0,2,-1,6,4,7,-1,7,4,5,-1,8,6,9,-1,9,6,7,-1,10,8,11,-1,11,8,9,-1,12,10,13,-1,13,10,11,-1,14,12,15,-1,15,12,13,-1,16,14,17,-1,17,14,15,-1,18,16,19,-1,19,16,17,-1,20,18,21,-1,21,18,19,-1,22,20,23,-1,23,20,21,-1,1,22,3,-1,3,22,23,-1,22,1,0,-1,0,4,22,-1,22,4,6,-1,22,6,20,-1,16,18,14,-1,14,18,20,-1,14,20,12,-1,12,20,6,-1,12,6,10,-1,10,6,8,-1,24,25,26,-1,27,28,29,-1,29,28,30,-1,31,32,25,-1,25,32,28,-1,25,28,26,-1,26,28,27,-1,33,34,35,-1,26,36,24,-1,24,36,37,-1,24,37,38,-1,38,37,39,-1,38,39,40,-1,40,39,41,-1,40,41,42,-1,42,41,43,-1,42,43,44,-1,44,43,45,-1,44,45,46,-1,46,45,47,-1,46,47,48,-1,48,47,49,-1,48,49,50,-1,50,49,51,-1,50,51,52,-1,52,51,53,-1,35,34,54,-1,54,34,55,-1,54,55,56,-1,56,55,57,-1,56,57,58,-1,59,60,61,-1,61,60,62,-1,61,62,63,-1,63,62,64,-1,63,64,65,-1,65,64,66,-1,65,66,67,-1,67,66,68,-1,67,68,69,-1,69,68,70,-1,69,70,71,-1,71,70,72,-1,57,73,58,-1,58,73,74,-1,58,74,75,-1,75,74,76,-1,75,76,77,-1,35,78,33,-1,33,78,79,-1,33,79,80,-1,80,79,81,-1,80,81,82,-1,82,81,83,-1,82,83,84,-1,84,83,85,-1,84,85,53,-1,53,85,86,-1,53,86,52,-1,76,30,77,-1,77,30,28,-1,77,28,87,-1,87,28,88,-1,87,88,89,-1,89,88,90,-1,89,90,91,-1,91,90,92,-1,91,92,72,-1,72,92,93,-1,72,93,71,-1,65,94,95,-1,65,95,63,-1,63,95,96,-1,63,96,61,-1,61,96,97,-1,61,97,59,-1,60,59,98,-1,98,59,97,-1,60,98,99,-1,60,99,62,-1,62,99,100,-1,62,100,64,-1,64,100,101,-1,64,101,66,-1,66,101,102,-1,66,102,68,-1,68,102,103,-1,68,103,70,-1,70,103,104,-1,70,104,72,-1,72,104,105,-1,72,105,91,-1,91,105,106,-1,91,106,89,-1,89,106,107,-1,89,107,87,-1,87,107,108,-1,87,108,77,-1,75,77,109,-1,109,77,108,-1,75,109,110,-1,75,110,58,-1,58,110,111,-1,58,111,56,-1,56,111,112,-1,56,112,54,-1,54,112,113,-1,54,113,35,-1,35,113,114,-1,35,114,78,-1,78,114,115,-1,78,115,79,-1,79,115,116,-1,79,116,81,-1,81,116,117,-1,81,117,83,-1,83,117,118,-1,83,118,85,-1,85,118,119,-1,85,119,86,-1,86,119,120,-1,86,120,52,-1,121,46,122,-1,122,46,48,-1,122,48,123,-1,123,48,50,-1,123,50,124,-1,124,50,52,-1,124,52,120,-1,46,121,125,-1,46,125,44,-1,44,125,126,-1,44,126,42,-1,126,127,42,-1,42,127,128,-1,42,128,40,-1,40,128,129,-1,40,129,38,-1,38,129,130,-1,38,130,24,-1,25,24,131,-1,131,24,130,-1,31,25,132,-1,132,25,131,-1,32,31,133,-1,133,31,132,-1,28,32,134,-1,134,32,133,-1,28,134,135,-1,28,135,88,-1,88,135,136,-1,88,136,90,-1,90,136,137,-1,90,137,92,-1,92,137,138,-1,92,138,93,-1,93,138,139,-1,93,139,71,-1,71,139,140,-1,71,140,69,-1,69,140,141,-1,69,141,67,-1,67,141,94,-1,67,94,65,-1,57,142,143,-1,57,143,73,-1,73,143,144,-1,73,144,74,-1,74,144,145,-1,74,145,76,-1,80,146,147,-1,80,147,33,-1,33,147,148,-1,33,148,34,-1,34,148,149,-1,34,149,55,-1,55,149,142,-1,55,142,57,-1,51,150,151,-1,51,151,53,-1,53,151,152,-1,53,152,84,-1,84,152,153,-1,84,153,82,-1,82,153,146,-1,82,146,80,-1,45,154,155,-1,45,155,47,-1,47,155,156,-1,47,156,49,-1,49,156,150,-1,49,150,51,-1,37,157,158,-1,37,158,39,-1,39,158,159,-1,39,159,41,-1,41,159,160,-1,41,160,43,-1,43,160,154,-1,43,154,45,-1,29,161,162,-1,29,162,27,-1,27,162,163,-1,27,163,26,-1,26,163,164,-1,26,164,36,-1,36,164,157,-1,36,157,37,-1,29,30,161,-1,161,30,165,-1,30,76,165,-1,165,76,145,-1,
        ]
    }
}
Shape{
    appearance Appearance {
        material  Material 	{
            diffuseColor 0.5019607843137255 0.5019607843137255 0.5019607843137255
            specularColor 0.25098039215686274 0.25098039215686274 0.25098039215686274
            ambientIntensity 0.2
            transparency 0
            shininess 0.5
        }
    }
    geometry IndexedFaceSet {
        ccw TRUE
        solid FALSE
        coord DEF co Coordinate {
            point [
                -0.874 -2.0079 1.2376, -0.874 -2.0079 1.2387, -0.9125 -2.0079 1.239, -0.874 -2.0079 1.2479, -0.8963 -2.0079 1.2449, -0.9066 -2.0079 1.2425, -0.9104 -2.0079 1.2406, -0.8751 -2.0079 1.2302, -0.9145 -2.0079 1.2365, -0.8776 -2.0079 1.2242, -0.9135 -2.0079 1.2172, -0.9121 -2.0079 1.2158, -0.8833 -2.0079 1.2172, -0.9154 -2.0079 1.22, -0.888 -2.0079 1.2141, -0.893 -2.0079 1.2122, -0.8993 -2.0079 1.2115, -0.916 -2.0079 1.2334, -0.9168 -2.0079 1.2296, -0.8812 -2.0079 1.2193, -0.9169 -2.0079 1.2269, -0.9165 -2.0079 1.2231, -0.9088 -2.0079 1.2135, -0.905 -2.0079 1.2121, -0.905 -2.0079 1.2121
            ]
        }
        coordIndex [
            0,1,2,-1,1,3,4,-1,4,5,1,-1,1,5,6,-1,1,6,2,-1,0,2,7,-1,7,2,8,-1,7,8,9,-1,10,11,12,-1,10,12,13,-1,14,12,15,-1,15,12,16,-1,8,17,9,-1,9,17,18,-1,9,18,19,-1,19,18,20,-1,19,20,12,-1,12,20,21,-1,12,21,13,-1,11,22,12,-1,12,22,23,-1,12,23,16,-1,
        ]
    }
}
Shape{
    appearance Appearance {
        material  Material 	{
            diffuseColor 0.0 0.0 0.0
            specularColor 0.0 0.0 0.0
            ambientIntensity 0.2
            transparency 0
            shininess 0.5
        }
    }
    geometry IndexedFaceSet {
        ccw TRUE
        solid FALSE
        coord DEF co Coordinate {
            point [
                -0.8346 -2.0079 1.2206, -0.8346 -2.0118 1.2206, -0.8286 -2.0118 1.2169, -0.8072 -2.0118 1.2114, -0.8072 -2.0079 1.2114, -0.8182 -2.0079 1.2128, -0.8182 -2.0118 1.2128, -0.8269 -2.0079 1.2162, -0.8286 -2.0079 1.2169, -0.8346 -2.0118 1.2034, -0.8346 -2.0079 1.2034, -0.8229 -2.0118 1.1993, -0.8269 -2.0079 1.2007, -0.8088 -2.0079 1.1978, -0.8088 -2.0118 1.1978, -0.8196 -2.0079 1.1989, -0.8229 -2.0079 1.1993, -0.7936 -2.0118 1.1996, -0.7994 -2.0079 1.1989, -0.7936 -2.0079 1.1996, -0.7848 -2.0079 1.203, -0.7848 -2.0118 1.203, -0.781 -2.0079 1.2054, -0.781 -2.0118 1.2054, -0.7762 -2.0079 1.2096, -0.7762 -2.0118 1.2096, -0.7731 -2.0079 1.214, -0.7731 -2.0118 1.214, -0.7711 -2.0079 1.2193, -0.7711 -2.0118 1.2193, -0.7703 -2.0079 1.226, -0.7703 -2.0118 1.226, -0.771 -2.0079 1.2322, -0.771 -2.0118 1.2322, -0.7728 -2.0079 1.2371, -0.7728 -2.0118 1.2371, -0.7759 -2.0079 1.2417, -0.7759 -2.0118 1.2417, -0.7799 -2.0079 1.2453, -0.7799 -2.0118 1.2453, -0.791 -2.0079 1.2515, -0.791 -2.0118 1.2515, -0.7974 -2.0079 1.2541, -0.7974 -2.0118 1.2541, -0.8078 -2.0079 1.2586, -0.8078 -2.0118 1.2586, -0.8137 -2.0079 1.2623, -0.8137 -2.0118 1.2623, -0.8153 -2.0079 1.2641, -0.8153 -2.0118 1.2641, -0.8165 -2.0079 1.2663, -0.8165 -2.0118 1.2663, -0.8172 -2.0079 1.2689, -0.8172 -2.0118 1.2689, -0.8173 -2.0079 1.2711, -0.8173 -2.0118 1.2711, -0.817 -2.0079 1.2738, -0.817 -2.0118 1.2738, -0.8162 -2.0079 1.276, -0.8162 -2.0118 1.276, -0.8148 -2.0079 1.2782, -0.8148 -2.0118 1.2782, -0.8122 -2.0079 1.2804, -0.8122 -2.0118 1.2804, -0.8085 -2.0079 1.2824, -0.8085 -2.0118 1.2824, -0.804 -2.0079 1.2836, -0.804 -2.0118 1.2836, -0.7991 -2.0079 1.284, -0.7991 -2.0118 1.284, -0.7874 -2.0079 1.2825, -0.7874 -2.0118 1.2825, -0.7779 -2.0079 1.2789, -0.7779 -2.0118 1.2789, -0.7748 -2.0079 1.2771, -0.7748 -2.0118 1.2771, -0.7748 -2.0118 1.2933, -0.7748 -2.0079 1.2933, -0.7857 -2.0079 1.2965, -0.7857 -2.0118 1.2965, -0.7974 -2.0079 1.2975, -0.7974 -2.0118 1.2975, -0.8108 -2.0079 1.2959, -0.8108 -2.0118 1.2959, -0.8198 -2.0079 1.2925, -0.8198 -2.0118 1.2925, -0.8238 -2.0079 1.29, -0.8238 -2.0118 1.29, -0.8293 -2.0118 1.285, -0.8269 -2.0079 1.2871, -0.8293 -2.0079 1.285, -0.8322 -2.0079 1.2804, -0.8322 -2.0118 1.2804, -0.834 -2.0079 1.275, -0.834 -2.0118 1.275, -0.8345 -2.0079 1.2696, -0.8345 -2.0118 1.2696, -0.8338 -2.0079 1.2631, -0.8338 -2.0118 1.2631, -0.832 -2.0079 1.258, -0.832 -2.0118 1.258, -0.8298 -2.0079 1.2545, -0.8298 -2.0118 1.2545, -0.8092 -2.0079 1.2419, -0.8092 -2.0118 1.2419, -0.8192 -2.0118 1.2465, -0.8271 -2.0079 1.2517, -0.8271 -2.0118 1.2517, -0.8269 -2.0079 1.2516, -0.8192 -2.0079 1.2465, -0.7983 -2.0079 1.2373, -0.7983 -2.0118 1.2373, -0.7917 -2.0079 1.2334, -0.7917 -2.0118 1.2334, -0.7897 -2.0079 1.2312, -0.7897 -2.0118 1.2312, -0.7884 -2.0079 1.229, -0.7884 -2.0118 1.229, -0.7876 -2.0079 1.2264, -0.7876 -2.0118 1.2264, -0.7874 -2.0079 1.2243, -0.7874 -2.0118 1.2243, -0.7878 -2.0079 1.2211, -0.7878 -2.0118 1.2211, -0.7886 -2.0079 1.2188, -0.7886 -2.0118 1.2188, -0.7901 -2.0079 1.2166, -0.7901 -2.0118 1.2166, -0.792 -2.0079 1.2149, -0.792 -2.0118 1.2149, -0.7935 -2.0079 1.214, -0.7935 -2.0118 1.214, -0.7978 -2.0079 1.2124, -0.7978 -2.0118 1.2124, -0.8064 -2.0079 1.2114, -0.8064 -2.0118 1.2114, -0.6874 -2.0118 1.2953, -0.6701 -2.0118 1.2953, -0.6874 -2.0079 1.2953, -0.6701 -2.0079 1.2953, -0.7134 -2.0118 1.2236, -0.7134 -2.0079 1.2236, -0.7147 -2.0079 1.2191, -0.7147 -2.0118 1.2191, -0.7155 -2.0079 1.2159, -0.7155 -2.0118 1.2159, -0.7159 -2.0118 1.2159, -0.7159 -2.0079 1.2159, -0.718 -2.0118 1.2237, -0.718 -2.0079 1.2237, -0.7429 -2.0079 1.2953, -0.7429 -2.0118 1.2953, -0.7348 -2.0079 1.2721, -0.7616 -2.0118 1.2953, -0.7616 -2.0079 1.2953, -0.7242 -2.0079 1.2002, -0.7242 -2.0118 1.2002, -0.7348 -2.0079 1.2273, -0.7315 -2.0079 1.1829, -0.7315 -2.0118 1.1829, -0.7248 -2.0079 1.1989, -0.7348 -2.0079 1.1771, -0.7354 -2.0118 1.1762, -0.7354 -2.0079 1.1762, -0.7386 -2.0079 1.1728, -0.7386 -2.0118 1.1728, -0.7418 -2.0079 1.1709, -0.7418 -2.0118 1.1709, -0.7455 -2.0079 1.1698, -0.7455 -2.0118 1.1698, -0.7487 -2.0079 1.1695, -0.7487 -2.0118 1.1695, -0.7547 -2.0079 1.1703, -0.7547 -2.0118 1.1703, -0.7581 -2.0079 1.1714, -0.7581 -2.0118 1.1714, -0.7581 -2.0118 1.1565, -0.7581 -2.0079 1.1565, -0.751 -2.0079 1.1553, -0.751 -2.0118 1.1553, -0.7474 -2.0079 1.1551, -0.7474 -2.0118 1.1551, -0.7401 -2.0079 1.156, -0.7401 -2.0118 1.156, -0.7348 -2.0079 1.1582, -0.7336 -2.0118 1.1587, -0.7336 -2.0079 1.1587, -0.7279 -2.0079 1.1628, -0.7279 -2.0118 1.1628, -0.721 -2.0079 1.1708, -0.721 -2.0118 1.1708, -0.7133 -2.0079 1.1856, -0.7133 -2.0118 1.1856, -0.7081 -2.0079 1.1989, -0.5803 -2.0118 1.2153, -0.5803 -2.0118 1.2, -0.5803 -2.0079 1.2153, -0.5803 -2.0079 1.2, -0.6349 -2.0079 1.2153, -0.6349 -2.0118 1.2153, -0.6099 -2.0079 1.2153, -0.6349 -2.0118 1.2601, -0.6349 -2.0079 1.2601, -0.5871 -2.0079 1.2601, -0.5871 -2.0118 1.2601, -0.6099 -2.0079 1.2601, -0.5871 -2.0118 1.2754, -0.5871 -2.0079 1.2754, -0.6349 -2.0079 1.2754, -0.6349 -2.0118 1.2754, -0.6099 -2.0079 1.2754, -0.6349 -2.0118 1.3181, -0.6349 -2.0079 1.3181, -0.5833 -2.0079 1.3181, -0.5833 -2.0118 1.3181, -0.6099 -2.0079 1.3181, -0.5833 -2.0118 1.3335, -0.5833 -2.0079 1.3335, -0.6521 -2.0079 1.3335, -0.6521 -2.0118 1.3335, -0.6099 -2.0079 1.3335, -0.6521 -2.0118 1.2, -0.6521 -2.0079 1.2, -0.6099 -2.0079 1.2, -0.4666 -2.0118 1.2187, -0.4813 -2.0118 1.2269, -0.4804 -2.0118 1.2088, -0.4901 -2.0118 1.2212, -0.4956 -2.0118 1.2028, -0.5015 -2.0118 1.2171, -0.5184 -2.0118 1.2, -0.5185 -2.0118 1.2153, -0.5551 -2.0118 1.2, -0.5379 -2.0118 1.2153, -0.5551 -2.0118 1.3335, -0.5379 -2.0118 1.3181, -0.517 -2.0118 1.3335, -0.5177 -2.0118 1.3181, -0.4967 -2.0118 1.3312, -0.5005 -2.0118 1.3162, -0.4805 -2.0118 1.3254, -0.489 -2.0118 1.3121, -0.4666 -2.0118 1.3158, -0.4792 -2.0118 1.3056, -0.4619 -2.0118 1.3113, -0.4756 -2.0118 1.302, -0.4537 -2.0118 1.2997, -0.4704 -2.0118 1.2946, -0.4487 -2.0118 1.287, -0.4666 -2.0118 1.2849, -0.4464 -2.0118 1.2685, -0.4646 -2.0118 1.268, -0.4468 -2.0118 1.26, -0.465 -2.0118 1.2596, -0.4501 -2.0118 1.2444, -0.4676 -2.0118 1.2473, -0.4566 -2.0118 1.2306, -0.4722 -2.0118 1.2374, -0.4788 -2.0118 1.2292, -0.5184 -2.0079 1.2, -0.5551 -2.0079 1.2, -0.4956 -2.0079 1.2028, -0.4804 -2.0079 1.2088, -0.4666 -2.0079 1.2187, -0.4566 -2.0079 1.2306, -0.4501 -2.0079 1.2444, -0.4468 -2.0079 1.26, -0.4464 -2.0079 1.2685, -0.4487 -2.0079 1.287, -0.4537 -2.0079 1.2997, -0.4619 -2.0079 1.3113, -0.4666 -2.0079 1.3158, -0.4805 -2.0079 1.3254, -0.4967 -2.0079 1.3312, -0.517 -2.0079 1.3335, -0.5551 -2.0079 1.3335, -0.5177 -2.0079 1.3181, -0.5379 -2.0079 1.3181, -0.5379 -2.0079 1.2153, -0.5185 -2.0079 1.2153, -0.4788 -2.0079 1.2292, -0.4813 -2.0079 1.2269, -0.4901 -2.0079 1.2212, -0.5015 -2.0079 1.2171, -0.4646 -2.0079 1.268, -0.465 -2.0079 1.2596, -0.4676 -2.0079 1.2473, -0.4722 -2.0079 1.2374, -0.4792 -2.0079 1.3056, -0.4756 -2.0079 1.302, -0.4704 -2.0079 1.2946, -0.4666 -2.0079 1.2849, -0.5005 -2.0079 1.3162, -0.489 -2.0079 1.3121, -0.489 -2.0079 1.3121
            ]
        }
        coordIndex [
            0,1,2,-1,3,4,5,-1,3,5,6,-1,6,5,7,-1,6,7,2,-1,2,7,8,-1,2,8,0,-1,9,1,10,-1,10,1,0,-1,9,10,11,-1,11,10,12,-1,13,14,15,-1,15,14,11,-1,15,11,16,-1,16,11,12,-1,14,13,17,-1,17,13,18,-1,18,19,17,-1,17,19,20,-1,17,20,21,-1,21,20,22,-1,21,22,23,-1,23,22,24,-1,23,24,25,-1,25,24,26,-1,25,26,27,-1,27,26,28,-1,27,28,29,-1,29,28,30,-1,29,30,31,-1,31,30,32,-1,31,32,33,-1,33,32,34,-1,33,34,35,-1,35,34,36,-1,35,36,37,-1,37,36,38,-1,37,38,39,-1,39,38,40,-1,39,40,41,-1,41,40,42,-1,41,42,43,-1,43,42,44,-1,43,44,45,-1,45,44,46,-1,45,46,47,-1,47,46,48,-1,47,48,49,-1,49,48,50,-1,49,50,51,-1,51,50,52,-1,51,52,53,-1,53,52,54,-1,53,54,55,-1,55,54,56,-1,55,56,57,-1,57,56,58,-1,57,58,59,-1,59,58,60,-1,59,60,61,-1,61,60,62,-1,61,62,63,-1,63,62,64,-1,63,64,65,-1,65,64,66,-1,65,66,67,-1,67,66,68,-1,67,68,69,-1,69,68,70,-1,69,70,71,-1,71,70,72,-1,71,72,73,-1,73,72,74,-1,73,74,75,-1,76,75,77,-1,77,75,74,-1,76,77,78,-1,76,78,79,-1,79,78,80,-1,79,80,81,-1,81,80,82,-1,81,82,83,-1,83,82,84,-1,83,84,85,-1,85,84,86,-1,85,86,87,-1,87,86,88,-1,88,86,89,-1,89,90,88,-1,88,90,91,-1,88,91,92,-1,92,91,93,-1,92,93,94,-1,94,93,95,-1,94,95,96,-1,96,95,97,-1,96,97,98,-1,98,97,99,-1,98,99,100,-1,100,99,101,-1,100,101,102,-1,103,104,105,-1,102,101,106,-1,102,106,107,-1,107,106,108,-1,107,108,105,-1,105,108,109,-1,105,109,103,-1,104,103,110,-1,104,110,111,-1,111,110,112,-1,111,112,113,-1,113,112,114,-1,113,114,115,-1,115,114,116,-1,115,116,117,-1,117,116,118,-1,117,118,119,-1,119,118,120,-1,119,120,121,-1,121,120,122,-1,121,122,123,-1,123,122,124,-1,123,124,125,-1,125,124,126,-1,125,126,127,-1,127,126,128,-1,127,128,129,-1,129,128,130,-1,129,130,131,-1,131,130,132,-1,131,132,133,-1,133,132,134,-1,133,134,135,-1,135,134,4,-1,135,4,3,-1,59,61,87,-1,87,61,85,-1,85,61,63,-1,85,63,83,-1,125,25,27,-1,111,43,104,-1,104,43,45,-1,125,27,123,-1,123,27,29,-1,123,29,121,-1,121,29,31,-1,121,31,119,-1,119,31,33,-1,119,33,117,-1,117,33,35,-1,117,35,115,-1,115,35,37,-1,115,37,113,-1,113,37,39,-1,113,39,111,-1,111,39,41,-1,111,41,43,-1,25,125,23,-1,23,125,127,-1,23,127,21,-1,14,3,11,-1,11,3,6,-1,11,6,9,-1,9,6,2,-1,9,2,1,-1,63,65,83,-1,83,65,67,-1,83,67,81,-1,81,67,69,-1,81,69,79,-1,79,69,71,-1,79,71,76,-1,76,71,73,-1,76,73,75,-1,127,129,21,-1,21,129,131,-1,21,131,17,-1,17,131,133,-1,17,133,14,-1,14,133,135,-1,14,135,3,-1,87,88,59,-1,59,88,92,-1,59,92,57,-1,57,92,94,-1,57,94,55,-1,55,94,96,-1,55,96,53,-1,53,96,98,-1,53,98,51,-1,51,98,100,-1,51,100,49,-1,49,100,102,-1,49,102,47,-1,47,102,107,-1,47,107,45,-1,45,107,105,-1,45,105,104,-1,136,137,138,-1,138,137,139,-1,140,136,141,-1,141,136,138,-1,140,141,142,-1,140,142,143,-1,143,142,144,-1,143,144,145,-1,146,145,147,-1,147,145,144,-1,148,146,149,-1,149,146,147,-1,150,151,152,-1,152,151,148,-1,152,148,149,-1,153,151,154,-1,154,151,150,-1,155,156,157,-1,157,156,153,-1,157,153,154,-1,158,159,160,-1,160,159,156,-1,160,156,155,-1,158,161,159,-1,159,161,162,-1,161,163,162,-1,162,163,164,-1,162,164,165,-1,165,164,166,-1,165,166,167,-1,167,166,168,-1,167,168,169,-1,169,168,170,-1,169,170,171,-1,171,170,172,-1,171,172,173,-1,173,172,174,-1,173,174,175,-1,176,175,177,-1,177,175,174,-1,176,177,178,-1,176,178,179,-1,179,178,180,-1,179,180,181,-1,181,180,182,-1,181,182,183,-1,183,182,184,-1,183,184,185,-1,184,186,185,-1,185,186,187,-1,185,187,188,-1,188,187,189,-1,188,189,190,-1,190,189,191,-1,190,191,192,-1,139,137,193,-1,193,137,192,-1,193,192,191,-1,143,145,192,-1,137,136,192,-1,192,136,140,-1,192,140,143,-1,151,153,148,-1,148,153,156,-1,148,156,146,-1,145,146,192,-1,192,146,156,-1,192,156,190,-1,156,159,190,-1,190,159,162,-1,190,162,188,-1,188,162,165,-1,188,165,185,-1,185,165,167,-1,185,167,183,-1,183,167,169,-1,183,169,181,-1,181,169,171,-1,181,171,179,-1,179,171,173,-1,179,173,176,-1,176,173,175,-1,194,195,196,-1,196,195,197,-1,198,199,200,-1,200,199,194,-1,200,194,196,-1,201,199,202,-1,202,199,198,-1,203,204,205,-1,205,204,201,-1,205,201,202,-1,206,204,207,-1,207,204,203,-1,208,209,210,-1,210,209,206,-1,210,206,207,-1,211,209,212,-1,212,209,208,-1,213,214,215,-1,215,214,211,-1,215,211,212,-1,216,214,217,-1,217,214,213,-1,218,219,220,-1,220,219,216,-1,220,216,217,-1,221,219,222,-1,222,219,218,-1,197,195,223,-1,223,195,221,-1,223,221,222,-1,221,195,194,-1,194,199,221,-1,221,199,201,-1,221,201,219,-1,214,216,211,-1,211,216,219,-1,211,219,209,-1,209,219,201,-1,209,201,206,-1,206,201,204,-1,224,225,226,-1,226,225,227,-1,226,227,228,-1,228,227,229,-1,228,229,230,-1,230,229,231,-1,230,231,232,-1,232,231,233,-1,232,233,234,-1,234,233,235,-1,234,235,236,-1,236,235,237,-1,236,237,238,-1,238,237,239,-1,238,239,240,-1,240,239,241,-1,240,241,242,-1,242,241,243,-1,242,243,244,-1,244,243,245,-1,244,245,246,-1,246,245,247,-1,246,247,248,-1,248,247,249,-1,248,249,250,-1,250,249,251,-1,250,251,252,-1,252,251,253,-1,252,253,254,-1,254,253,255,-1,254,255,256,-1,256,255,257,-1,256,257,224,-1,224,257,258,-1,224,258,225,-1,230,232,259,-1,259,232,260,-1,230,259,261,-1,230,261,228,-1,228,261,262,-1,228,262,226,-1,226,262,263,-1,226,263,224,-1,224,263,264,-1,224,264,256,-1,256,264,265,-1,256,265,254,-1,254,265,266,-1,254,266,252,-1,252,266,267,-1,252,267,250,-1,250,267,268,-1,250,268,248,-1,248,268,269,-1,248,269,246,-1,246,269,270,-1,246,270,244,-1,244,270,271,-1,244,271,242,-1,242,271,272,-1,242,272,240,-1,240,272,273,-1,240,273,238,-1,238,273,274,-1,238,274,236,-1,234,236,275,-1,275,236,274,-1,232,234,260,-1,260,234,275,-1,237,235,276,-1,276,235,277,-1,235,233,277,-1,277,233,278,-1,233,231,278,-1,278,231,279,-1,258,280,281,-1,258,281,225,-1,225,281,282,-1,225,282,227,-1,227,282,283,-1,227,283,229,-1,229,283,279,-1,229,279,231,-1,251,284,285,-1,251,285,253,-1,253,285,286,-1,253,286,255,-1,255,286,287,-1,255,287,257,-1,257,287,280,-1,257,280,258,-1,243,288,289,-1,243,289,245,-1,245,289,290,-1,245,290,247,-1,247,290,291,-1,247,291,249,-1,249,291,284,-1,249,284,251,-1,237,276,292,-1,237,292,239,-1,239,292,293,-1,239,293,241,-1,241,293,288,-1,241,288,243,-1,
        ]
    }
}
Shape{
    appearance Appearance {
        material  Material 	{
            diffuseColor 0.5019607843137255 0.5019607843137255 0.5019607843137255
            specularColor 0.25098039215686274 0.25098039215686274 0.25098039215686274
            ambientIntensity 0.2
            transparency 0
            shininess 0.5
        }
    }
    geometry IndexedFaceSet {
        ccw TRUE
        solid FALSE
        coord DEF co Coordinate {
            point [
                -0.5379 -2.0079 1.3181, -0.5379 -2.0079 1.2153, -0.5177 -2.0079 1.3181, -0.5185 -2.0079 1.2153, -0.5015 -2.0079 1.2171, -0.4901 -2.0079 1.2212, -0.4813 -2.0079 1.2269, -0.4788 -2.0079 1.2292, -0.4722 -2.0079 1.2374, -0.4676 -2.0079 1.2473, -0.465 -2.0079 1.2596, -0.4646 -2.0079 1.268, -0.4666 -2.0079 1.2849, -0.4704 -2.0079 1.2946, -0.4756 -2.0079 1.302, -0.4792 -2.0079 1.3056, -0.5005 -2.0079 1.3162, -0.489 -2.0079 1.3121, -0.489 -2.0079 1.3121
            ]
        }
        coordIndex [
            0,1,2,-1,2,1,3,-1,2,3,4,-1,4,5,2,-1,2,5,6,-1,2,6,7,-1,7,8,2,-1,2,8,9,-1,2,9,10,-1,10,11,2,-1,2,11,12,-1,2,12,13,-1,13,14,2,-1,2,14,15,-1,2,15,16,-1,16,15,17,-1,
        ]
    }
}
Shape{
    appearance Appearance {
        material  Material 	{
            diffuseColor 0.0 0.0 0.0
            specularColor 0.0 0.0 0.0
            ambientIntensity 0.2
            transparency 0
            shininess 0.5
        }
    }
    geometry IndexedFaceSet {
        ccw TRUE
        solid FALSE
        coord DEF co Coordinate {
            point [
                -0.4017 -2.0118 1.2516, -0.4072 -2.0118 1.2365, -0.3569 -2.0118 1.2516, -0.3516 -2.0118 1.2365, -0.3818 -2.0118 1.3071, -0.3882 -2.0118 1.3335, -0.439 -2.0118 1.2, -0.42 -2.0118 1.2, -0.3806 -2.0118 1.3111, -0.3796 -2.0118 1.3164, -0.3698 -2.0118 1.3335, -0.3792 -2.0118 1.3164, -0.3781 -2.0118 1.3108, -0.3771 -2.0118 1.3071, -0.319 -2.0118 1.2, -0.338 -2.0118 1.2, -0.3698 -2.0079 1.3335, -0.319 -2.0079 1.2, -0.3882 -2.0079 1.3335, -0.439 -2.0079 1.2, -0.42 -2.0079 1.2, -0.4072 -2.0079 1.2365, -0.3516 -2.0079 1.2365, -0.338 -2.0079 1.2, -0.4017 -2.0079 1.2516, -0.3569 -2.0079 1.2516, -0.3771 -2.0079 1.3071, -0.3792 -2.0079 1.3164, -0.3781 -2.0079 1.3108, -0.3796 -2.0079 1.3164, -0.3818 -2.0079 1.3071, -0.3806 -2.0079 1.3111, -0.3806 -2.0079 1.3111
            ]
        }
        coordIndex [
            0,1,2,-1,2,1,3,-1,4,5,0,-1,0,5,6,-1,0,6,1,-1,1,6,7,-1,4,8,5,-1,5,8,9,-1,5,9,10,-1,10,9,11,-1,10,11,12,-1,12,13,10,-1,10,13,2,-1,10,2,14,-1,14,2,3,-1,14,3,15,-1,10,14,16,-1,16,14,17,-1,5,10,18,-1,18,10,16,-1,6,5,19,-1,19,5,18,-1,7,6,20,-1,20,6,19,-1,1,7,21,-1,21,7,20,-1,3,1,22,-1,22,1,21,-1,15,3,23,-1,23,3,22,-1,14,15,17,-1,17,15,23,-1,0,2,24,-1,24,2,25,-1,2,13,25,-1,25,13,26,-1,11,27,28,-1,11,28,12,-1,12,28,26,-1,12,26,13,-1,11,9,27,-1,27,9,29,-1,4,30,31,-1,4,31,8,-1,8,31,29,-1,8,29,9,-1,4,0,30,-1,30,0,24,-1,
        ]
    }
}
Shape{
    appearance Appearance {
        material  Material 	{
            diffuseColor 0.5019607843137255 0.5019607843137255 0.5019607843137255
            specularColor 0.25098039215686274 0.25098039215686274 0.25098039215686274
            ambientIntensity 0.2
            transparency 0
            shininess 0.5
        }
    }
    geometry IndexedFaceSet {
        ccw TRUE
        solid FALSE
        coord DEF co Coordinate {
            point [
                -0.3792 -2.0079 1.3164, -0.3796 -2.0079 1.3164, -0.3781 -2.0079 1.3108, -0.3806 -2.0079 1.3111, -0.3771 -2.0079 1.3071, -0.3818 -2.0079 1.3071, -0.3569 -2.0079 1.2516, -0.4017 -2.0079 1.2516, -0.4017 -2.0079 1.2516
            ]
        }
        coordIndex [
            0,1,2,-1,2,1,3,-1,2,3,4,-1,4,3,5,-1,4,5,6,-1,6,5,7,-1,
        ]
    }
}
Shape{
    appearance Appearance {
        material  Material 	{
            diffuseColor 0.0 0.0 0.0
            specularColor 0.0 0.0 0.0
            ambientIntensity 0.2
            transparency 0
            shininess 0.5
        }
    }
    geometry IndexedFaceSet {
        ccw TRUE
        solid FALSE
        coord DEF co Coordinate {
            point [
                -1.611 -2.0118 1.1812, -1.5969 -2.0118 1.1637, -1.6196 -2.0118 1.265, -1.4527 -2.0118 1.1775, -1.4415 -2.0118 1.1987, -1.436 -2.0118 1.2221, -1.556 -2.0118 1.2033, -1.5485 -2.0118 1.1981, -1.5784 -2.0118 1.1497, -1.5397 -2.0118 1.1948, -1.1898 -2.0118 1.3315, -1.192 -2.0118 1.313, -1.1356 -2.0118 1.2974, -1.3027 -2.0118 1.3115, -1.3321 -2.0118 1.3618, -1.4355 -2.0118 1.2413, -1.4592 -2.0118 1.2954, -1.4355 -2.0118 1.2318, -1.4863 -2.0118 1.1479, -1.4674 -2.0118 1.161, -1.6402 -2.0118 1.2777, -1.6367 -2.0118 1.2066, -1.6205 -2.0118 1.2015, -1.2714 -2.0118 1.4055, -1.2638 -2.0118 1.4055, -1.2249 -2.0118 1.4567, -1.2458 -2.0118 1.4032, -1.2195 -2.0118 1.4549, -1.2292 -2.0118 1.3969, -1.1913 -2.0118 1.4407, -1.1657 -2.0118 1.4188, -1.5383 -2.0118 1.4368, -1.5313 -2.0118 1.433, -1.5608 -2.0118 1.5022, -1.5177 -2.0118 1.4616, -1.5413 -2.0118 1.5249, -1.4968 -2.0118 1.4873, -1.519 -2.0118 1.544, -1.4705 -2.0118 1.5068, -1.496 -2.0118 1.5583, -1.5565 -2.0118 1.1405, -1.5341 -2.0118 1.137, -1.5313 -2.0118 1.1939, -1.5304 -2.0118 1.137, -1.5233 -2.0118 1.1948, -1.5075 -2.0118 1.1398, -1.5149 -2.0118 1.1977, -1.5075 -2.0118 1.2026, -1.5013 -2.0118 1.2093, -1.1478 -2.0118 1.2675, -1.1986 -2.0118 1.2961, -1.1661 -2.0118 1.2423, -1.2761 -2.0118 1.5317, -1.3102 -2.0118 1.4851, -1.2451 -2.0118 1.4959, -1.2896 -2.0118 1.4588, -1.2759 -2.0118 1.4278, -1.6572 -2.0118 1.2952, -1.6964 -2.0118 1.247, -1.6705 -2.0118 1.2242, -1.6737 -2.0118 1.3753, -1.7359 -2.0118 1.3613, -1.6765 -2.0118 1.3523, -1.7363 -2.0118 1.3504, -1.6754 -2.0118 1.3379, -1.7326 -2.0118 1.317, -1.6686 -2.0118 1.3146, -1.7199 -2.0118 1.2815, -1.6999 -2.0118 1.2509, -1.5621 -2.0118 1.2102, -1.5661 -2.0118 1.2181, -1.5681 -2.0118 1.2268, -1.4968 -2.0118 1.2441, -1.4946 -2.0118 1.2354, -1.4946 -2.0118 1.2266, -1.4969 -2.0118 1.2175, -1.2145 -2.0118 1.3866, -1.2035 -2.0118 1.3743, -1.1465 -2.0118 1.3917, -1.1947 -2.0118 1.3579, -1.1351 -2.0118 1.3626, -1.1902 -2.0118 1.3397, -1.1309 -2.0118 1.3324, -1.131 -2.0118 1.3285, -1.209 -2.0118 1.2813, -1.2104 -2.0118 1.2799, -1.1928 -2.0118 1.2198, -1.2244 -2.0118 1.2684, -1.2218 -2.0118 1.2059, -1.2411 -2.0118 1.2607, -1.2524 -2.0118 1.1996, -1.2581 -2.0118 1.2575, -1.3084 -2.0118 1.1996, -1.3008 -2.0118 1.2575, -1.3132 -2.0118 1.2003, -1.4523 -2.0118 1.5752, -1.4395 -2.0118 1.5195, -1.4052 -2.0118 1.581, -1.4042 -2.0118 1.5241, -1.366 -2.0118 1.5769, -1.3733 -2.0118 1.5204, -1.3184 -2.0118 1.5601, -1.3435 -2.0118 1.5093, -1.3167 -2.0118 1.4911, -1.5596 -2.0118 1.4445, -1.5717 -2.0118 1.5035, -1.5816 -2.0118 1.4472, -1.5826 -2.0118 1.5041, -1.5914 -2.0118 1.4467, -1.6162 -2.0118 1.5004, -1.6148 -2.0118 1.4412, -1.6516 -2.0118 1.4877, -1.636 -2.0118 1.43, -1.6834 -2.0118 1.4663, -1.6524 -2.0118 1.4153, -1.6917 -2.0118 1.4586, -1.6656 -2.0118 1.3964, -1.7126 -2.0118 1.4324, -1.7285 -2.0118 1.3988, -1.5681 -2.0118 1.2349, -1.5659 -2.0118 1.2441, -1.6091 -2.0118 1.2855, -1.5615 -2.0118 1.2523, -1.5934 -2.0118 1.3034, -1.5553 -2.0118 1.2591, -1.574 -2.0118 1.3169, -1.5477 -2.0118 1.264, -1.553 -2.0118 1.3249, -1.5393 -2.0118 1.267, -1.5304 -2.0118 1.3277, -1.5313 -2.0118 1.2679, -1.5188 -2.0118 1.327, -1.5235 -2.0118 1.267, -1.4959 -2.0118 1.3213, -1.5147 -2.0118 1.2639, -1.4758 -2.0118 1.3105, -1.507 -2.0118 1.2587, -1.5009 -2.0118 1.2519, -1.3056 -2.0118 1.2583, -1.3285 -2.0118 1.2097, -1.3257 -2.0118 1.2069, -1.3135 -2.0118 1.2575, -1.32 -2.0118 1.255, -1.3358 -2.0118 1.2316, -1.3359 -2.0118 1.229, -1.335 -2.0118 1.2221, -1.3326 -2.0118 1.2156, -1.3027 -2.0118 1.2577, -1.3195 -2.0118 1.2026, -1.3065 -2.0118 1.2584, -1.3259 -2.0118 1.251, -1.3307 -2.0118 1.2456, -1.3341 -2.0118 1.2389, -1.1599 -2.0079 1.4106, -1.1465 -2.0079 1.3917, -1.1386 -2.0079 1.3715, -1.1351 -2.0079 1.3626, -1.1309 -2.0079 1.3324, -1.1657 -2.0079 1.4188, -1.1913 -2.0079 1.4407, -1.2195 -2.0079 1.4549, -1.2249 -2.0079 1.4567, -1.2451 -2.0079 1.4959, -1.2761 -2.0079 1.5317, -1.2979 -2.0079 1.5463, -1.3184 -2.0079 1.5601, -1.366 -2.0079 1.5769, -1.4052 -2.0079 1.581, -1.4523 -2.0079 1.5752, -1.496 -2.0079 1.5583, -1.5153 -2.0079 1.5463, -1.519 -2.0079 1.544, -1.5413 -2.0079 1.5249, -1.5608 -2.0079 1.5022, -1.5717 -2.0079 1.5035, -1.5826 -2.0079 1.5041, -1.6162 -2.0079 1.5004, -1.6516 -2.0079 1.4877, -1.6834 -2.0079 1.4663, -1.6917 -2.0079 1.4586, -1.7339 -2.0079 1.3715, -1.7285 -2.0079 1.3988, -1.7229 -2.0079 1.4106, -1.7126 -2.0079 1.4324, -1.7359 -2.0079 1.3613, -1.7363 -2.0079 1.3504, -1.7326 -2.0079 1.317, -1.7199 -2.0079 1.2815, -1.6999 -2.0079 1.2509, -1.6964 -2.0079 1.247, -1.6705 -2.0079 1.2242, -1.6367 -2.0079 1.2066, -1.6205 -2.0079 1.2015, -1.6193 -2.0079 1.1989, -1.611 -2.0079 1.1812, -1.5969 -2.0079 1.1637, -1.5784 -2.0079 1.1497, -1.5696 -2.0079 1.146, -1.5565 -2.0079 1.1405, -1.5341 -2.0079 1.137, -1.5304 -2.0079 1.137, -1.4355 -2.0079 1.2318, -1.5075 -2.0079 1.1398, -1.4911 -2.0079 1.146, -1.4863 -2.0079 1.1479, -1.4674 -2.0079 1.161, -1.4527 -2.0079 1.1775, -1.4415 -2.0079 1.1987, -1.4415 -2.0079 1.1989, -1.436 -2.0079 1.2221, -1.4355 -2.0079 1.2413, -1.3027 -2.0079 1.3115, -1.3321 -2.0079 1.3618, -1.4592 -2.0079 1.2954, -1.4758 -2.0079 1.3105, -1.4959 -2.0079 1.3213, -1.5188 -2.0079 1.327, -1.5304 -2.0079 1.3277, -1.553 -2.0079 1.3249, -1.574 -2.0079 1.3169, -1.5934 -2.0079 1.3034, -1.6091 -2.0079 1.2855, -1.6196 -2.0079 1.265, -1.6402 -2.0079 1.2777, -1.6572 -2.0079 1.2952, -1.6686 -2.0079 1.3146, -1.6754 -2.0079 1.3379, -1.6765 -2.0079 1.3523, -1.6742 -2.0079 1.3715, -1.6737 -2.0079 1.3753, -1.6656 -2.0079 1.3964, -1.6557 -2.0079 1.4106, -1.6524 -2.0079 1.4153, -1.636 -2.0079 1.43, -1.6148 -2.0079 1.4412, -1.5914 -2.0079 1.4467, -1.5816 -2.0079 1.4472, -1.5596 -2.0079 1.4445, -1.5383 -2.0079 1.4368, -1.5313 -2.0079 1.433, -1.5177 -2.0079 1.4616, -1.4968 -2.0079 1.4873, -1.4705 -2.0079 1.5068, -1.4395 -2.0079 1.5195, -1.4042 -2.0079 1.5241, -1.3733 -2.0079 1.5204, -1.3435 -2.0079 1.5093, -1.3167 -2.0079 1.4911, -1.3102 -2.0079 1.4851, -1.2896 -2.0079 1.4588, -1.2759 -2.0079 1.4278, -1.2724 -2.0079 1.4106, -1.2714 -2.0079 1.4055, -1.2638 -2.0079 1.4055, -1.2458 -2.0079 1.4032, -1.2292 -2.0079 1.3969, -1.2145 -2.0079 1.3866, -1.2035 -2.0079 1.3743, -1.202 -2.0079 1.3715, -1.1947 -2.0079 1.3579, -1.1902 -2.0079 1.3397, -1.1898 -2.0079 1.3315, -1.192 -2.0079 1.313, -1.1986 -2.0079 1.2961, -1.209 -2.0079 1.2813, -1.2104 -2.0079 1.2799, -1.2244 -2.0079 1.2684, -1.2411 -2.0079 1.2607, -1.2581 -2.0079 1.2575, -1.3008 -2.0079 1.2575, -1.3027 -2.0079 1.2577, -1.3056 -2.0079 1.2583, -1.3065 -2.0079 1.2584, -1.3135 -2.0079 1.2575, -1.32 -2.0079 1.255, -1.3259 -2.0079 1.251, -1.3307 -2.0079 1.2456, -1.3341 -2.0079 1.2389, -1.3358 -2.0079 1.2316, -1.3359 -2.0079 1.229, -1.335 -2.0079 1.2221, -1.3326 -2.0079 1.2156, -1.3285 -2.0079 1.2097, -1.3257 -2.0079 1.2069, -1.3195 -2.0079 1.2026, -1.3132 -2.0079 1.2003, -1.3084 -2.0079 1.1996, -1.2524 -2.0079 1.1996, -1.2218 -2.0079 1.2059, -1.1928 -2.0079 1.2198, -1.1661 -2.0079 1.2423, -1.1478 -2.0079 1.2675, -1.1356 -2.0079 1.2974, -1.131 -2.0079 1.3285, -1.5313 -2.0079 1.2679, -1.5235 -2.0079 1.267, -1.5147 -2.0079 1.2639, -1.507 -2.0079 1.2587, -1.5009 -2.0079 1.2519, -1.4968 -2.0079 1.2441, -1.4946 -2.0079 1.2354, -1.4946 -2.0079 1.2266, -1.4969 -2.0079 1.2175, -1.5013 -2.0079 1.2093, -1.5075 -2.0079 1.2026, -1.5149 -2.0079 1.1977, -1.5233 -2.0079 1.1948, -1.5313 -2.0079 1.1939, -1.5397 -2.0079 1.1948, -1.5485 -2.0079 1.1981, -1.556 -2.0079 1.2033, -1.5621 -2.0079 1.2102, -1.5661 -2.0079 1.2181, -1.5681 -2.0079 1.2268, -1.5681 -2.0079 1.2349, -1.5659 -2.0079 1.2441, -1.5615 -2.0079 1.2523, -1.5553 -2.0079 1.2591, -1.5477 -2.0079 1.264, -1.5393 -2.0079 1.267, -1.5393 -2.0079 1.267
            ]
        }
        coordIndex [
            0,1,2,-1,3,4,5,-1,6,1,7,-1,7,1,8,-1,7,8,9,-1,10,11,12,-1,13,14,15,-1,15,14,16,-1,15,16,17,-1,17,16,18,-1,17,18,5,-1,5,18,19,-1,5,19,3,-1,20,21,2,-1,2,21,22,-1,2,22,0,-1,23,24,25,-1,25,24,26,-1,25,26,27,-1,27,26,28,-1,27,28,29,-1,29,28,30,-1,31,32,33,-1,33,32,34,-1,33,34,35,-1,35,34,36,-1,35,36,37,-1,37,36,38,-1,37,38,39,-1,8,40,9,-1,9,40,41,-1,9,41,42,-1,42,41,43,-1,42,43,44,-1,44,43,45,-1,44,45,46,-1,46,45,18,-1,46,18,47,-1,47,18,48,-1,12,11,49,-1,49,11,50,-1,49,50,51,-1,52,53,54,-1,54,53,55,-1,54,55,25,-1,25,55,56,-1,25,56,23,-1,57,58,20,-1,20,58,59,-1,20,59,21,-1,60,61,62,-1,62,61,63,-1,62,63,64,-1,64,63,65,-1,64,65,66,-1,66,65,67,-1,66,67,57,-1,57,67,68,-1,57,68,58,-1,6,69,1,-1,1,69,70,-1,1,70,2,-1,2,70,71,-1,72,73,16,-1,16,73,74,-1,16,74,18,-1,18,74,75,-1,18,75,48,-1,28,76,30,-1,30,76,77,-1,30,77,78,-1,78,77,79,-1,78,79,80,-1,80,79,81,-1,80,81,82,-1,82,81,10,-1,82,10,83,-1,83,10,12,-1,50,84,51,-1,51,84,85,-1,51,85,86,-1,86,85,87,-1,86,87,88,-1,88,87,89,-1,88,89,90,-1,90,89,91,-1,90,91,92,-1,92,91,93,-1,92,93,94,-1,39,38,95,-1,95,38,96,-1,95,96,97,-1,97,96,98,-1,97,98,99,-1,99,98,100,-1,99,100,101,-1,101,100,102,-1,101,102,52,-1,52,102,103,-1,52,103,53,-1,31,33,104,-1,104,33,105,-1,104,105,106,-1,106,105,107,-1,106,107,108,-1,108,107,109,-1,108,109,110,-1,110,109,111,-1,110,111,112,-1,112,111,113,-1,112,113,114,-1,114,113,115,-1,114,115,116,-1,116,115,117,-1,116,117,60,-1,60,117,118,-1,60,118,61,-1,71,119,2,-1,2,119,120,-1,2,120,121,-1,121,120,122,-1,121,122,123,-1,123,122,124,-1,123,124,125,-1,125,124,126,-1,125,126,127,-1,127,126,128,-1,127,128,129,-1,129,128,130,-1,129,130,131,-1,131,130,132,-1,131,132,133,-1,133,132,134,-1,133,134,135,-1,135,134,136,-1,135,136,16,-1,16,136,137,-1,16,137,72,-1,138,139,140,-1,141,142,143,-1,144,145,138,-1,138,145,146,-1,138,146,139,-1,93,147,94,-1,94,147,138,-1,94,138,148,-1,148,138,140,-1,144,138,143,-1,143,138,149,-1,143,149,141,-1,142,150,143,-1,143,150,151,-1,143,151,152,-1,153,30,154,-1,154,30,78,-1,154,78,155,-1,155,78,80,-1,155,80,156,-1,156,80,82,-1,156,82,157,-1,153,158,30,-1,30,158,159,-1,30,159,29,-1,29,159,160,-1,29,160,27,-1,27,160,161,-1,27,161,25,-1,25,161,162,-1,25,162,54,-1,54,162,163,-1,54,163,52,-1,101,52,164,-1,164,52,163,-1,164,165,101,-1,101,165,166,-1,101,166,99,-1,99,166,167,-1,99,167,97,-1,97,167,168,-1,97,168,95,-1,95,168,169,-1,95,169,39,-1,39,169,37,-1,37,169,170,-1,37,170,171,-1,37,171,172,-1,37,172,35,-1,35,172,173,-1,35,173,33,-1,33,173,174,-1,33,174,105,-1,105,174,175,-1,105,175,107,-1,107,175,176,-1,107,176,109,-1,109,176,177,-1,109,177,111,-1,111,177,178,-1,111,178,113,-1,113,178,179,-1,113,179,115,-1,180,61,181,-1,181,61,118,-1,181,118,182,-1,182,118,117,-1,182,117,183,-1,183,117,115,-1,183,115,179,-1,180,184,61,-1,61,184,185,-1,61,185,63,-1,63,185,186,-1,63,186,65,-1,65,186,187,-1,65,187,67,-1,67,187,188,-1,67,188,68,-1,68,188,189,-1,68,189,58,-1,58,189,190,-1,58,190,59,-1,59,190,191,-1,59,191,21,-1,21,191,192,-1,21,192,22,-1,22,192,193,-1,22,193,0,-1,193,194,0,-1,0,194,195,-1,0,195,1,-1,1,195,196,-1,1,196,8,-1,8,196,197,-1,8,197,40,-1,197,198,40,-1,40,198,199,-1,40,199,41,-1,41,199,200,-1,41,200,43,-1,201,17,5,-1,43,200,202,-1,203,18,202,-1,202,18,45,-1,202,45,43,-1,203,204,18,-1,18,204,205,-1,18,205,19,-1,19,205,206,-1,19,206,3,-1,3,206,207,-1,3,207,4,-1,4,207,208,-1,4,208,5,-1,5,208,209,-1,5,209,201,-1,15,17,210,-1,210,17,201,-1,13,15,211,-1,211,15,210,-1,14,13,212,-1,212,13,211,-1,16,14,213,-1,213,14,212,-1,16,213,214,-1,16,214,135,-1,135,214,215,-1,135,215,133,-1,133,215,216,-1,133,216,131,-1,131,216,217,-1,131,217,129,-1,129,217,218,-1,129,218,127,-1,127,218,219,-1,127,219,125,-1,125,219,220,-1,125,220,123,-1,123,220,221,-1,123,221,121,-1,121,221,222,-1,121,222,2,-1,2,222,223,-1,2,223,20,-1,20,223,224,-1,20,224,57,-1,57,224,225,-1,57,225,66,-1,66,225,226,-1,66,226,64,-1,64,226,227,-1,64,227,62,-1,60,62,227,-1,227,228,60,-1,60,228,229,-1,60,229,230,-1,231,114,230,-1,230,114,116,-1,230,116,60,-1,231,232,114,-1,114,232,233,-1,114,233,112,-1,112,233,234,-1,112,234,110,-1,110,234,235,-1,110,235,108,-1,108,235,236,-1,108,236,106,-1,106,236,237,-1,106,237,104,-1,104,237,238,-1,104,238,31,-1,31,238,239,-1,31,239,32,-1,32,239,240,-1,32,240,34,-1,34,240,241,-1,34,241,36,-1,36,241,242,-1,36,242,38,-1,38,242,243,-1,38,243,96,-1,96,243,244,-1,96,244,98,-1,98,244,245,-1,98,245,100,-1,100,245,246,-1,100,246,102,-1,102,246,247,-1,102,247,103,-1,103,247,248,-1,103,248,53,-1,53,248,249,-1,53,249,55,-1,55,249,250,-1,55,250,56,-1,56,250,23,-1,23,250,251,-1,23,251,252,-1,24,23,253,-1,253,23,252,-1,24,253,254,-1,24,254,26,-1,26,254,255,-1,26,255,28,-1,28,255,256,-1,28,256,76,-1,76,256,257,-1,76,257,77,-1,77,257,258,-1,77,258,79,-1,258,259,79,-1,79,259,260,-1,79,260,81,-1,81,260,261,-1,81,261,10,-1,10,261,262,-1,10,262,11,-1,11,262,263,-1,11,263,50,-1,50,263,264,-1,50,264,84,-1,84,264,265,-1,84,265,85,-1,85,265,266,-1,85,266,87,-1,87,266,267,-1,87,267,89,-1,89,267,268,-1,89,268,91,-1,93,91,269,-1,269,91,268,-1,93,269,270,-1,93,270,147,-1,147,270,271,-1,147,271,138,-1,138,271,272,-1,138,272,149,-1,149,272,273,-1,149,273,141,-1,141,273,274,-1,141,274,142,-1,142,274,275,-1,142,275,150,-1,150,275,276,-1,150,276,151,-1,151,276,277,-1,151,277,152,-1,152,277,278,-1,152,278,143,-1,143,278,279,-1,143,279,144,-1,144,279,280,-1,144,280,145,-1,145,280,281,-1,145,281,146,-1,146,281,282,-1,146,282,139,-1,139,282,283,-1,139,283,140,-1,140,283,284,-1,140,284,148,-1,148,284,285,-1,148,285,94,-1,94,285,286,-1,94,286,92,-1,90,92,287,-1,287,92,286,-1,90,287,288,-1,90,288,88,-1,88,288,289,-1,88,289,86,-1,86,289,290,-1,86,290,51,-1,51,290,291,-1,51,291,49,-1,49,291,292,-1,49,292,12,-1,12,292,293,-1,12,293,83,-1,83,293,157,-1,83,157,82,-1,130,294,295,-1,130,295,132,-1,132,295,296,-1,132,296,134,-1,134,296,297,-1,134,297,136,-1,136,297,298,-1,136,298,137,-1,137,298,299,-1,137,299,72,-1,72,299,300,-1,72,300,73,-1,73,300,301,-1,73,301,74,-1,74,301,302,-1,74,302,75,-1,75,302,303,-1,75,303,48,-1,48,303,304,-1,48,304,47,-1,47,304,305,-1,47,305,46,-1,46,305,306,-1,46,306,44,-1,44,306,307,-1,44,307,42,-1,42,307,308,-1,42,308,9,-1,9,308,309,-1,9,309,7,-1,7,309,310,-1,7,310,6,-1,6,310,311,-1,6,311,69,-1,69,311,312,-1,69,312,70,-1,70,312,313,-1,70,313,71,-1,71,313,314,-1,71,314,119,-1,119,314,315,-1,119,315,120,-1,120,315,316,-1,120,316,122,-1,122,316,317,-1,122,317,124,-1,124,317,318,-1,124,318,126,-1,126,318,319,-1,126,319,128,-1,128,319,294,-1,128,294,130,-1,
        ]
    }
}
Shape{
    appearance Appearance {
        material  Material 	{
            diffuseColor 0.5019607843137255 0.5019607843137255 0.5019607843137255
            specularColor 0.25098039215686274 0.25098039215686274 0.25098039215686274
            ambientIntensity 0.2
            transparency 0
            shininess 0.5
        }
    }
    geometry IndexedFaceSet {
        ccw TRUE
        solid FALSE
        coord DEF co Coordinate {
            point [
                -1.5233 -2.0079 1.1948, -1.5313 -2.0079 1.2679, -1.5313 -2.0079 1.1939, -1.5393 -2.0079 1.267, -1.5681 -2.0079 1.2268, -1.5681 -2.0079 1.2349, -1.5477 -2.0079 1.264, -1.4946 -2.0079 1.2354, -1.4968 -2.0079 1.2441, -1.5009 -2.0079 1.2519, -1.507 -2.0079 1.2587, -1.5147 -2.0079 1.2639, -1.5235 -2.0079 1.267, -1.5553 -2.0079 1.2591, -1.5615 -2.0079 1.2523, -1.5659 -2.0079 1.2441, -1.5661 -2.0079 1.2181, -1.5621 -2.0079 1.2102, -1.556 -2.0079 1.2033, -1.5149 -2.0079 1.1977, -1.5075 -2.0079 1.2026, -1.4946 -2.0079 1.2266, -1.5013 -2.0079 1.2093, -1.4969 -2.0079 1.2175, -1.5485 -2.0079 1.1981, -1.5397 -2.0079 1.1948, 2.0472 -1.811 1.811, 2.0419 -1.8518 1.811, 2.0574 -1.811 1.8097, 2.0517 -1.8544 1.8097, 2.0669 -1.811 1.8057, 2.0609 -1.8569 1.8057, 2.0751 -1.811 1.7995, 2.0688 -1.859 1.7995, 2.0813 -1.811 1.7913, 2.0748 -1.8606 1.7913, 2.0853 -1.811 1.7818, 2.0786 -1.8616 1.7818, 2.0866 -1.811 1.7717, 2.0799 -1.862 1.7717, 2.0261 -1.8898 1.811, 2.035 -1.8949 1.8097, 2.0432 -1.8996 1.8057, 2.0503 -1.9037 1.7995, 2.0557 -1.9068 1.7913, 2.0591 -1.9088 1.7818, 2.0602 -1.9094 1.7717, 2.0011 -1.9224 1.811, 2.0083 -1.9296 1.8097, 2.015 -1.9363 1.8057, 2.0208 -1.9421 1.7995, 2.0252 -1.9465 1.7913, 2.028 -1.9493 1.7818, 2.029 -1.9502 1.7717, 1.9685 -1.9474 1.811, 1.9736 -1.9562 1.8097, 1.9783 -1.9645 1.8057, 1.9824 -1.9715 1.7995, 1.9856 -1.9769 1.7913, 1.9875 -1.9803 1.7818, 1.9882 -1.9815 1.7717, 1.9305 -1.9631 1.811, 1.9332 -1.973 1.8097, 1.9356 -1.9822 1.8057, 1.9377 -1.99 1.7995, 1.9393 -1.9961 1.7913, 1.9404 -1.9999 1.7818, 1.9407 -2.0012 1.7717, 1.8898 -1.9685 1.811, 1.8898 -1.9787 1.8097, 1.8898 -1.9882 1.8057, 1.8898 -1.9963 1.7995, 1.8898 -2.0026 1.7913, 1.8898 -2.0065 1.7818, 1.8898 -2.0079 1.7717, 2.0472 1.811 1.811, 2.0574 1.811 1.8097, 2.0669 1.811 1.8057, 2.0751 1.811 1.7995, 2.0813 1.811 1.7913, 2.0853 1.811 1.7818, 2.0866 1.811 1.7717, -1.8898 -1.9685 1.811, -1.8898 -1.9787 1.8097, -1.8898 -1.9882 1.8057, -1.8898 -1.9963 1.7995, -1.8898 -2.0026 1.7913, -1.8898 -2.0065 1.7818, -1.8898 -2.0079 1.7717, -1.813 -2.0079 1.7717, -1.0763 -2.0079 1.7717, -0.9479 -2.0079 1.7717, -0.9399 -2.0079 1.7717, -0.8269 -2.0079 1.7717, -0.7659 -2.0079 1.7717, -0.7348 -2.0079 1.7717, -0.6611 -2.0079 1.7717, -0.6099 -2.0079 1.7717, -0.5677 -2.0079 1.7717, 1.8898 1.9685 1.811, 1.9305 1.9631 1.811, 1.8898 1.9787 1.8097, 1.9332 1.973 1.8097, 1.8898 1.9882 1.8057, 1.9356 1.9822 1.8057, 1.8898 1.9963 1.7995, 1.9377 1.99 1.7995, 1.8898 2.0026 1.7913, 1.9393 1.9961 1.7913, 1.8898 2.0065 1.7818, 1.9404 1.9999 1.7818, 1.8898 2.0079 1.7717, 1.9407 2.0012 1.7717, 1.9685 1.9474 1.811, 1.9736 1.9562 1.8097, 1.9783 1.9645 1.8057, 1.9824 1.9715 1.7995, 1.9856 1.9769 1.7913, 1.9875 1.9803 1.7818, 1.9882 1.9815 1.7717, 2.0011 1.9224 1.811, 2.0083 1.9296 1.8097, 2.015 1.9363 1.8057, 2.0208 1.9421 1.7995, 2.0252 1.9465 1.7913, 2.028 1.9493 1.7818, 2.029 1.9502 1.7717, 2.0261 1.8898 1.811, 2.035 1.8949 1.8097, 2.0432 1.8996 1.8057, 2.0503 1.9037 1.7995, 2.0557 1.9068 1.7913, 2.0591 1.9088 1.7818, 2.0602 1.9094 1.7717, 2.0419 1.8518 1.811, 2.0517 1.8544 1.8097, 2.0609 1.8569 1.8057, 2.0688 1.859 1.7995, 2.0748 1.8606 1.7913, 2.0786 1.8616 1.7818, 2.0799 1.862 1.7717, -1.9305 -1.9631 1.811, -1.9332 -1.973 1.8097, -1.9356 -1.9822 1.8057, -1.9377 -1.99 1.7995, -1.9393 -1.9961 1.7913, -1.9404 -1.9999 1.7818, -1.9407 -2.0012 1.7717, -1.9685 -1.9474 1.811, -1.9736 -1.9562 1.8097, -1.9783 -1.9645 1.8057, -1.9824 -1.9715 1.7995, -1.9856 -1.9769 1.7913, -1.9875 -1.9803 1.7818, -1.9882 -1.9815 1.7717, -2.0011 -1.9224 1.811, -2.0083 -1.9296 1.8097, -2.015 -1.9363 1.8057, -2.0208 -1.9421 1.7995, -2.0252 -1.9465 1.7913, -2.028 -1.9493 1.7818, -2.029 -1.9502 1.7717, -2.0261 -1.8898 1.811, -2.035 -1.8949 1.8097, -2.0432 -1.8996 1.8057, -2.0503 -1.9037 1.7995, -2.0557 -1.9068 1.7913, -2.0591 -1.9088 1.7818, -2.0602 -1.9094 1.7717, -2.0419 -1.8518 1.811, -2.0517 -1.8544 1.8097, -2.0609 -1.8569 1.8057, -2.0688 -1.859 1.7995, -2.0748 -1.8606 1.7913, -2.0786 -1.8616 1.7818, -2.0799 -1.862 1.7717, -2.0472 -1.811 1.811, -2.0574 -1.811 1.8097, -2.0669 -1.811 1.8057, -2.0751 -1.811 1.7995, -2.0813 -1.811 1.7913, -2.0853 -1.811 1.7818, -2.0866 -1.811 1.7717, -1.8898 1.9685 1.811, -1.8898 1.9787 1.8097, -1.8898 1.9882 1.8057, -1.8898 1.9963 1.7995, -1.8898 2.0026 1.7913, -1.8898 2.0065 1.7818, -1.8898 2.0079 1.7717, -2.0472 1.811 1.811, -2.0574 1.811 1.8097, -2.0669 1.811 1.8057, -2.0751 1.811 1.7995, -2.0813 1.811 1.7913, -2.0853 1.811 1.7818, -2.0866 1.811 1.7717, -2.0419 1.8518 1.811, -2.0517 1.8544 1.8097, -2.0609 1.8569 1.8057, -2.0688 1.859 1.7995, -2.0748 1.8606 1.7913, -2.0786 1.8616 1.7818, -2.0799 1.862 1.7717, -2.0261 1.8898 1.811, -2.035 1.8949 1.8097, -2.0432 1.8996 1.8057, -2.0503 1.9037 1.7995, -2.0557 1.9068 1.7913, -2.0591 1.9088 1.7818, -2.0602 1.9094 1.7717, -2.0011 1.9224 1.811, -2.0083 1.9296 1.8097, -2.015 1.9363 1.8057, -2.0208 1.9421 1.7995, -2.0252 1.9465 1.7913, -2.028 1.9493 1.7818, -2.029 1.9502 1.7717, -1.9685 1.9474 1.811, -1.9736 1.9562 1.8097, -1.9783 1.9645 1.8057, -1.9824 1.9715 1.7995, -1.9856 1.9769 1.7913, -1.9875 1.9803 1.7818, -1.9882 1.9815 1.7717, -1.9305 1.9631 1.811, -1.9332 1.973 1.8097, -1.9356 1.9822 1.8057, -1.9377 1.99 1.7995, -1.9393 1.9961 1.7913, -1.9404 1.9999 1.7818, -1.9407 2.0012 1.7717, -1.9407 2.0012 1.7717
            ]
        }
        coordIndex [
            0,1,2,-1,2,1,3,-1,4,3,5,-1,5,3,6,-1,7,8,0,-1,0,8,9,-1,0,9,10,-1,10,11,0,-1,0,11,12,-1,0,12,1,-1,6,13,5,-1,5,13,14,-1,5,14,15,-1,4,16,3,-1,3,16,17,-1,3,17,18,-1,0,19,7,-1,7,19,20,-1,7,20,21,-1,21,20,22,-1,21,22,23,-1,18,24,3,-1,3,24,25,-1,3,25,2,-1,26,27,28,-1,28,27,29,-1,28,29,30,-1,30,29,31,-1,30,31,32,-1,32,31,33,-1,32,33,34,-1,34,33,35,-1,34,35,36,-1,36,35,37,-1,36,37,38,-1,38,37,39,-1,27,40,29,-1,29,40,41,-1,29,41,31,-1,31,41,42,-1,31,42,33,-1,33,42,43,-1,33,43,35,-1,35,43,44,-1,35,44,37,-1,37,44,45,-1,37,45,39,-1,39,45,46,-1,40,47,41,-1,41,47,48,-1,41,48,42,-1,42,48,49,-1,42,49,43,-1,43,49,50,-1,43,50,44,-1,44,50,51,-1,44,51,45,-1,45,51,52,-1,45,52,46,-1,46,52,53,-1,47,54,48,-1,48,54,55,-1,48,55,49,-1,49,55,56,-1,49,56,50,-1,50,56,57,-1,50,57,51,-1,51,57,58,-1,51,58,52,-1,52,58,59,-1,52,59,53,-1,53,59,60,-1,54,61,55,-1,55,61,62,-1,55,62,56,-1,56,62,63,-1,56,63,57,-1,57,63,64,-1,57,64,58,-1,58,64,65,-1,58,65,59,-1,59,65,66,-1,59,66,60,-1,60,66,67,-1,61,68,62,-1,62,68,69,-1,62,69,63,-1,63,69,70,-1,63,70,64,-1,64,70,71,-1,64,71,65,-1,65,71,72,-1,65,72,66,-1,66,72,73,-1,66,73,67,-1,67,73,74,-1,75,26,28,-1,75,28,76,-1,76,28,30,-1,76,30,77,-1,77,30,32,-1,77,32,78,-1,78,32,34,-1,78,34,79,-1,79,34,36,-1,79,36,80,-1,80,36,38,-1,80,38,81,-1,68,82,83,-1,68,83,69,-1,69,83,84,-1,69,84,70,-1,70,84,85,-1,70,85,71,-1,71,85,86,-1,71,86,72,-1,72,86,87,-1,72,87,73,-1,88,89,87,-1,87,89,90,-1,87,90,91,-1,91,92,87,-1,87,92,93,-1,87,93,94,-1,94,95,87,-1,87,95,96,-1,87,96,97,-1,97,98,87,-1,87,98,74,-1,87,74,73,-1,99,100,101,-1,101,100,102,-1,101,102,103,-1,103,102,104,-1,103,104,105,-1,105,104,106,-1,105,106,107,-1,107,106,108,-1,107,108,109,-1,109,108,110,-1,109,110,111,-1,111,110,112,-1,100,113,102,-1,102,113,114,-1,102,114,104,-1,104,114,115,-1,104,115,106,-1,106,115,116,-1,106,116,108,-1,108,116,117,-1,108,117,110,-1,110,117,118,-1,110,118,112,-1,112,118,119,-1,113,120,114,-1,114,120,121,-1,114,121,115,-1,115,121,122,-1,115,122,116,-1,116,122,123,-1,116,123,117,-1,117,123,124,-1,117,124,118,-1,118,124,125,-1,118,125,119,-1,119,125,126,-1,120,127,121,-1,121,127,128,-1,121,128,122,-1,122,128,129,-1,122,129,123,-1,123,129,130,-1,123,130,124,-1,124,130,131,-1,124,131,125,-1,125,131,132,-1,125,132,126,-1,126,132,133,-1,127,134,128,-1,128,134,135,-1,128,135,129,-1,129,135,136,-1,129,136,130,-1,130,136,137,-1,130,137,131,-1,131,137,138,-1,131,138,132,-1,132,138,139,-1,132,139,133,-1,133,139,140,-1,134,75,135,-1,135,75,76,-1,135,76,136,-1,136,76,77,-1,136,77,137,-1,137,77,78,-1,137,78,138,-1,138,78,79,-1,138,79,139,-1,139,79,80,-1,139,80,140,-1,140,80,81,-1,82,141,83,-1,83,141,142,-1,83,142,84,-1,84,142,143,-1,84,143,85,-1,85,143,144,-1,85,144,86,-1,86,144,145,-1,86,145,87,-1,87,145,146,-1,87,146,88,-1,88,146,147,-1,141,148,142,-1,142,148,149,-1,142,149,143,-1,143,149,150,-1,143,150,144,-1,144,150,151,-1,144,151,145,-1,145,151,152,-1,145,152,146,-1,146,152,153,-1,146,153,147,-1,147,153,154,-1,148,155,149,-1,149,155,156,-1,149,156,150,-1,150,156,157,-1,150,157,151,-1,151,157,158,-1,151,158,152,-1,152,158,159,-1,152,159,153,-1,153,159,160,-1,153,160,154,-1,154,160,161,-1,155,162,156,-1,156,162,163,-1,156,163,157,-1,157,163,164,-1,157,164,158,-1,158,164,165,-1,158,165,159,-1,159,165,166,-1,159,166,160,-1,160,166,167,-1,160,167,161,-1,161,167,168,-1,162,169,163,-1,163,169,170,-1,163,170,164,-1,164,170,171,-1,164,171,165,-1,165,171,172,-1,165,172,166,-1,166,172,173,-1,166,173,167,-1,167,173,174,-1,167,174,168,-1,168,174,175,-1,169,176,170,-1,170,176,177,-1,170,177,171,-1,171,177,178,-1,171,178,172,-1,172,178,179,-1,172,179,173,-1,173,179,180,-1,173,180,174,-1,174,180,181,-1,174,181,175,-1,175,181,182,-1,183,99,101,-1,183,101,184,-1,184,101,103,-1,184,103,185,-1,185,103,105,-1,185,105,186,-1,186,105,107,-1,186,107,187,-1,187,107,109,-1,187,109,188,-1,188,109,111,-1,188,111,189,-1,176,190,191,-1,176,191,177,-1,177,191,192,-1,177,192,178,-1,178,192,193,-1,178,193,179,-1,179,193,194,-1,179,194,180,-1,180,194,195,-1,180,195,181,-1,181,195,196,-1,181,196,182,-1,190,197,191,-1,191,197,198,-1,191,198,192,-1,192,198,199,-1,192,199,193,-1,193,199,200,-1,193,200,194,-1,194,200,201,-1,194,201,195,-1,195,201,202,-1,195,202,196,-1,196,202,203,-1,197,204,198,-1,198,204,205,-1,198,205,199,-1,199,205,206,-1,199,206,200,-1,200,206,207,-1,200,207,201,-1,201,207,208,-1,201,208,202,-1,202,208,209,-1,202,209,203,-1,203,209,210,-1,204,211,205,-1,205,211,212,-1,205,212,206,-1,206,212,213,-1,206,213,207,-1,207,213,214,-1,207,214,208,-1,208,214,215,-1,208,215,209,-1,209,215,216,-1,209,216,210,-1,210,216,217,-1,211,218,212,-1,212,218,219,-1,212,219,213,-1,213,219,220,-1,213,220,214,-1,214,220,221,-1,214,221,215,-1,215,221,222,-1,215,222,216,-1,216,222,223,-1,216,223,217,-1,217,223,224,-1,218,225,219,-1,219,225,226,-1,219,226,220,-1,220,226,227,-1,220,227,221,-1,221,227,228,-1,221,228,222,-1,222,228,229,-1,222,229,223,-1,223,229,230,-1,223,230,224,-1,224,230,231,-1,225,183,226,-1,226,183,184,-1,226,184,227,-1,227,184,185,-1,227,185,228,-1,228,185,186,-1,228,186,229,-1,229,186,187,-1,229,187,230,-1,230,187,188,-1,230,188,231,-1,231,188,189,-1,
        ]
    }
}